<svg width="1045" height="998" viewBox="0 0 1045 998" fill="none" xmlns="http://www.w3.org/2000/svg">
<path fill-rule="evenodd" clip-rule="evenodd" d="M890.387 917.641C810.348 996.08 681.5 1007.2 567.271 990.655C463.133 975.575 381.249 898.037 296.278 831.606C217.583 770.081 141.47 707.775 93.2948 620.098C39.2774 521.789 -21.2126 410.131 7.41116 305.883C35.8961 202.141 146.859 154.533 236.468 98.6623C316.19 48.9552 399.099 -7.44498 495.132 1.78963C587.038 10.6274 647.927 101.812 731.125 146.229C830.636 199.355 976.421 186.078 1029 286.807C1080.92 386.265 990.574 492.669 967.29 598.628C943.199 708.266 968.844 840.751 890.387 917.641Z" fill="#D0DDE9" fill-opacity="0.41"/>
</svg>
