<svg width="472" height="998" viewBox="0 0 472 998" fill="none" xmlns="http://www.w3.org/2000/svg">
<path fill-rule="evenodd" clip-rule="evenodd" d="M317.387 917.641C237.348 996.08 108.5 1007.2 -5.7289 990.655C-109.867 975.575 -191.751 898.037 -276.722 831.606C-355.417 770.081 -431.53 707.775 -479.705 620.098C-533.723 521.789 -594.213 410.131 -565.589 305.883C-537.104 202.141 -426.141 154.533 -336.533 98.6623C-256.81 48.9552 -173.901 -7.44498 -77.8682 1.78963C14.0381 10.6274 74.9266 101.812 158.125 146.229C257.636 199.355 403.421 186.078 456.005 286.807C507.924 386.265 417.573 492.669 394.29 598.628C370.199 708.266 395.844 840.751 317.387 917.641Z" fill="#FBC443"/>
</svg>
