<?xml version="1.0" encoding="utf-8"?>
<!-- Generator: Adobe Illustrator 26.1.0, SVG Export Plug-In . SVG Version: 6.00 Build 0)  -->
<svg version="1.1" xmlns="http://www.w3.org/2000/svg" xmlns:xlink="http://www.w3.org/1999/xlink" x="0px" y="0px"
	 viewBox="0 0 517.7 293.7" style="enable-background:new 0 0 517.7 293.7;" xml:space="preserve">
<style type="text/css">
	.st0{fill:#FF5F5F;}
	.st1{fill:#FCC443;}
	.st2{fill:#F4F3EC;}
	.st3{fill:#18304C;}
	.st4{fill:none;stroke:#F4F3EC;stroke-width:1.3182;stroke-miterlimit:10;}
	.st5{fill:none;stroke:#FCC443;stroke-width:1.3182;stroke-miterlimit:10;}
	.st6{display:none;}
	.st7{display:inline;fill:none;stroke:#00FF00;stroke-width:1.103;stroke-miterlimit:10;}
	.st8{display:inline;fill:none;stroke:#00FF00;stroke-width:1.4796;stroke-miterlimit:10;}
	.st9{display:inline;fill:none;stroke:#00FF00;stroke-width:0.8605;stroke-miterlimit:10;}
	.st10{display:inline;fill:none;stroke:#00FF00;stroke-width:0.6995;stroke-miterlimit:10;}
	.st11{display:inline;fill:none;stroke:#00FF00;stroke-width:0.9638;stroke-miterlimit:10;}
	.st12{display:inline;fill:none;stroke:#00FF00;stroke-width:1.1881;stroke-miterlimit:10;}
	.st13{display:inline;fill:none;stroke:#00FF00;stroke-width:0.887;stroke-miterlimit:10;}
</style>
<g id="BGs">
</g>
<g id="Assinaturas">
	<g>
		<g>
			<g>
				<path class="st3" d="M446.8,145.2c5.1,0,8.6-3.7,8.6-8.2c0-0.4-0.2-8-8.6-8c-7.8,0-8.5,7-8.5,8
					C438.3,141.4,441.5,145.2,446.8,145.2z"/>
				<path class="st3" d="M397.9,123.3c0.2-16.4,9.3-17.5,13.3-17.7c7.2-0.4,11.7,3.3,11.7,18.9v21.1h14.5c-2.1-2.2-3.4-5.3-3.4-8.7
					c0-4.8,2.6-8.8,6.6-10.8v-9.4c0-21.2-10.5-28.9-25.6-28.3c-6.4,0.3-14.4,3.3-17.9,14.7l-3.7-0.6c1.4-2.3,4.3-6.8,4.3-11.3V69.9
					H380v75.8h17.6L397.9,123.3z"/>
				<path class="st3" d="M374.9,122.2h-18.9c-0.5,4.3-3.9,9-11.5,9c-8,0-11.9-5.4-11.9-13.7c0-8.2,4.4-13.5,11.9-13.5
					c7.6,0,11,4.7,11.5,9h18.9c-0.7-15.9-14.5-24.9-30.5-24.9c-17.7,0-30.7,10.1-30.7,29.3c0,19.4,13,29.6,30.7,29.6
					C360.3,147.1,374.2,138.1,374.9,122.2z"/>
				<path class="st3" d="M308.6,125.9h-19c-1.1,4.4-5.2,6.7-11.1,6.7c-6.9,0-11.1-3.9-11.8-11h41.8c0,0,4.7-33.5-30.9-33.5
					c-17.6,0-30.1,11-30.1,29.2c0,17.7,11.9,29.7,31,29.7C295.9,147.1,307,138.4,308.6,125.9z M278.1,102.1c6.7,0,11.1,3.5,11.6,9.7
					h-23.1C267.1,105.5,271.5,102.1,278.1,102.1z"/>
				<path class="st3" d="M197.4,126.2c0,19.4,15.4,20.9,21.8,20.9c12.3,0,22.6-7,22.6-21.6V117h-17.4v8c0,4.9-1.3,7.2-4.9,7.2
					c-2.8,0-4.7-2-4.7-6.4v-19.3h21.6V90.1h-28.8v-2.3c10.7,0,13.8-7.5,13.8-12.1h-18.1c0,4-1.2,14.4-13.1,14.4v16.4h7.4V126.2z"/>
				<path class="st3" d="M423.6,159.4c-17.6,0-30.1,11-30.1,29.2c0,17.7,11.9,29.7,31,29.7c17.5,0,28.6-8.6,30.1-21.2h-19
					c-1.1,4.4-5.2,6.7-11.1,6.7c-6.9,0-11.1-3.9-11.8-11h41.8C454.5,192.9,459.1,159.4,423.6,159.4z M412.7,183
					c0.4-6.3,4.8-9.7,11.4-9.7c6.7,0,11.1,3.5,11.6,9.7H412.7z"/>
				<path class="st3" d="M296.8,160c-10,0.1-16.2,6.2-19.3,15.3l-3.2-0.7c3.4-5.6,4.6-10.3,3.9-12.4h-17.6v55h17.6v-22.2
					c0-12.7,7.7-18,15.2-17.3c7.5,0.7,10,5.4,10,20v19.6h17.6v-29.5C320.9,168.2,310,159.9,296.8,160z"/>
				<path class="st3" d="M363.2,160c-10,0.1-16.2,6.2-19.3,15.3l-3.2-0.7c3.4-5.6,4.6-10.3,3.9-12.4H327v55h17.6v-22.2
					c0-12.7,7.7-18,15.2-17.3c7.5,0.7,10,5.4,10,20v19.6h17.6v-29.5C387.4,168.2,376.5,159.9,363.2,160z"/>
				<path class="st3" d="M248.6,183.3c0-16.4-14.1-23.4-29.8-23.4c-15.6,0-28.2,7.7-28.5,22.7h18.1c0.2-5,4.2-8,11.1-8
					c6.5,0,9.9,2.4,9.9,8.3l-17.3,1.9c-17.4,1.8-23.1,7.6-23.1,17.5c0,5.8,3,16.2,21,16.2c15.9,0,21.8-7.5,24-16.7h4.2
					c-0.7,1.7-1.1,2.7-1.9,4.4c-1.4,2.8-1.2,6.2,0.9,8.5c1.7,1.9,4.3,2.6,6.7,2.6h11.3v-16.3h-6.5V183.3z M214.9,203.6
					c-3.7,0-7.1-0.9-7.1-4.6c0-3.1,2.8-3.7,7.9-4.5l13.7-2C229.3,199.4,222.8,203.6,214.9,203.6z"/>
			</g>
			<g>
				<path class="st3" d="M124.6,99.4c1.8-0.5,9-2.6,13.1-1.9c1.4,0.2,2.3,0.4,3.2,0.6c1.1,0.2,1.7,0.4,2.3,0.6
					c0.3,0.1,0.5,0.2,0.8,0.3c0.2,0.1,0.5,0.2,0.7,0.2c0.1,0,0.2,0,0.3,0c0.2-0.1,0-0.4,0-0.6c-0.2-0.3-0.5-0.5-0.7-0.7
					c-0.5-0.4-0.9-0.8-1.7-1.3c-0.7-0.5-1.4-0.9-2.3-1.3c-0.9-0.4-1.7-0.7-2.6-0.9c-0.3-0.1-0.6-0.1-1-0.1c-4-0.2-6.9,0.4-12.8,2.3
					c-0.3,0.1-0.5,0.4-0.6,0.7c-0.1,0.5-0.1,1.2,0.4,1.8C124,99.4,124.3,99.5,124.6,99.4z"/>
				<path class="st3" d="M139.4,137.6c-1.3,0.2-2.5,0.4-3.8,0.6c-1.8,0.2-3.9,0.5-5.7,0.6c-6.8,0.5-13.7,0.5-20.4-0.7
					c0,0-1.1-0.4-1.4,0.4c-0.1,0.3,0.1,0.9,0.4,1c0,0,0.2,0.1,0.2,0.1c2.7,1.9,2.1,5.9,4.4,8.2c2.5,2.9,6.6,3.3,10.1,2.7
					c3.5-0.5,6.6-2.2,9.5-4.3c2.8-2,5.4-4.2,7.7-6.7C141.2,138.8,140.5,137.4,139.4,137.6z M131.4,144.5c-2.6,1.9-5.4,3.5-8.6,4.1
					c-3.6,0.8-8.2,0-9.6-3.8c-0.5-1.5-1-3.3-1.9-4.7c8.1,1.4,16.4,1.2,24.5,0.4c0.1,0,0.3,0,0.4-0.1
					C134.8,141.8,133.1,143.2,131.4,144.5z"/>
				<path class="st3" d="M138.8,133c-0.2,0-0.3,0.3-0.1,0.4c0.7,0.5,1.3,1,1.9,1.5c1.1,0.9,1.9,1.8,2.1,3.2c0.1,0.7,0,1.4-0.1,2.3
					c0,0.1,0.1,0.2,0.2,0.1C146.4,137.4,142.9,132.7,138.8,133z"/>
				<path class="st3" d="M140.1,111c-1.6-2.4-5-2.6-7.6-1.7c-1.8,0.7-2.9,2.6-2.8,4.5l1.3-0.1c0.1-2.5,2.4-3.4,4.6-3
					c1.5,0.1,2.9,1.3,2.9,2.8l1.8-0.1c0.4,0,0.8-0.1,1.1-0.3c1-0.6,2.9-1.7,2.7-1.6C142.4,112,140.6,111.3,140.1,111z"/>
				<path class="st3" d="M175.9,172.3c2.1-4.2,4-8.3,4.3-13.2c0.4-6.4-1.1-12.6-2.2-18.8c-1-5.3-1.8-10.7-2.5-16.1
					c-0.1-0.9-0.2-1.8-0.3-2.7c0.4-2.9,0.6-5.6,0.7-8c1-0.1,2.1-0.6,2.6-1.6c0.3-0.7,0.2-1.5-0.2-2.1c-0.4-0.6-1.1-0.8-1.7-0.9
					c-0.1,0-0.1,0-0.2,0.1c0,0.1,0,0.2,0.1,0.2c0.8,0.4,1.5,1.3,0.9,2.1c-0.3,0.4-0.9,0.7-1.5,0.8c0.1-5.1-0.5-8.6-1.9-10.3
					c-0.2-0.3-0.4-0.4-0.6-0.6c0.3-7.6-0.4-11-3.4-23.8c-3.1-13.3-17.3-18.3-17.3-18.3c-1.6-8.7-12.2-10.3-23.4-10.6
					c-11.2-0.3-25.7,5.9-32.2,24.8c-2.7,8-6.1,15.7-10.7,22.8c-4.8,7.4-10.8,14.1-14.3,22.3c-3.5,8-5.8,16.5-8.4,24.9
					c-1.4,4.6-2.5,9.4-4.9,13.6c-3,5.3-7.3,9.5-9.6,15.3c-2.3,5.8-3.5,12.2-2.9,18.4c0.7,6.7,3.6,13,7.4,18.5
					c2.4,3.6,5.2,6.9,8.3,9.9c1,1,3.4,2.5,4,3.7c-6.4-14.6-4.2-27.5-3.8-29.4c-0.2,1.1-0.4,5.7,3.9,20.1
					c5.1,16.9,25.7,21.4,25.7,21.4c-11.2-11.2-7.1-32.7-7.1-32.7c0.9,5.7,2.5,14.3,4.3,18.8c5.8,14.3,15.8,16.5,15.8,16.5
					c1-5.4-1.4-20.7-1.4-20.7c5.6,11.2,5.4,28.3,5.4,28.3c0.8-0.8,9.5-13.1,8.9-43.7c-0.1-5.4,0.7-10.6,2.4-15.8
					c2.9-8.9,3.4-14.6,3.4-17.2c1.4,0.2,2.9,0.2,4.4-0.1c3.4-0.7,5.9-3,8.9-4.5c1.4-0.7,2.8-1.3,4.3-1.9c2-0.8,4-1.6,5.8-2.7
					c-4.4,7-9.7,16.4-13.6,25.9c-7.6,18.6-7.6,46.9-7.6,46.9s9.9-8.7,13.9-27c4.1-18.3,9.1-20.9,9.1-20.9s-4.7,5.5-8,24.9
					c-3.1,17.9-13.5,33.2-13.5,33.2c13.8,0.5,21.3-8.2,22.1-18.5s2.5-12,2.5-12c-4.1,18.3,11.4,23.6,11.4,23.6
					c-3.1-2.9-3.5-13.1-3.5-13.1c6.2,6.1,6.6,17.3,6.6,17.3c0-0.8,2.6-3.3,3.1-4.2c0.8-1.3,1.4-2.8,1.8-4.3c0.6-2.4,1.1-5.3,0.9-7.8
					c-0.6-8.2-2.9-16.1-3-24.5c0-7.1,1-14.4,3.8-21C174.2,175.8,175.1,174,175.9,172.3z M101.9,101c1.4-0.1,4.4-0.3,7.5,0.1
					c0.1,0,0.3,0,0.4-0.2c0.2-0.4,0.6-1.1,0.5-1.9c-0.1-0.8-5.6-0.9-8.2-0.9c0.2-3.9,0.2-7.1,0.2-8.6c0.2-9.1,6.2-18.1,16.5-20
					c15.9-2.9,29.1-0.5,32.8,17.5c1.3,6.6,4.1,12.7,6.1,16.7c-3.6,0.2-7.1,0.5-7.1,0.5c0,0-0.1,0-0.1,0l-2.7,0.5
					c-1.4-2.1-3.8-3.4-6.2-4c-2.4-0.6-4.9-0.7-7.3-0.6c-5.2,0.2-11.4,2.5-13.3,7.6c-1.4-0.3-2.8-0.4-4.3-0.2c-1,0.1-2,0.4-3,0.7
					c-1.5-3.4-5.2-4.9-8.7-5.3c-1-0.1-2.1-0.2-3.1-0.2C101.8,102.2,101.9,101.6,101.9,101z M145.3,118.3c-1.8,2.8-4.8,4.5-8,5.3
					c-2.3,0.5-4.7,0.3-6.9-0.5c-2.4-0.9-4.3-2.6-5.4-4.9c-0.9-1.9-1.7-3.9-2-6c-0.1-0.8-0.1-1.7,0.2-2.4c1.2-7.2,12.3-8.4,18.2-6.9
					c2.1,0.6,4.2,1.8,5.2,3.9c0.1,0.2,0.2,0.5,0.3,0.7C147.7,111.1,147.4,115.2,145.3,118.3z M100.1,116.1c0.2-0.7,0.3-1.5,0.5-2.4
					c0.6-1.1,1.8-1.7,3.2-1.5c0.9,0.1,1.8,0.3,2.4,1c0.6,0.6,0.8,1.5,0.8,2.3c0,0,1.9,0.1,1.9,0.1c0-2.3-1.7-4.5-4.1-4.8
					c-1.4-0.2-2.8,0-3.9,0.7c0.3-1.9,0.5-3.8,0.6-5.8c1,0,2,0.1,3,0.2c2.9,0.3,5.9,1.3,7,4.2c0.8,2.4,0.7,5.1,0.4,7.5
					c-0.4,2.1-1.2,4-2.7,5.4c-1.7,1.7-4.1,2.7-6.5,2.8c-1.5,0-3.1-0.5-4.5-1.1C98.6,122.5,99.3,119.9,100.1,116.1z M161.7,118.9
					c-0.3,2.6-1.5,4.3-0.7,9.6c0.8,5.3-0.4,9.9-6.4,19.5c0,0,0,0.1-0.1,0.2c-0.1,0-0.1-0.1-0.1-0.1c-4.8,8.2-10.7,9.5-18.5,13.6
					c-4.6,2.7-6.6,5.4-12.3,4.8c-7.6-0.9-9.2-8-11.6-11.8c-1.7-2.6-8.8-12.6-10.2-14.8c-1.4-2.2-3.2-6.3-3.8-9.6
					c-0.2-1.2-0.2-2.3-0.1-3.6c3.5,1.3,7.5,1.3,10.8-0.7c0.4-0.2,0.7-0.4,1-0.7c-0.2,0.6-0.3,1.1-0.4,1.7c-0.5,2.8,1,6.2,4.3,5.9
					c1.6-0.1,3-0.9,4.4-1.1c0.7-0.1,1.3,0,2,0.1c0.6,0.1,1.3,0.2,2,0.2c-0.1,0.1-0.3,0.2-0.5,0.3c-0.2,0.1-0.2,0.3-0.1,0.4
					c0.9,0.4,1.6-0.1,2.1-0.8c0.1,0,0.1,0,0.2,0c2.1-0.6,3.8-2.4,4.1-4.6c0,0-1.2-0.2-1.2-0.2c-0.3,1.3-1.4,2.6-2.7,3.1
					c0-1.1-0.8-2.4-2-2.5c-0.2,0-0.3,0.2-0.1,0.3c0.5,0.7,0.7,1.4,0.7,2.3c-1.5-0.1-3.1-0.7-4.7-0.6c-1.6,0.1-3,0.9-4.4,1
					c-3.6-0.1-2.1-5.8-1.2-7.9c0.2-0.5,0.4-0.9,0.5-1.4c0.7-1.2,1.1-2.5,1.4-3.8c0.4-2.4,0.6-4.9,0.1-7.3c0,0,0.1-0.1,0.1-0.1
					c1.7-1.2,4.1-1.3,5.9-0.4c-0.1,3,1.4,6.4,2.9,9c2.7,5.2,8.6,7.1,14.1,6.2c3.7-0.8,7.4-2.8,9.5-6.1c2.3-3.4,2.7-8.2,1.9-11.9
					l2.1-0.6l7.6-1.2c0.1,0.3,0.3,0.5,0.4,0.7C160.7,109.9,162,116.3,161.7,118.9z M164.9,130.9c-1.7-4.7,1.2-13.6,1.3-18.6
					c0.2-9.3,5-9,5.6-8.9c0.2,0,0.4,0.1,0.7,0.2c0.5,0.8,1.3,3,1.2,8.4c-0.5-0.1-0.9-0.4-1.1-0.6c-0.6-0.6-0.4-1.8,0.6-2
					c0.2,0,0.2-0.3,0-0.3c-1.6-0.2-2.3,1.9-1.5,3c0.5,0.7,1.2,1.1,2,1.3c-0.1,1.7-0.2,3.7-0.5,6C171,132.2,164.9,130.9,164.9,130.9z
					"/>
			</g>
		</g>
		<g>
			<path class="st3" d="M79.7,82.3v-0.5c0-0.8-0.9-1-1.8-1.1v-0.2c1,0,2.7-0.2,2.7-2.3c0-1.7-1.4-2.6-3.2-2.6h-3.6v8.5h1.5v-3h1.4
				c1,0,1.5,0.6,1.5,1.1v0.4c0,1.3,1.1,1.6,2.4,1.6V83C80.6,83,79.7,83,79.7,82.3z M77.2,79.9h-1.9v-3h1.9c1.1,0,1.8,0.6,1.8,1.5
				C79,79.4,78.3,79.9,77.2,79.9z"/>
			<path class="st3" d="M77.2,72.3c-4.2,0-7.6,3.4-7.6,7.6c0,4.2,3.4,7.6,7.6,7.6s7.6-3.4,7.6-7.6C84.8,75.7,81.4,72.3,77.2,72.3z
				 M77.2,86.3c-3.5,0-6.4-2.9-6.4-6.4s2.9-6.4,6.4-6.4s6.4,2.9,6.4,6.4S80.7,86.3,77.2,86.3z"/>
		</g>
	</g>
</g>
<g id="Grid" class="st6">
</g>
</svg>
