<svg width="373" height="184" viewBox="0 0 373 184" fill="none" xmlns="http://www.w3.org/2000/svg">
<path d="M190.217 107.568C192.953 107.568 195.005 108.732 196.373 111.06C197.597 109.86 199.025 108.888 200.657 108.144C202.313 107.376 204.065 106.992 205.913 106.992C208.841 106.992 211.265 107.784 213.185 109.368C215.105 110.952 216.533 113.148 217.469 115.956C218.405 118.74 218.873 121.956 218.873 125.604C218.873 129.732 218.213 133.224 216.893 136.08C215.597 138.912 213.857 141.06 211.673 142.524C209.489 143.988 207.077 144.72 204.437 144.72C203.189 144.72 202.013 144.564 200.909 144.252C199.805 143.964 198.761 143.604 197.777 143.172V152.784C197.777 155.28 197.297 157.032 196.337 158.04C195.401 159.048 193.829 159.552 191.621 159.552H187.229L186.725 159.048V108.072L187.229 107.568H190.217ZM202.997 116.028C202.301 116.028 201.485 116.22 200.549 116.604C199.613 116.964 198.689 117.708 197.777 118.836V134.676C198.617 135.18 199.433 135.588 200.225 135.9C201.041 136.188 201.785 136.332 202.457 136.332C204.209 136.332 205.457 135.36 206.201 133.416C206.969 131.472 207.353 128.844 207.353 125.532C207.353 122.196 206.945 119.784 206.129 118.296C205.313 116.784 204.269 116.028 202.997 116.028ZM223.344 134.172C223.344 131.292 224.016 128.928 225.36 127.08C226.704 125.232 228.456 123.864 230.616 122.976C232.8 122.088 235.128 121.644 237.6 121.644C238.272 121.644 239.052 121.656 239.94 121.68C240.852 121.68 241.788 121.716 242.748 121.788V120.456C242.748 117.408 241.176 115.884 238.032 115.884C236.496 115.884 234.816 116.136 232.992 116.64C231.168 117.12 229.308 117.636 227.412 118.188C226.62 117.276 225.996 116.1 225.54 114.66C225.108 113.196 224.832 111.768 224.712 110.376C226.32 109.728 228.108 109.164 230.076 108.684C232.044 108.204 234 107.844 235.944 107.604C237.888 107.34 239.64 107.208 241.2 107.208C243.288 107.208 245.304 107.604 247.248 108.396C249.216 109.164 250.824 110.448 252.072 112.248C253.344 114.048 253.98 116.46 253.98 119.484V134.136C253.98 136.296 254.652 137.856 255.996 138.816C255.804 139.8 255.36 140.868 254.664 142.02C253.968 143.172 253.272 144.024 252.576 144.576C250.728 144.552 249.168 144.18 247.896 143.46C246.648 142.716 245.628 141.816 244.836 140.76C243.564 141.936 242.076 142.956 240.372 143.82C238.692 144.66 236.664 145.08 234.288 145.08C231.816 145.08 229.764 144.528 228.132 143.424C226.524 142.32 225.324 140.94 224.532 139.284C223.74 137.604 223.344 135.9 223.344 134.172ZM234.288 133.416C234.288 134.376 234.588 135.18 235.188 135.828C235.788 136.452 236.592 136.764 237.6 136.764C239.352 136.764 241.068 136.056 242.748 134.64V128.916C242.028 128.892 241.32 128.88 240.624 128.88C239.928 128.856 239.316 128.844 238.788 128.844C237.204 128.844 236.052 129.276 235.332 130.14C234.636 130.98 234.288 132.072 234.288 133.416ZM263.331 104.004C263.331 101.484 263.787 99.732 264.699 98.748C265.635 97.74 267.207 97.236 269.415 97.236H273.807L274.311 97.74V108.108L282.843 108C283.179 109.272 283.347 110.58 283.347 111.924C283.347 113.412 283.179 114.768 282.843 115.992L274.311 115.848V132.408C274.311 134.664 275.379 135.792 277.515 135.792H281.547C282.147 137.52 282.447 139.296 282.447 141.12C282.447 141.528 282.423 141.96 282.375 142.416C282.327 142.872 282.255 143.28 282.159 143.64C280.839 143.832 279.315 144 277.587 144.144C275.859 144.288 274.275 144.36 272.835 144.36C269.571 144.36 267.171 143.556 265.635 141.948C264.099 140.316 263.331 137.784 263.331 134.352V115.884L257.679 115.992C257.367 114.768 257.211 113.412 257.211 111.924C257.211 110.58 257.367 109.272 257.679 108L263.331 108.072V104.004ZM299.765 144C298.181 144.288 296.321 144.432 294.185 144.432C292.265 144.432 290.453 144.288 288.749 144V91.512L289.253 91.008H293.645C295.853 91.008 297.425 91.512 298.361 92.52C299.297 93.528 299.765 95.28 299.765 97.776V111.384C301.109 110.28 302.561 109.344 304.121 108.576C305.705 107.808 307.457 107.424 309.377 107.424C312.665 107.424 315.161 108.624 316.865 111.024C318.593 113.4 319.457 116.472 319.457 120.24V135C319.457 136.416 319.589 137.736 319.853 138.96C320.117 140.16 320.573 141.228 321.221 142.164C320.405 142.86 319.385 143.436 318.161 143.892C316.937 144.348 315.617 144.576 314.201 144.576C311.945 144.576 310.373 143.976 309.485 142.776C308.621 141.576 308.189 139.848 308.189 137.592V122.292C308.189 120.66 307.973 119.46 307.541 118.692C307.109 117.9 306.293 117.504 305.093 117.504C304.373 117.504 303.533 117.696 302.573 118.08C301.613 118.464 300.677 119.088 299.765 119.952V144Z" fill="#FBC443"/>
<path d="M94.4468 39.672C94.4468 36.312 95.0548 33.976 96.2708 32.664C97.5188 31.32 99.6148 30.648 102.559 30.648H108.415L109.087 31.32V45.144L120.463 45C120.911 46.696 121.135 48.44 121.135 50.232C121.135 52.216 120.911 54.024 120.463 55.656L109.087 55.464V77.544C109.087 80.552 110.511 82.056 113.359 82.056H118.735C119.535 84.36 119.935 86.728 119.935 89.16C119.935 89.704 119.903 90.28 119.839 90.888C119.775 91.496 119.679 92.04 119.551 92.52C117.791 92.776 115.759 93 113.455 93.192C111.151 93.384 109.039 93.48 107.119 93.48C102.767 93.48 99.5668 92.408 97.5188 90.264C95.4708 88.088 94.4468 84.712 94.4468 80.136V55.512L86.9108 55.656C86.4947 54.024 86.2867 52.216 86.2867 50.232C86.2867 48.44 86.4947 46.696 86.9108 45L94.4468 45.096V39.672ZM165.121 88.968C162.689 90.728 159.777 92.072 156.385 93C153.025 93.96 149.633 94.44 146.209 94.44C142.017 94.44 138.529 93.736 135.745 92.328C132.993 90.92 130.817 89.032 129.217 86.664C127.617 84.296 126.481 81.624 125.809 78.648C125.169 75.64 124.849 72.552 124.849 69.384C124.849 64.552 125.569 60.2 127.009 56.328C128.481 52.424 130.801 49.336 133.969 47.064C137.137 44.792 141.265 43.656 146.353 43.656C150.545 43.656 154.129 44.552 157.105 46.344C160.113 48.136 162.401 50.568 163.969 53.64C165.569 56.712 166.369 60.168 166.369 64.008C166.369 66.152 166.273 67.944 166.081 69.384C165.889 70.792 165.553 72.296 165.073 73.896H140.017C140.241 76.456 140.929 78.616 142.081 80.376C143.265 82.104 145.457 82.968 148.657 82.968C150.833 82.968 152.961 82.696 155.041 82.152C157.153 81.576 159.169 80.888 161.089 80.088C162.209 81.208 163.105 82.6 163.777 84.264C164.449 85.928 164.897 87.496 165.121 88.968ZM146.257 54.312C144.177 54.312 142.641 55.08 141.649 56.616C140.689 58.12 140.129 60.44 139.969 63.576H152.545V62.472C152.545 60.264 152.065 58.36 151.105 56.76C150.145 55.128 148.529 54.312 146.257 54.312ZM199.258 66.36C199.29 62.648 198.986 59.8 198.346 57.816C197.738 55.8 196.186 54.792 193.69 54.792C191.45 54.792 189.898 55.928 189.034 58.2C188.202 60.472 187.786 64.12 187.786 69.144C187.786 74.232 188.49 77.768 189.898 79.752C191.306 81.736 193.37 82.728 196.09 82.728C197.978 82.728 199.834 82.328 201.658 81.528C203.482 80.696 205.146 79.752 206.65 78.696C207.834 79.368 208.986 80.568 210.106 82.296C211.226 83.992 211.962 85.576 212.314 87.048C210.17 89.288 207.402 91.08 204.01 92.424C200.65 93.768 197.194 94.44 193.642 94.44C186.73 94.44 181.466 92.152 177.85 87.576C174.266 82.968 172.474 76.824 172.474 69.144C172.474 64.504 173.082 60.568 174.298 57.336C175.546 54.072 177.21 51.448 179.29 49.464C181.37 47.448 183.674 45.976 186.202 45.048C188.762 44.12 191.354 43.656 193.978 43.656C197.562 43.656 200.762 44.328 203.578 45.672C206.394 47.016 208.618 48.888 210.25 51.288C211.882 53.656 212.698 56.424 212.698 59.592C212.698 62.12 211.994 63.976 210.586 65.16C209.21 66.312 207.466 66.888 205.354 66.888C204.074 66.888 202.97 66.856 202.042 66.792C201.114 66.696 200.186 66.552 199.258 66.36ZM235.556 93C233.444 93.384 230.964 93.576 228.116 93.576C225.556 93.576 223.14 93.384 220.868 93V23.016L221.54 22.344H227.396C230.34 22.344 232.436 23.016 233.684 24.36C234.932 25.704 235.556 28.04 235.556 31.368V49.512C237.348 48.04 239.284 46.792 241.364 45.768C243.476 44.744 245.812 44.232 248.372 44.232C252.756 44.232 256.084 45.832 258.356 49.032C260.66 52.2 261.812 56.296 261.812 61.32V81C261.812 82.888 261.988 84.648 262.34 86.28C262.692 87.88 263.3 89.304 264.164 90.552C263.076 91.48 261.716 92.248 260.084 92.856C258.452 93.464 256.692 93.768 254.804 93.768C251.796 93.768 249.7 92.968 248.516 91.368C247.364 89.768 246.788 87.464 246.788 84.456V64.056C246.788 61.88 246.5 60.28 245.924 59.256C245.348 58.2 244.26 57.672 242.66 57.672C241.7 57.672 240.58 57.928 239.3 58.44C238.02 58.952 236.772 59.784 235.556 60.936V93Z" fill="#FBC443"/>
<path d="M46.377 56.06C49.057 55.02 51.337 53.26 53.217 50.78C55.097 48.3 56.037 45.16 56.037 41.36V20.36C56.037 14.92 57.517 10.66 60.477 7.58C63.477 4.46 67.257 2.5 71.817 1.69999L76.917 0.859997C77.557 1.54 78.037 2.53999 78.357 3.85999C78.677 5.14 78.717 6.32 78.477 7.39999L73.197 9.02C67.877 10.66 65.217 14.48 65.217 20.48V41.12C65.217 44.76 64.337 48.24 62.577 51.56C60.857 54.84 58.517 57.2 55.557 58.64V59.6C58.517 61.04 60.857 63.4 62.577 66.68C64.337 69.96 65.217 73.42 65.217 77.06V97.82C65.217 103.82 67.877 107.64 73.197 109.28L78.477 110.9C78.717 111.98 78.677 113.16 78.357 114.44C78.037 115.76 77.557 116.76 76.917 117.44L71.817 116.6C67.257 115.8 63.477 113.84 60.477 110.72C57.517 107.64 56.037 103.38 56.037 97.94V76.82C56.037 73.06 55.097 69.94 53.217 67.46C51.337 64.98 49.057 63.2 46.377 62.12C46.097 61.44 45.957 60.44 45.957 59.12C45.957 57.76 46.097 56.74 46.377 56.06Z" fill="#FBC443"/>
<path d="M365.637 117.06C365.957 117.74 366.117 118.76 366.117 120.12C366.117 121.44 365.957 122.44 365.637 123.12C362.957 124.2 360.677 125.98 358.797 128.46C356.917 130.94 355.977 134.06 355.977 137.82V158.94C355.977 164.38 354.477 168.64 351.477 171.72C348.517 174.84 344.757 176.8 340.197 177.6L335.097 178.44C334.457 177.76 333.977 176.76 333.657 175.44C333.337 174.16 333.297 172.98 333.537 171.9L338.817 170.28C344.137 168.64 346.797 164.82 346.797 158.82V138.06C346.797 134.42 347.657 130.96 349.377 127.68C351.137 124.4 353.497 122.04 356.457 120.6V119.64C353.497 118.2 351.137 115.84 349.377 112.56C347.657 109.24 346.797 105.76 346.797 102.12V81.48C346.797 75.48 344.137 71.66 338.817 70.02L333.537 68.4C333.297 67.32 333.337 66.14 333.657 64.86C333.977 63.54 334.457 62.54 335.097 61.86L340.197 62.7C344.757 63.5 348.517 65.46 351.477 68.58C354.477 71.66 355.977 75.92 355.977 81.36V102.36C355.977 106.16 356.917 109.3 358.797 111.78C360.677 114.26 362.957 116.02 365.637 117.06Z" fill="#FBC443"/>
<path d="M16.5708 88C15.4614 88 14.5761 87.9147 13.9148 87.744V82.048C11.7814 81.7493 9.80808 81.2373 7.99475 80.512C6.18142 79.7867 4.72008 79.0507 3.61075 78.304C3.63208 77.3867 3.90942 76.4053 4.44275 75.36C4.97608 74.3147 5.57342 73.5787 6.23475 73.152C7.68542 74.0907 9.36008 74.9227 11.2588 75.648C13.1574 76.3733 15.0348 76.7467 16.8908 76.768C18.7041 76.768 20.1974 76.384 21.3708 75.616C22.5441 74.8267 23.1414 73.7173 23.1628 72.288C23.1841 71.1147 22.8321 70.08 22.1068 69.184C21.3814 68.2667 20.2188 67.5307 18.6188 66.976L12.4108 64.768C10.0854 63.9573 8.22942 62.7947 6.84275 61.28C5.47742 59.744 4.79475 57.8133 4.79475 55.488C4.79475 52.8213 5.68008 50.5387 7.45075 48.64C9.24275 46.7413 11.6108 45.5787 14.5548 45.152V39.552C14.9174 39.4667 15.3334 39.4027 15.8028 39.36C16.2934 39.3173 16.7628 39.296 17.2108 39.296C18.2561 39.296 19.1308 39.3813 19.8348 39.552V45.184C21.6268 45.376 23.2801 45.728 24.7948 46.24C26.3308 46.752 27.6961 47.3173 28.8908 47.936C28.8908 48.8747 28.6668 49.824 28.2188 50.784C27.7921 51.744 27.2374 52.5333 26.5548 53.152C25.0614 52.3413 23.5254 51.7013 21.9468 51.232C20.3894 50.7627 18.8534 50.528 17.3388 50.528C15.5894 50.528 14.1921 50.912 13.1468 51.68C12.1014 52.448 11.5788 53.4827 11.5788 54.784C11.5788 56.0213 11.9841 56.96 12.7948 57.6C13.6054 58.2187 14.6721 58.7627 15.9948 59.232L21.8828 61.376C24.3788 62.272 26.3628 63.5733 27.8348 65.28C29.3068 66.9867 30.0428 69.1947 30.0428 71.904C30.0428 74.6347 29.0721 76.9387 27.1308 78.816C25.1894 80.672 22.5441 81.7813 19.1948 82.144V87.744C18.5548 87.9147 17.6801 88 16.5708 88Z" fill="#FBC443"/>
</svg>
