<svg width="2641" height="494" viewBox="0 0 2641 494" fill="none" xmlns="http://www.w3.org/2000/svg">
<path d="M1351.88 390.148C1377.91 390.148 1395.43 371.141 1395.43 348.633C1395.43 346.632 1394.42 308.117 1351.88 308.117C1312.34 308.117 1308.84 343.131 1308.84 348.633C1309.34 371.141 1325.35 390.148 1351.88 390.148Z" fill="#FF5F5F"/>
<path d="M1104.63 279.606C1105.63 196.575 1151.68 191.073 1172.2 190.072C1208.73 188.072 1231.76 206.579 1231.76 285.609V392.65H1305.33C1294.32 381.145 1287.81 366.139 1287.81 348.633C1287.81 324.123 1300.83 304.116 1321.35 293.612V246.094C1321.35 138.553 1268.29 100.038 1191.72 103.039C1159.18 104.54 1118.64 119.545 1101.12 177.568L1081.6 174.566C1088.61 162.562 1103.13 140.553 1103.13 117.045V9.00342H1014.04V392.65H1103.13L1104.63 279.606Z" fill="#FF5F5F"/>
<path d="M2423.58 278.603C2424.58 195.571 2470.63 190.069 2491.15 189.069C2527.69 187.068 2550.71 205.575 2550.71 284.605V391.646H2640.3C2640.3 367.137 2640.3 388.644 2640.3 292.608V245.09C2640.3 137.549 2587.25 99.0346 2510.67 102.036C2478.14 103.536 2437.6 118.542 2420.08 176.564L2400.56 173.563C2407.56 161.558 2422.08 139.55 2422.08 116.041V8H2332.99V391.646H2422.08L2423.58 278.603Z" fill="#FF5F5F"/>
<path d="M987.508 273.604H891.911C888.908 295.112 871.89 319.121 833.351 319.121C793.31 319.121 773.29 291.611 773.29 250.095C773.29 208.579 795.312 182.069 833.351 182.069C871.89 182.069 888.908 206.078 891.911 227.587H987.508C984.005 147.056 913.933 101.539 833.351 101.539C743.759 101.539 678.192 152.558 678.192 250.095C678.192 348.132 743.759 399.652 833.351 399.652C914.434 399.652 984.505 354.135 987.508 273.604Z" fill="#FF5F5F"/>
<path d="M652.166 292.611H555.567C550.062 314.62 529.541 326.624 499.51 326.624C464.474 326.624 443.453 306.617 439.949 271.103H651.666C651.666 271.103 675.19 101.539 495.006 101.539C405.915 101.539 342.35 157.06 342.35 249.595C342.35 339.129 402.411 399.652 499.51 399.652C588.101 399.652 644.158 356.136 652.166 292.611ZM498.009 172.065C532.043 172.065 554.066 189.572 557.069 221.584H440.45C442.452 189.572 464.474 172.065 498.009 172.065Z" fill="#FF5F5F"/>
<path d="M89.0911 294.112C89.0911 392.149 167.171 399.652 199.204 399.652C261.267 399.652 313.32 364.139 313.32 290.611V247.594H225.23V288.11C225.23 313.119 218.223 324.123 200.205 324.123C186.19 324.123 176.681 314.12 176.681 292.111V194.574H286.292V111.542H140.143V100.038C194.198 100.038 209.714 62.0236 209.714 38.5146H118.121C118.121 58.5223 112.115 111.542 51.5527 111.542V194.574H89.0911V294.112Z" fill="#FF5F5F"/>
<path d="M2070.22 289.106C2070.22 387.143 2148.3 394.646 2180.33 394.646C2242.39 394.646 2294.45 359.133 2294.45 285.605V242.588H2206.36V283.104C2206.36 308.113 2199.35 319.118 2181.33 319.118C2167.32 319.118 2157.81 309.114 2157.81 287.105V189.568H2267.42V106.537H2121.27V95.0322C2175.33 95.0322 2190.84 57.0177 2190.84 33.5088H2099.25C2099.25 53.5164 2093.24 106.537 2032.68 106.537V189.568H2070.22V289.106Z" fill="#FF5F5F"/>
<path d="M1995.58 219.678C1995.58 138.329 1924.97 103.536 1846.46 103.536C1768.44 103.536 1705.73 141.76 1704.25 215.757H1794.61C1795.6 190.765 1815.35 176.063 1849.91 176.063C1882.5 176.063 1899.29 187.824 1899.29 217.228L1812.88 226.539C1725.98 235.36 1697.34 264.273 1697.34 313.278C1697.34 342.191 1712.64 393.646 1802.02 393.646C1881.52 393.646 1911.14 356.402 1922.01 310.827H1942.74C1938.79 319.158 1937.31 324.059 1933.36 332.39C1926.45 346.111 1927.44 363.263 1937.81 374.534C1946.2 383.845 1959.04 387.275 1971.38 387.275H2027.67V306.417H1995.08V219.678H1995.58ZM1827.2 320.138C1808.93 320.138 1791.65 315.728 1791.65 297.106C1791.65 281.424 1805.47 278.974 1830.66 275.054L1899.29 265.253C1899.29 299.066 1866.7 320.138 1827.2 320.138Z" fill="#FF5F5F"/>
<path fill-rule="evenodd" clip-rule="evenodd" d="M1446.01 167.255C1451.36 143.467 1478.14 98.5337 1538.4 98.5337C1610.71 98.5337 1672.31 165.934 1672.31 246.55C1672.31 327.166 1610.71 393.245 1538.4 393.245C1482.16 393.245 1456.72 362.848 1450.02 336.417V493.684H1367V489.719C1369.68 484.433 1369.68 473.861 1369.68 463.288V405.004C1395.64 397.019 1412 374.04 1412 347.774C1412 345.239 1410.9 302.283 1369.68 291.46V103.82H1447.35C1450.02 113.071 1450.02 123.643 1450.02 127.608V127.608C1450.02 143.467 1439.31 160.648 1435.29 165.934L1446.01 167.255ZM1440.65 246.55C1440.65 282.232 1467.43 311.307 1514.3 311.307C1559.83 311.307 1583.93 287.519 1583.93 246.55C1583.93 205.581 1559.83 180.471 1514.3 180.471C1467.43 180.471 1440.65 210.867 1440.65 246.55Z" fill="#FF5F5F"/>
<path d="M50.5517 50.5191V48.0182C50.5517 44.0166 46.0471 43.0162 41.5425 42.5161V41.5157C46.5476 41.5157 55.0563 40.5153 55.0563 30.0113C55.0563 21.5081 48.0491 17.0063 39.0399 17.0063H21.0215V59.5225H28.5292V44.5168H35.5363C40.5414 44.5168 43.044 47.518 43.044 50.0189V52.0197C43.044 58.5222 48.5496 60.0227 55.0563 60.0227V54.0204C55.0563 53.5203 50.5517 54.0204 50.5517 50.5191ZM38.0389 38.5145H28.5292V23.5088H38.0389C43.5445 23.5088 47.0481 26.51 47.0481 31.0117C47.0481 36.0136 43.5445 38.5145 38.0389 38.5145Z" fill="#FF5F5F"/>
<path d="M38.0388 0C17.0174 0 0 17.0065 0 38.0145C0 59.0225 17.0174 76.029 38.0388 76.029C59.0603 76.029 76.0777 59.0225 76.0777 38.0145C76.0777 17.5067 59.0603 0 38.0388 0ZM38.0388 70.5268C20.521 70.5268 6.00612 56.0213 6.00612 38.5147C6.00612 21.008 20.521 6.50249 38.0388 6.50249C55.5567 6.50249 70.0716 21.008 70.0716 38.5147C70.0716 56.0213 55.5567 70.5268 38.0388 70.5268Z" fill="#FF5F5F"/>
</svg>
