<?xml version="1.0" encoding="utf-8"?>
<!-- Generator: Adobe Illustrator 26.1.0, SVG Export Plug-In . SVG Version: 6.00 Build 0)  -->
<svg version="1.1" xmlns="http://www.w3.org/2000/svg" xmlns:xlink="http://www.w3.org/1999/xlink" x="0px" y="0px"
	 viewBox="0 0 517.7 293.7" style="enable-background:new 0 0 517.7 293.7;" xml:space="preserve">
<style type="text/css">
	.st0{fill:#FF5F5F;}
	.st1{fill:#FCC443;}
	.st2{fill:#F4F3EC;}
	.st3{fill:#18304C;}
	.st4{fill:none;stroke:#F4F3EC;stroke-width:1.3182;stroke-miterlimit:10;}
	.st5{fill:none;stroke:#FCC443;stroke-width:1.3182;stroke-miterlimit:10;}
	.st6{display:none;}
	.st7{display:inline;fill:none;stroke:#00FF00;stroke-width:1.103;stroke-miterlimit:10;}
	.st8{display:inline;fill:none;stroke:#00FF00;stroke-width:1.4796;stroke-miterlimit:10;}
	.st9{display:inline;fill:none;stroke:#00FF00;stroke-width:0.8605;stroke-miterlimit:10;}
	.st10{display:inline;fill:none;stroke:#00FF00;stroke-width:0.6995;stroke-miterlimit:10;}
	.st11{display:inline;fill:none;stroke:#00FF00;stroke-width:0.9638;stroke-miterlimit:10;}
	.st12{display:inline;fill:none;stroke:#00FF00;stroke-width:1.1881;stroke-miterlimit:10;}
	.st13{display:inline;fill:none;stroke:#00FF00;stroke-width:0.887;stroke-miterlimit:10;}
</style>
<g id="BGs">
</g>
<g id="Assinaturas">
	<g>
		<g>
			<g>
				<g>
					<path class="st2" d="M424.9,203.7c-6.9,0-11.1-3.9-11.8-11h41.8v-5c0-17.8-11.3-28.5-30.9-28.5c-17.6,0-30.1,11-30.1,29.2
						c0,17.7,11.9,29.7,31,29.7c17.5,0,28.6-8.6,30.1-21.2h-19C434.9,201.4,430.8,203.7,424.9,203.7z M424.6,173.1
						c6.7,0,11.1,3.5,11.7,9.7h-23.1C413.6,176.6,418,173.1,424.6,173.1z"/>
					<path class="st2" d="M297.1,159.9c-10,0.1-16.2,6.2-19.3,15.3l-3.2-0.7c3.4-5.6,4.6-10.3,3.9-12.5h-17.6v55.5h17.6v-22.7
						c0-12.7,7.7-18,15.2-17.3c7.5,0.7,10,5.4,10,20v20.1h17.6v-30C321.3,168.1,310.4,159.8,297.1,159.9z"/>
					<path class="st2" d="M363.6,159.9c-10,0.1-16.2,6.2-19.3,15.3l-3.2-0.7c3.4-5.6,4.6-10.3,3.9-12.5h-17.6v55.5H345v-22.7
						c0-12.7,7.7-18,15.2-17.3c7.5,0.7,10,5.4,10,20v20.1h17.6v-30C387.8,168.1,376.9,159.8,363.6,159.9z"/>
					<path class="st2" d="M249.3,183.2c0-16.4-14.1-23.4-29.8-23.4c-15.6,0-28.1,7.7-28.5,22.6h18c0.2-5,4.1-8,11.1-8
						c6.5,0,9.9,2.4,9.9,8.3l-17.3,1.9c-17.4,1.8-23.1,7.6-23.1,17.5c0,5.8,3,16.6,21,16.6c15.9,0,21.8-8,23.9-17.1h4.2
						c-0.7,1.7-1.4,3.4-2.2,5c-1.3,2.8-0.9,6.1,1.2,8.4c1.7,1.9,4.3,2.6,6.7,2.6h11.3v-16.9h-6.5V183.2z M215.6,203.5
						c-3.7,0-7.1-0.9-7.1-4.6c0-3.1,2.8-3.7,7.8-4.5l13.7-2C230,199.2,223.5,203.5,215.6,203.5z"/>
					<path class="st2" d="M441.4,131.5c-0.3,0.3-0.6,0.7-0.9,1.1c0,0-0.1,0.1-0.1,0.1c-0.6,0.9-0.9,1.8-1.1,2.8c0,0,0,0,0,0
						c-0.1,0.5-0.1,1-0.1,1.6c0,4.5,3.2,8.2,8.5,8.2c5.1,0,8.6-3.8,8.6-8.2c0-4.3-3.5-8-8.6-8C445,129.1,442.9,130,441.4,131.5
						C441.4,131.5,441.4,131.5,441.4,131.5z"/>
					<path class="st2" d="M398.8,123.5c0.2-16.4,9.3-17.5,13.3-17.7c7.2-0.4,11.8,3.3,11.8,18.9v21.1h14.5c-2.1-2.2-3.4-5.3-3.4-8.7
						c0-4.8,2.6-8.8,6.6-10.8v-9.4c0-21.3-10.5-29.4-25.6-28.7c-6.4,0.3-14.4,3.7-17.9,15.1l-3.7-0.6c1.4-2.3,4.3-6.8,4.3-11.4V70
						h-17.6v75.8h17.6L398.8,123.5z"/>
					<path class="st2" d="M375.7,122.4h-18.9c-0.5,4.3-3.9,9-11.6,9c-8,0-11.9-5.4-11.9-13.7c0-8.2,4.4-13.5,11.9-13.5
						c7.6,0,11,4.7,11.6,9h18.9c-0.7-15.9-14.5-24.9-30.5-24.9c-17.7,0-30.7,10.1-30.7,29.4c0,19.4,13,29.6,30.7,29.6
						C361.2,147.3,375,138.3,375.7,122.4z"/>
					<path class="st2" d="M309.4,126.1h-19c-1.1,4.4-5.2,6.7-11.1,6.7c-6.9,0-11.1-3.9-11.8-11h41.8v-5c0-17.8-11.3-28.5-30.9-28.5
						c-17.6,0-30.1,11-30.1,29.2c0,17.7,11.9,29.7,31,29.7C296.7,147.3,307.8,138.6,309.4,126.1z M278.9,102.2
						c6.7,0,11.1,3.5,11.7,9.7h-23.1C267.9,105.7,272.3,102.2,278.9,102.2z"/>
					<path class="st2" d="M198.1,126.4c0,7.1,2.1,12.5,6.1,16c1.8,1.6,4,2.8,6.6,3.6c2.6,0.8,5.7,1.3,9.2,1.3c3,0,5.8-0.4,8.3-1.2
						c5.7-1.7,9.9-5.3,12.2-10.4c1.3-2.9,2.1-6.2,2.1-10v-8.5h-17.4v8c0,2.3-0.3,4-1,5.1c-0.8,1.4-2.1,2-4,2c-2.8,0-4.7-2-4.7-6.4
						v-7.1v-12.2h21.6V90.3h-28.8V88c10.7,0,13.8-7.5,13.8-12.1h-18.2c0,4-1.8,14.4-12.1,14.4h-1.1v16.4h7.4V126.4z"/>
				</g>
			</g>
			<g>
				<path class="st2" d="M115.3,143.8c0.4,1.2,0.7,2.4,1.6,3.3c2.1,2.4,5.8,2.1,7.8,1.7c2.6-0.5,5.1-1.7,8.1-3.9
					c1.1-0.8,2.2-1.7,3.3-2.7c-8.1,0.7-15.1,0.6-21.6-0.5C114.9,142.4,115.1,143.2,115.3,143.8z"/>
				<path class="st2" d="M106.5,108.9c-0.8-0.1-1.8-0.1-2.7-0.1c-0.3,3.2-0.7,6.2-1.3,8.8c-0.7,3-1.2,5.2-1.6,7
					c1.1,0.6,2.3,1,3.6,1.1c1.6,0.1,3.2-0.5,4.5-1.3c2-1.3,3.2-3.3,3.6-5.7c0.3-2.1,0.3-4.4-0.3-6.4
					C111.4,109.9,108.9,109.2,106.5,108.9z"/>
				<path class="st2" d="M142,105.8c-4.8-1.1-14.3,0.1-15.1,6c0,0-0.1,0.2-0.1,0.2c0,0,0,0,0,0c0,0,0,0,0,0
					c-0.2,0.5-0.2,1.1-0.1,1.7c0.1,1.8,0.8,3.6,1.6,5.3c1.8,4.1,6.1,5.4,10.3,4.7c2.8-0.7,5.5-2.1,7.1-4.6c1.8-2.7,2-6.5,1.2-9.6
					C146.1,107.5,144.1,106.3,142,105.8z"/>
				<path class="st2" d="M120.8,72c-10.1,1.8-16,10.7-16.2,19.6c0,1.3-0.1,3.6-0.2,6.9c3.5,0,8.1,0.1,8.2,1.1c0.1,0.9-0.3,1.6-0.5,2
					c-0.1,0.2-0.3,0.3-0.5,0.3c0,0-0.1,0-0.1,0c-2.9-0.4-5.8-0.3-7.2-0.1c0,0.9-0.1,2.4-0.2,3.3c0.9,0,1.9,0.1,2.8,0.2
					c3.2,0.3,6.5,1.7,8.1,4.7c1.4-0.5,2.8-0.9,4.3-1c1.3-0.1,2.6,0.1,3.9,0.3c2.9-7,13.3-8.2,20-6.3c1.9,0.6,3.9,1.8,5.1,3.4
					l3.3-0.6c0,0,0.2,0,0.2,0c0,0,3.4-0.2,6.9-0.4c-1.9-3.9-4.6-9.8-5.9-16.2C149.3,71.5,136.4,69.2,120.8,72z M146.8,99.6
					c0,0.1-0.1,0.2-0.2,0.3c-0.1,0.1-0.3,0.1-0.4,0.1c-0.2,0-0.4-0.1-0.5-0.2c-0.1,0-0.1-0.1-0.2-0.1c-0.3-0.1-0.5-0.2-0.8-0.3
					c-0.3-0.1-0.7-0.2-1-0.3c-0.4-0.1-0.8-0.2-1.2-0.3c-0.5-0.1-1-0.2-1.5-0.3c-0.6-0.1-1.1-0.2-1.7-0.3c-4-0.6-11.3,1.5-12.8,1.9
					c-0.1,0-0.2,0-0.3,0c-0.3,0-0.6-0.1-0.8-0.4c-0.5-0.7-0.6-1.4-0.5-2c0.1-0.4,0.3-0.7,0.7-0.8c5.9-1.9,8.8-2.4,12.6-2.3
					c0.3,0,0.6,0.1,1,0.1c0.4,0.1,0.9,0.2,1.3,0.4c0.4,0.1,0.8,0.3,1.3,0.5c0.4,0.2,0.8,0.4,1.2,0.6c0.4,0.2,0.7,0.4,1.1,0.7
					c0.3,0.2,0.6,0.4,0.9,0.7c0.3,0.2,0.5,0.4,0.7,0.6c0.1,0,0.1,0.1,0.2,0.1c0.2,0.2,0.4,0.3,0.6,0.6
					C146.7,99,146.9,99.3,146.8,99.6z"/>
				<path class="st2" d="M182.9,152.8c-0.4-2.7-1.1-5.4-1.7-8.1c-0.7-3.5-1.3-7-1.9-10.6c-0.3-1.7-0.5-3.5-0.8-5.2
					c-0.1-0.9-0.2-1.7-0.3-2.6c-0.1-0.7-0.4-1.8-0.3-2.5c0,0,0-0.1,0-0.1c1.5-11.3,1.1-18.3-1.4-21.4c-0.1-0.2-0.3-0.3-0.4-0.5
					c0.1-6.9-0.6-10.7-3.4-22.7c-2.8-11.9-13.9-17.4-17.2-18.8c-2.3-8.9-13.1-10.5-24.4-10.8c-11.7-0.3-26.6,6.2-33.2,25.5
					c-3,8.6-6.3,15.8-10.3,22c-1.5,2.3-3.2,4.6-4.8,6.9c-3.4,4.8-7,9.7-9.4,15.2c-2.9,6.5-4.9,13.5-6.9,20.1c-0.4,1.5-0.9,3-1.3,4.5
					c-0.3,0.9-0.5,1.7-0.8,2.6c-1,3.6-2.1,7.2-3.9,10.4c-1.1,2-2.5,3.9-3.8,5.7c-2.1,2.9-4.3,5.9-5.7,9.5
					c-2.5,6.3-3.5,12.8-2.9,18.8c0.6,6.1,3.1,12.4,7.5,18.9c1.3,1.9,2.7,3.7,4.2,5.5c1.5,1.8,3.1,3.6,4.9,5.1c0.5,0.4,1,0.9,1.5,1.3
					c0.8,0.6,1.5,1.3,2.3,1.8c0.8,0.6,1.7,1.2,2.6,1.8c0-0.4-0.1-0.9-0.1-1.2c-0.1-1.2-0.3-2.4-0.7-3.5c-0.4-1.2-0.9-2.3-1.3-3.5
					c6.7,14.4,24.3,18.3,25.1,18.5l5.5,1.2l-4-4c-4.4-4.4-6.2-10.6-6.9-16.2c0.5,1.7,0.9,3.2,1.4,4.4c6,14.7,16.3,17.1,16.7,17.2
					l2.5,0.5c0,2.9,0,5.8,0,8.7c0,0.2,0,0.5,0,0.7c0-0.2,0.4-0.4,0.5-0.5c0.3-0.2,0.5-0.5,0.8-0.7c0.8-0.8,1.6-1.6,2.3-2.5
					c0.6-0.9,1.2-1.9,1.7-2.9c0.5-0.9,0.9-1.9,1.3-2.9c0.5-1.2,1-2.5,1.4-3.8c0.5-1.6,1-3.1,1.4-4.7c0.5-1.9,0.9-3.8,1.2-5.8
					c0.4-2.3,0.7-4.5,0.9-6.8c0.3-2.6,0.5-5.3,0.6-8c0.1-2.8,0.1-5.5,0.1-8.3c-0.1-5.1,0.7-9.9,2.3-14.9c2.7-8.1,3.5-15.9,3.6-19.1
					c4.3-0.1,6.3-2.6,10.3-4.9c3.1-1.7,6.5-3,9.5-4.7c-5.2,9.6-11.2,21.4-13.5,27.1c-7.5,18.4-7.6,45.5-7.6,46.7l0,3.7l2.8-2.5
					c0.3-0.2,4.8-4.3,9-12.5c-4,11.6-9.8,20.2-9.9,20.3l-1.7,2.5l3,0.1c11.9,0.5,19.5-5.6,23.2-18.6c3.2,8.7,11.6,11.7,11.7,11.8
					l1.8,0.6c0.2,1.2,0.2,1.9,0.2,2l0.1,4.1l2.8-3.1c0.5-0.5,0.9-1,1.3-1.5l0.3-0.4c6.8-8.9,4-16,1-23.5c-1-2.5-2-5.1-2.8-8
					c-2.1-8.3,4.1-22.4,7.5-29.3c0,0.1,0,0.1,0.1,0.2c0.1-0.3,0.3-0.6,0.4-0.9c0.7-1.6,1.7-3,2.5-4.6c1-2.2,2.1-4.2,2.7-6.5
					c0.9-3.3,1.3-6.8,1.1-10.2C183.1,154.2,183,153.5,182.9,152.8z M142.4,141c-4.7,4.7-10.4,9.7-17.2,10.8c-3.8,0.7-8.3,0-10.8-3.4
					c0,0-0.4-0.6-0.4-0.6c-1.4-2.2-1.1-5.3-3.3-6.9c-0.3-0.2-0.6-0.4-0.7-0.8c-0.1-0.3-0.1-0.6,0-0.7c0.2-0.5,0.9-0.8,1.5-0.7
					c0,0,0.2,0,0.3,0.1c6.6,1.2,13.3,1.1,19.9,0.6c3.1-0.3,6.2-0.7,9.2-1.2C142.5,137.9,143.5,139.8,142.4,141z M179.9,159.9
					c-0.2,4-1.9,7.8-4.1,11.1c-2.3,3.4-3.9,7.3-5.4,11.1c-2.4,5.8-4.6,12-5.1,18.3c-0.2,2.2-0.1,4.5,0.4,6.7c0.8,3,1.8,5.7,2.9,8.4
					c1.1,2.7,2.2,5.5,2.7,8.4c0.3,1.6,0.3,3.3,0,4.9c-0.3,1.7-0.9,3.8-2.1,5.1c-0.4,0.5-0.5,0.3-0.9-0.1c-0.3-0.3-0.6-0.6-0.9-0.9
					c-0.6-0.7-1.1-1.4-1.6-2.2c-0.9-1.5-1.7-3.1-2.4-4.8c-0.7-1.6-1.4-3.1-2.1-4.7c-0.3-0.8-0.7-1.5-1-2.3c-0.2-0.6-0.4-1.2-0.9-1.5
					c0.1,1.4,0.1,2.8,0.2,4.2c0,0.7,0.2,4.9,1.3,8.7c-0.1-0.2-0.7-0.6-0.9-0.8c-0.3-0.3-0.7-0.6-1-0.9c-0.7-0.7-1.3-1.5-1.8-2.3
					c-1.3-1.9-2.1-4.1-2.5-6.4c-0.3-1.7-0.1-3.3-0.1-5c0.1-2.4-0.1-4.8-0.5-7.2c0-0.2-0.1-0.7-0.2-1c-1.3,5.3-3.1,10.5-4.6,15.7
					c-2.9,10.8-8.3,16.2-17,16.9c3.1-5.1,9.5-17,11.8-30.5c0.6-3.5,1.2-6.8,1.5-10.3c-2.2,3.9-4.3,7.8-6.5,11.7
					c-2,3.6-3.8,7.2-5.8,10.8c-0.6,1.1-1.3,2.2-2.1,3.3c-0.3,0.5-1.8,1.9-1.8,2.4c0.4-8.6,1.8-27.5,7.2-40.9
					c3.2-7.8,13.6-27.5,18.9-36.7c0.2-0.2,0.3-0.3,0.3-0.3c5.9-9.4,7.1-14,6.3-19.2c-0.8-5.2,0.4-6.9,0.7-9.4
					c0.3-2.5-1-8.8-2.8-12.3c-0.1-0.2-0.2-0.3-0.3-0.5l-7.5,1.2l-2.6,0.7c0.6,3.3,0.3,7.9-1.9,11.1c-1.9,3-5.2,4.8-8.5,5.6
					c-2.4,0.6-5,0.4-7.4-0.4c-2.7-0.8-5-2.8-6.4-5.3c-1.4-2.3-2.8-5.6-2.9-8.2c-1.8-1.1-4.2-1.1-6,0.2c-0.3,0.2-0.5,0.4-0.7,0.6
					c0.1,0.9,0.2,1.8,0.2,2.6c0,0,0.1,0,0.1,0c0.3,3.1-0.8,6.2-1.8,9c-0.7,1.8-2.1,7.1,0.8,7.2c1.3-0.1,2.7-0.8,4.3-0.9
					c1.7-0.1,3.4,0.6,5,0.6c1.5,0,3-1.5,3.4-2.9l1.7,0.3c-0.3,2.2-2,4.2-4.2,4.8c-1.2,0.2-2.6,0-3.7-0.1c-0.7-0.1-1.3-0.2-1.9-0.1
					c-1.4,0.2-2.7,1-4.4,1.1c-3.5,0.2-5.2-3.3-4.7-6.3c0.1-0.7,0.2-1.3,0.4-1.9c-0.2,0.1-0.4,0.2-0.6,0.3c-3.1,1.9-6.8,1.9-10.1,0.6
					c-0.2,1.6-0.2,2.9,0,4.2c0.6,3.2,2.3,7.3,3.7,9.4c1.4,2.1,8.3,11.9,10,14.5c2.3,3.5,3.7,9.8,10.1,11.3
					c-0.1,2.8-0.8,10.4-3.5,18.4c-1.8,5.3-2.6,10.6-2.5,16c0.4,19.4-3,31-5.6,36.8c-0.4-6-1.6-15.4-5.2-22.5l-4.8-9.5l2.5,11.2
					c0.5,3.5,3.1,12.7,2.9,17.8c-2.9-1.3-10.9-5.8-14.8-15.3c-1.7-4.2-3.3-12.3-4.2-18l-1.5-9.6l-1.8,9.6c-0.2,0.8-3.2,17.3,4,29.1
					c-0.8-0.3-1.7-0.7-2.5-1.1c-5.2-2.4-10-5.8-13.3-10.5c-3.2-4.6-5.3-9.8-6.4-15.3c-1.4-6.7-1.3-13.9-1.4-20.7
					c-1,3.9-2.3,7.7-2.8,11.7c-0.9,7.1,1,15.6,2.9,22.4c-2.6-2.7-6-6.6-7.9-9.4c-4.1-6-6.4-11.8-6.9-17.3
					c-0.5-5.5,0.4-11.4,2.7-17.3c1.3-3.2,3.2-5.9,5.3-8.8c1.4-1.9,2.8-3.8,4-6c2-3.5,3.1-7.4,4.2-11.1c0.2-0.9,0.5-1.7,0.8-2.5
					c0.5-1.5,0.9-3,1.4-4.5c2-6.6,4-13.4,6.8-19.8c2.3-5.2,5.7-10,9-14.6c1.6-2.3,3.3-4.6,4.9-7c4.1-6.4,7.6-13.8,10.7-22.7
					c6-17.6,19.4-23.5,29.9-23.2c10.3,0.3,20,1.6,21.4,9l0.2,0.9l0.9,0.3c0.1,0,13.1,4.8,15.9,16.7c2.9,12.4,3.5,15.6,3.3,22.6
					l0,0.9l0.1,0.1c-1.5,0.2-4.6,1.6-4.5,9.2c0.1,5.1-2.5,14.2-0.5,18.9c0,0,4.5,0.8,6.7-7c-0.1,0.3,0.1,0.8,0.1,1.1
					c0.1,0.4,0.1,0.9,0.2,1.3c0.1,0.9,0.2,1.7,0.3,2.6c0.7,4.9,1.5,9.8,2.5,14.6c0.9,4.6,1.9,9.1,2.1,13.8
					C179.9,158.8,179.9,159.3,179.9,159.9z"/>
			</g>
		</g>
		<g>
			<path class="st2" d="M79.7,82.3v-0.5c0-0.8-0.9-1-1.8-1.1v-0.2c1,0,2.7-0.2,2.7-2.3c0-1.7-1.4-2.6-3.2-2.6h-3.6v8.5h1.5v-3h1.4
				c1,0,1.5,0.6,1.5,1.1v0.4c0,1.3,1.1,1.6,2.4,1.6V83C80.6,83,79.7,83,79.7,82.3z M77.2,79.9h-1.9v-3h1.9c1.1,0,1.8,0.6,1.8,1.5
				C79,79.4,78.3,79.9,77.2,79.9z"/>
			<path class="st2" d="M77.2,72.3c-4.2,0-7.6,3.4-7.6,7.6c0,4.2,3.4,7.6,7.6,7.6s7.6-3.4,7.6-7.6C84.8,75.7,81.4,72.3,77.2,72.3z
				 M77.2,86.3c-3.5,0-6.4-2.9-6.4-6.4s2.9-6.4,6.4-6.4s6.4,2.9,6.4,6.4S80.7,86.3,77.2,86.3z"/>
		</g>
	</g>
</g>
<g id="Grid" class="st6">
</g>
</svg>
