<svg width="410" height="197" viewBox="0 0 410 197" fill="none" xmlns="http://www.w3.org/2000/svg">
<path d="M400.801 97.2C405.901 97.2 409.401 93.5 409.401 89C409.401 88.6 409.201 81 400.801 81C393.001 81 392.301 88 392.301 89C392.301 93.4 395.501 97.2 400.801 97.2Z" fill="#FF5F5F"/>
<path d="M351.9 75.2999C352.1 58.8999 361.2 57.7999 365.2 57.5999C372.4 57.1999 376.9 60.8999 376.9 76.4999V97.5999H391.4C389.3 95.3999 388 92.2999 388 88.8999C388 84.0999 390.6 80.0999 394.6 78.0999V68.6999C394.6 47.4999 384.1 39.7999 369 40.3999C362.6 40.6999 354.6 43.6999 351.1 55.0999L347.4 54.4999C348.8 52.1999 351.7 47.6999 351.7 43.1999V21.8999H334V97.6999H351.6L351.9 75.2999Z" fill="#FF5F5F"/>
<path d="M328.899 74.2001H309.999C309.499 78.5001 306.099 83.2001 298.499 83.2001C290.499 83.2001 286.599 77.8001 286.599 69.5001C286.599 61.3001 290.999 56.0001 298.499 56.0001C306.099 56.0001 309.499 60.7001 309.999 65.0001H328.899C328.199 49.1001 314.399 40.1001 298.399 40.1001C280.699 40.1001 267.699 50.2001 267.699 69.4001C267.699 88.8001 280.699 99.0001 298.399 99.0001C314.299 99.1001 328.199 90.1001 328.899 74.2001Z" fill="#FF5F5F"/>
<path d="M262.6 77.9001H243.6C242.5 82.3001 238.4 84.6001 232.5 84.6001C225.6 84.6001 221.4 80.7001 220.7 73.6001H262.5C262.5 73.6001 267.2 40.1001 231.6 40.1001C214 40.1001 201.5 51.1001 201.5 69.3001C201.5 87.0001 213.4 99.0001 232.5 99.0001C249.9 99.1001 261 90.4001 262.6 77.9001ZM232.1 54.1001C238.8 54.1001 243.2 57.6001 243.7 63.8001H220.6C221.1 57.5001 225.5 54.1001 232.1 54.1001Z" fill="#FF5F5F"/>
<path d="M151.399 78.1997C151.399 97.5997 166.799 99.0997 173.199 99.0997C185.499 99.0997 195.799 92.0997 195.799 77.4997V68.9997H178.399V76.9997C178.399 81.8997 177.099 84.1997 173.499 84.1997C170.699 84.1997 168.799 82.1997 168.799 77.7997V58.4997H190.399V42.0997H161.599V39.7997C172.299 39.7997 175.399 32.2997 175.399 27.6997H157.299C157.299 31.6997 156.099 42.0997 144.199 42.0997V58.4997H151.599V78.1997H151.399Z" fill="#FF5F5F"/>
<path d="M377.6 111.4C360 111.4 347.5 122.4 347.5 140.6C347.5 158.3 359.4 170.3 378.5 170.3C396 170.3 407.1 161.7 408.6 149.1H389.6C388.5 153.5 384.4 155.8 378.5 155.8C371.6 155.8 367.4 151.9 366.7 144.8H408.5C408.5 144.9 413.1 111.4 377.6 111.4ZM366.7 135C367.1 128.7 371.5 125.3 378.1 125.3C384.8 125.3 389.2 128.8 389.7 135H366.7Z" fill="#FF5F5F"/>
<path d="M250.8 112C240.8 112.1 234.6 118.2 231.5 127.3L228.3 126.6C231.7 121 232.9 116.3 232.2 114.2H214.6V169.2H232.2V147C232.2 134.3 239.9 129 247.4 129.7C254.9 130.4 257.4 135.1 257.4 149.7V169.3H275V139.8C274.9 120.2 264 111.9 250.8 112Z" fill="#FF5F5F"/>
<path d="M317.2 112C307.2 112.1 301 118.2 297.9 127.3L294.7 126.6C298.1 121 299.3 116.3 298.6 114.2H281V169.2H298.6V147C298.6 134.3 306.3 129 313.8 129.7C321.3 130.4 323.8 135.1 323.8 149.7V169.3H341.4V139.8C341.4 120.2 330.5 111.9 317.2 112Z" fill="#FF5F5F"/>
<path d="M202.6 135.3C202.6 118.9 188.5 111.9 172.8 111.9C157.2 111.9 144.6 119.6 144.3 134.6H162.4C162.6 129.6 166.6 126.6 173.5 126.6C180 126.6 183.4 129 183.4 134.9L166.1 136.8C148.7 138.6 143 144.4 143 154.3C143 160.1 146 170.5 164 170.5C179.9 170.5 185.8 163 188 153.8H192.2C191.5 155.5 191.1 156.5 190.3 158.2C188.9 161 189.1 164.4 191.2 166.7C192.9 168.6 195.5 169.3 197.9 169.3H209.2V153H202.7V135.3H202.6ZM168.9 155.6C165.2 155.6 161.8 154.7 161.8 151C161.8 147.9 164.6 147.3 169.7 146.5L183.4 144.5C183.3 151.4 176.8 155.6 168.9 155.6Z" fill="#FF5F5F"/>
<path d="M78.6003 51.4002C80.4003 50.9002 87.6003 48.8002 91.7003 49.5002C93.1003 49.7002 94.0003 49.9002 94.9003 50.1002C96.0003 50.3002 96.6003 50.5002 97.2003 50.7002C97.5003 50.8002 97.7003 50.9002 98.0003 51.0002C98.2003 51.1002 98.5003 51.2002 98.7003 51.2002C98.8003 51.2002 98.9003 51.2002 99.0003 51.2002C99.2003 51.1002 99.0003 50.8002 99.0003 50.6002C98.8003 50.3002 98.5003 50.1002 98.3003 49.9002C97.8003 49.5002 97.4003 49.1002 96.6003 48.6002C95.9003 48.1002 95.2003 47.7002 94.3003 47.3002C93.4003 46.9002 92.6003 46.6002 91.7003 46.4002C91.4003 46.3002 91.1003 46.3002 90.7003 46.3002C86.7003 46.1002 83.8003 46.7002 77.9003 48.6002C77.6003 48.7002 77.4003 49.0002 77.3003 49.3002C77.2003 49.8002 77.2003 50.5002 77.7003 51.1002C78.0003 51.4002 78.3003 51.5002 78.6003 51.4002Z" fill="#FF5F5F"/>
<path d="M93.4002 89.5999C92.1002 89.7999 90.9002 89.9999 89.6002 90.1999C87.8002 90.3999 85.7002 90.6999 83.9002 90.7999C77.1002 91.2999 70.2002 91.2999 63.5002 90.0999C63.5002 90.0999 62.4002 89.6999 62.1002 90.4999C62.0002 90.7999 62.2002 91.3999 62.5002 91.4999L62.7002 91.5999C65.4002 93.4999 64.8002 97.4999 67.1002 99.7999C69.6002 102.7 73.7002 103.1 77.2002 102.5C80.7002 102 83.8002 100.3 86.7002 98.1999C89.5002 96.1999 92.1002 93.9999 94.4002 91.4999C95.2002 90.7999 94.5002 89.3999 93.4002 89.5999ZM85.4002 96.4999C82.8002 98.3999 80.0002 99.9999 76.8002 100.6C73.2002 101.4 68.6002 100.6 67.2002 96.7999C66.7002 95.2999 66.2002 93.4999 65.3002 92.0999C73.4002 93.4999 81.7002 93.2999 89.8002 92.4999C89.9002 92.4999 90.1002 92.4999 90.2002 92.3999C88.8002 93.7999 87.1002 95.1999 85.4002 96.4999Z" fill="#FF5F5F"/>
<path d="M92.8008 85C92.6008 85 92.5008 85.3 92.7008 85.4C93.4008 85.9 94.0008 86.4 94.6008 86.9C95.7008 87.8 96.5008 88.7 96.7008 90.1C96.8008 90.8 96.7008 91.5 96.6008 92.4C96.6008 92.5 96.7008 92.6 96.8008 92.5C100.401 89.4 96.9008 84.7 92.8008 85Z" fill="#FF5F5F"/>
<path d="M94.0997 63.0002C92.4997 60.6002 89.0996 60.4002 86.4996 61.3002C84.6996 62.0002 83.5996 63.9002 83.6996 65.8002L84.9996 65.7002C85.0996 63.2002 87.3997 62.3002 89.5997 62.7002C91.0997 62.8002 92.4996 64.0002 92.4996 65.5002L94.2997 65.4002C94.6997 65.4002 95.0996 65.3002 95.3996 65.1002C96.3996 64.5002 98.2997 63.4002 98.0997 63.5002C96.3997 64.0002 94.5997 63.3002 94.0997 63.0002Z" fill="#FF5F5F"/>
<path d="M129.9 124.3C132 120.1 133.9 116 134.2 111.1C134.6 104.7 133.1 98.5001 132 92.3001C131 87.0001 130.2 81.6001 129.5 76.2001C129.4 75.3001 129.3 74.4001 129.2 73.5001C129.6 70.6001 129.8 67.9001 129.9 65.5001C130.9 65.4001 132 64.9001 132.5 63.9001C132.8 63.2001 132.7 62.4001 132.3 61.8001C131.9 61.2001 131.2 61.0001 130.6 60.9001C130.5 60.9001 130.5 60.9001 130.4 61.0001C130.4 61.1001 130.4 61.2001 130.5 61.2001C131.3 61.6001 132 62.5001 131.4 63.3001C131.1 63.7001 130.5 64.0001 129.9 64.1001C130 59.0001 129.4 55.5001 128 53.8001C127.8 53.5001 127.6 53.4001 127.4 53.2001C127.7 45.6001 127 42.2001 124 29.4001C120.9 16.1001 106.7 11.1001 106.7 11.1001C105.1 2.40005 94.4999 0.800056 83.2999 0.500056C72.0999 0.200056 57.5999 6.40006 51.0999 25.3001C48.3999 33.3001 44.9999 41.0001 40.3999 48.1001C35.5999 55.5001 29.5999 62.2001 26.0999 70.4001C22.5999 78.4001 20.2999 86.9001 17.6999 95.3001C16.2999 99.9001 15.1999 104.7 12.7999 108.9C9.79989 114.2 5.4999 118.4 3.1999 124.2C0.899895 130 -0.300106 136.4 0.299894 142.6C0.999894 149.3 3.89989 155.6 7.69989 161.1C10.0999 164.7 12.8999 168 15.9999 171C16.9999 172 19.3999 173.5 19.9999 174.7C13.5999 160.1 15.7999 147.2 16.1999 145.3C15.9999 146.4 15.7999 151 20.0999 165.4C25.1999 182.3 45.7999 186.8 45.7999 186.8C34.5999 175.6 38.6999 154.1 38.6999 154.1C39.5999 159.8 41.1999 168.4 42.9999 172.9C48.7999 187.2 58.7999 189.4 58.7999 189.4C59.7999 184 57.3999 168.7 57.3999 168.7C62.9999 179.9 62.7999 197 62.7999 197C63.5999 196.2 72.2999 183.9 71.6999 153.3C71.5999 147.9 72.3999 142.7 74.0999 137.5C76.9999 128.6 77.4999 122.9 77.4999 120.3C78.8999 120.5 80.3999 120.5 81.8999 120.2C85.2999 119.5 87.7999 117.2 90.7999 115.7C92.1999 115 93.5999 114.4 95.0999 113.8C97.0999 113 99.0999 112.2 100.9 111.1C96.4999 118.1 91.1999 127.5 87.2999 137C79.6999 155.6 79.6999 183.9 79.6999 183.9C79.6999 183.9 89.5999 175.2 93.5999 156.9C97.6999 138.6 102.7 136 102.7 136C102.7 136 97.9999 141.5 94.6999 160.9C91.5999 178.8 81.1999 194.1 81.1999 194.1C94.9999 194.6 102.5 185.9 103.3 175.6C104.1 165.3 105.8 163.6 105.8 163.6C101.7 181.9 117.2 187.2 117.2 187.2C114.1 184.3 113.7 174.1 113.7 174.1C119.9 180.2 120.3 191.4 120.3 191.4C120.3 190.6 122.9 188.1 123.4 187.2C124.2 185.9 124.8 184.4 125.2 182.9C125.8 180.5 126.3 177.6 126.1 175.1C125.5 166.9 123.2 159 123.1 150.6C123.1 143.5 124.1 136.2 126.9 129.6C128.2 127.8 129.1 126 129.9 124.3ZM55.8999 53.0001C57.2999 52.9001 60.2999 52.7001 63.3999 53.1001C63.4999 53.1001 63.6999 53.1001 63.7999 52.9001C63.9999 52.5001 64.3999 51.8001 64.2999 51.0001C64.1999 50.2001 58.6999 50.1001 56.0999 50.1001C56.2999 46.2001 56.2999 43.0001 56.2999 41.5001C56.4999 32.4001 62.4999 23.4001 72.7999 21.5001C88.6999 18.6001 101.9 21.0001 105.6 39.0001C106.9 45.6001 109.7 51.7001 111.7 55.7001C108.1 55.9001 104.6 56.2001 104.6 56.2001H104.5L101.8 56.7001C100.4 54.6001 97.9999 53.3001 95.5999 52.7001C93.1999 52.1001 90.6999 52.0001 88.2999 52.1001C83.0999 52.3001 76.8999 54.6001 74.9999 59.7001C73.5999 59.4001 72.1999 59.3001 70.6999 59.5001C69.6999 59.6001 68.6999 59.9001 67.6999 60.2001C66.1999 56.8001 62.4999 55.3001 58.9999 54.9001C57.9999 54.8001 56.8999 54.7001 55.8999 54.7001C55.7999 54.2001 55.8999 53.6001 55.8999 53.0001ZM99.2999 70.3001C97.4999 73.1001 94.4999 74.8001 91.2999 75.6001C88.9999 76.1001 86.5999 75.9001 84.3999 75.1001C81.9999 74.2001 80.0999 72.5001 78.9999 70.2001C78.0999 68.3001 77.2999 66.3001 76.9999 64.2001C76.8999 63.4001 76.8999 62.5001 77.1999 61.8001C78.3999 54.6001 89.4999 53.4001 95.3999 54.9001C97.4999 55.5001 99.5999 56.7001 100.6 58.8001C100.7 59.0001 100.8 59.3001 100.9 59.5001C101.7 63.1001 101.4 67.2001 99.2999 70.3001ZM54.0999 68.1001C54.2999 67.4001 54.3999 66.6001 54.5999 65.7001C55.1999 64.6001 56.3999 64.0001 57.7999 64.2001C58.6999 64.3001 59.5999 64.5001 60.1999 65.2001C60.7999 65.8001 60.9999 66.7001 60.9999 67.5001L62.8999 67.6001C62.8999 65.3001 61.1999 63.1001 58.7999 62.8001C57.3999 62.6001 55.9999 62.8001 54.8999 63.5001C55.1999 61.6001 55.3999 59.7001 55.4999 57.7001C56.4999 57.7001 57.4999 57.8001 58.4999 57.9001C61.3999 58.2001 64.3999 59.2001 65.4999 62.1001C66.2999 64.5001 66.1999 67.2001 65.8999 69.6001C65.4999 71.7001 64.6999 73.6001 63.1999 75.0001C61.4999 76.7001 59.0999 77.7001 56.6999 77.8001C55.1999 77.8001 53.5999 77.3001 52.1999 76.7001C52.5999 74.5001 53.2999 71.9001 54.0999 68.1001ZM115.7 70.9001C115.4 73.5001 114.2 75.2001 115 80.5001C115.8 85.8001 114.6 90.4001 108.6 100C108.6 100 108.6 100.1 108.5 100.2C108.4 100.2 108.4 100.1 108.4 100.1C103.6 108.3 97.6999 109.6 89.8999 113.7C85.2999 116.4 83.2999 119.1 77.5999 118.5C69.9999 117.6 68.3999 110.5 65.9999 106.7C64.2999 104.1 57.1999 94.1 55.7999 91.9C54.3999 89.7 52.5999 85.6001 51.9999 82.3001C51.7999 81.1001 51.7999 80.0001 51.8999 78.7001C55.3999 80.0001 59.3999 80.0001 62.6999 78.0001C63.0999 77.8001 63.3999 77.6001 63.6999 77.3001C63.4999 77.9001 63.3999 78.4001 63.2999 79.0001C62.7999 81.8001 64.2999 85.2 67.5999 84.9C69.1999 84.8 70.5999 84.0001 71.9999 83.8001C72.6999 83.7001 73.2999 83.8 73.9999 83.9C74.5999 84 75.2999 84.1001 75.9999 84.1001C75.8999 84.2001 75.6999 84.3 75.4999 84.4C75.2999 84.5 75.2999 84.7001 75.3999 84.8001C76.2999 85.2001 76.9999 84.7001 77.4999 84.0001C77.5999 84.0001 77.5999 84.0001 77.6999 84.0001C79.7999 83.4001 81.4999 81.6001 81.7999 79.4001L80.5999 79.2001C80.2999 80.5001 79.1999 81.8001 77.8999 82.3001C77.8999 81.2001 77.0999 79.9001 75.8999 79.8001C75.6999 79.8001 75.5999 80.0001 75.7999 80.1001C76.2999 80.8001 76.4999 81.5 76.4999 82.4C74.9999 82.3 73.3999 81.7001 71.7999 81.8001C70.1999 81.9001 68.7999 82.7001 67.3999 82.8001C63.7999 82.7001 65.2999 77.0001 66.1999 74.9001C66.3999 74.4001 66.5999 74.0001 66.6999 73.5001C67.3999 72.3001 67.7999 71.0001 68.0999 69.7001C68.4999 67.3001 68.6999 64.8001 68.1999 62.4001L68.2999 62.3001C69.9999 61.1001 72.3999 61.0001 74.1999 61.9001C74.0999 64.9001 75.5999 68.3001 77.0999 70.9001C79.7999 76.1001 85.6999 78.0001 91.1999 77.1001C94.8999 76.3001 98.5999 74.3001 100.7 71.0001C103 67.6001 103.4 62.8001 102.6 59.1001L104.7 58.5001L112.3 57.3001C112.4 57.6001 112.6 57.8001 112.7 58.0001C114.7 61.9001 116 68.3001 115.7 70.9001ZM118.9 82.9C117.2 78.2 120.1 69.3001 120.2 64.3001C120.4 55.0001 125.2 55.3001 125.8 55.4001C126 55.4001 126.2 55.5001 126.5 55.6001C127 56.4001 127.8 58.6001 127.7 64.0001C127.2 63.9001 126.8 63.6001 126.6 63.4001C126 62.8001 126.2 61.6001 127.2 61.4001C127.4 61.4001 127.4 61.1001 127.2 61.1001C125.6 60.9001 124.9 63.0001 125.7 64.1001C126.2 64.8001 126.9 65.2001 127.7 65.4001C127.6 67.1001 127.5 69.1001 127.2 71.4001C125 84.2001 118.9 82.9 118.9 82.9Z" fill="#FF5F5F"/>
<path d="M33.6988 34.3001V33.8001C33.6988 33.0001 32.7988 32.8001 31.8988 32.7001V32.5001C32.8988 32.5001 34.5988 32.3001 34.5988 30.2001C34.5988 28.5001 33.1988 27.6001 31.3988 27.6001H27.7988V36.1001H29.2988V33.1001H30.6988C31.6988 33.1001 32.1988 33.7001 32.1988 34.2001V34.6001C32.1988 35.9001 33.2988 36.2001 34.5988 36.2001V35.0001C34.5988 35.0001 33.6988 35.0001 33.6988 34.3001ZM31.1988 31.9001H29.2988V28.9001H31.1988C32.2988 28.9001 32.9988 29.5001 32.9988 30.4001C32.9988 31.4001 32.2988 31.9001 31.1988 31.9001Z" fill="#FF5F5F"/>
<path d="M31.1996 24.3003C26.9996 24.3003 23.5996 27.7003 23.5996 31.9003C23.5996 36.1003 26.9996 39.5003 31.1996 39.5003C35.3996 39.5003 38.7996 36.1003 38.7996 31.9003C38.7996 27.7003 35.3996 24.3003 31.1996 24.3003ZM31.1996 38.3003C27.6996 38.3003 24.7996 35.4003 24.7996 31.9003C24.7996 28.4003 27.6996 25.5003 31.1996 25.5003C34.6996 25.5003 37.5996 28.4003 37.5996 31.9003C37.5996 35.4003 34.6996 38.3003 31.1996 38.3003Z" fill="#FF5F5F"/>
</svg>
