<svg width="501" height="126" viewBox="0 0 501 126" fill="none" xmlns="http://www.w3.org/2000/svg">
<path d="M276.29 38.424C279.33 38.424 281.762 39.56 283.586 41.832C285.442 44.072 286.37 47.16 286.37 51.096V98.712C286.37 102.04 285.73 104.376 284.45 105.72C283.202 107.064 281.106 107.736 278.162 107.736H272.306L271.634 107.064V39.096L272.306 38.424H276.29ZM314.498 62.472C314.498 67.976 313.618 72.632 311.858 76.44C310.13 80.216 307.81 83.08 304.898 85.032C301.986 86.984 298.77 87.96 295.25 87.96C291.922 87.96 288.962 87.272 286.37 85.896C283.81 84.488 281.474 83.144 279.362 81.864L281.762 71.256C283.65 72.76 285.538 74.056 287.426 75.144C289.346 76.232 291.074 76.776 292.61 76.776C294.178 76.776 295.426 76.2 296.354 75.048C297.314 73.864 298.018 72.2 298.466 70.056C298.914 67.88 299.138 65.32 299.138 62.376C299.138 59.4 298.882 56.984 298.37 55.128C297.89 53.24 297.202 51.864 296.306 51C295.442 50.136 294.45 49.704 293.33 49.704C292.338 49.704 291.154 50.008 289.778 50.616C288.434 51.224 287.106 52.408 285.794 54.168C284.514 55.896 283.442 58.456 282.578 61.848L279.218 53.352C279.538 50.76 280.53 48.264 282.194 45.864C283.858 43.464 285.986 41.496 288.578 39.96C291.202 38.424 294.082 37.656 297.218 37.656C301.122 37.656 304.354 38.712 306.914 40.824C309.474 42.936 311.378 45.864 312.626 49.608C313.874 53.32 314.498 57.608 314.498 62.472ZM320.458 73.896C320.458 70.024 321.354 66.872 323.146 64.44C324.938 61.976 327.274 60.152 330.154 58.968C333.066 57.784 336.17 57.192 339.466 57.192C340.906 57.192 342.714 57.224 344.89 57.288C347.098 57.352 349.082 57.56 350.842 57.912V67.416C349.466 67.096 347.802 66.92 345.85 66.888C343.93 66.824 342.33 66.792 341.05 66.792C338.906 66.792 337.37 67.368 336.442 68.52C335.514 69.64 335.05 71.096 335.05 72.888C335.05 74.168 335.45 75.24 336.25 76.104C337.05 76.936 338.122 77.352 339.466 77.352C341.386 77.352 343.338 76.664 345.322 75.288C347.306 73.912 348.986 72.024 350.362 69.624L352.474 79.128C351.226 80.6 349.802 82.056 348.202 83.496C346.602 84.936 344.73 86.12 342.586 87.048C340.442 87.976 337.93 88.44 335.05 88.44C331.754 88.44 329.018 87.704 326.842 86.232C324.698 84.76 323.098 82.904 322.042 80.664C320.986 78.424 320.458 76.168 320.458 73.896ZM363.994 80.088C363.738 81.4 363.146 82.824 362.218 84.36C361.29 85.896 360.362 87.032 359.434 87.768C356.618 87.704 354.282 87.064 352.426 85.848C350.602 84.632 349.194 83.144 348.202 81.384C347.242 79.592 346.618 77.848 346.33 76.152V55.608C346.33 53.592 345.818 52.072 344.794 51.048C343.802 50.024 342.218 49.512 340.042 49.512C337.994 49.512 335.754 49.848 333.322 50.52C330.89 51.16 328.41 51.848 325.882 52.584C324.826 51.368 323.994 49.8 323.386 47.88C322.81 45.928 322.442 44.024 322.282 42.168C324.426 41.272 326.81 40.52 329.434 39.912C332.058 39.272 334.666 38.792 337.258 38.472C339.882 38.12 342.218 37.944 344.266 37.944C347.082 37.944 349.786 38.472 352.378 39.528C354.97 40.552 357.098 42.264 358.762 44.664C360.458 47.032 361.306 50.248 361.306 54.312V73.848C361.306 75.224 361.514 76.44 361.93 77.496C362.378 78.552 363.066 79.416 363.994 80.088ZM373.775 33.672C373.775 30.344 374.383 28.008 375.599 26.664C376.847 25.32 378.943 24.648 381.887 24.648H387.743L388.415 25.32V71.544C388.415 72.984 388.735 74.104 389.375 74.904C390.047 75.672 391.151 76.056 392.687 76.056H398.063C398.863 78.392 399.263 80.76 399.263 83.16C399.263 83.704 399.231 84.28 399.167 84.888C399.135 85.496 399.039 86.04 398.879 86.52C397.119 86.744 395.087 86.952 392.783 87.144C390.479 87.368 388.367 87.48 386.447 87.48C382.095 87.48 378.895 86.408 376.847 84.264C374.799 82.088 373.775 78.712 373.775 74.136V33.672ZM399.791 39C400.239 40.696 400.463 42.44 400.463 44.232C400.463 46.184 400.239 47.992 399.791 49.656L381.887 49.368L366.239 49.656C365.823 47.96 365.615 46.152 365.615 44.232C365.615 42.504 365.823 40.76 366.239 39L382.319 39.24L399.791 39ZM422.353 87C420.241 87.384 417.761 87.576 414.913 87.576C412.385 87.576 409.969 87.384 407.665 87V17.016L408.337 16.344H414.193C417.137 16.344 419.233 17.016 420.481 18.36C421.729 19.704 422.353 22.04 422.353 25.368V87ZM448.609 75C448.609 76.856 448.785 78.616 449.137 80.28C449.489 81.912 450.097 83.336 450.961 84.552C449.873 85.448 448.513 86.216 446.881 86.856C445.249 87.464 443.489 87.768 441.601 87.768C438.593 87.768 436.497 86.968 435.313 85.368C434.161 83.768 433.585 81.464 433.585 78.456V58.056C433.585 55.88 433.297 54.28 432.721 53.256C432.145 52.2 431.057 51.672 429.457 51.672C428.497 51.672 427.361 51.944 426.049 52.488C424.737 53.032 423.425 53.912 422.113 55.128C420.833 56.312 419.713 57.912 418.753 59.928V46.824C420.993 44.616 423.425 42.632 426.049 40.872C428.705 39.112 431.745 38.232 435.169 38.232C438.081 38.232 440.529 38.968 442.513 40.44C444.529 41.88 446.049 43.88 447.073 46.44C448.097 49 448.609 51.96 448.609 55.32V75Z" fill="#FBC443"/>
<path d="M94.4468 33.672C94.4468 30.312 95.0548 27.976 96.2708 26.664C97.5188 25.32 99.6148 24.648 102.559 24.648H108.415L109.087 25.32V39.144L120.463 39C120.911 40.696 121.135 42.44 121.135 44.232C121.135 46.216 120.911 48.024 120.463 49.656L109.087 49.464V71.544C109.087 74.552 110.511 76.056 113.359 76.056H118.735C119.535 78.36 119.935 80.728 119.935 83.16C119.935 83.704 119.903 84.28 119.839 84.888C119.775 85.496 119.679 86.04 119.551 86.52C117.791 86.776 115.759 87 113.455 87.192C111.151 87.384 109.039 87.48 107.119 87.48C102.767 87.48 99.5668 86.408 97.5188 84.264C95.4708 82.088 94.4468 78.712 94.4468 74.136V49.512L86.9108 49.656C86.4947 48.024 86.2867 46.216 86.2867 44.232C86.2867 42.44 86.4947 40.696 86.9108 39L94.4468 39.096V33.672ZM165.121 82.968C162.689 84.728 159.777 86.072 156.385 87C153.025 87.96 149.633 88.44 146.209 88.44C142.017 88.44 138.529 87.736 135.745 86.328C132.993 84.92 130.817 83.032 129.217 80.664C127.617 78.296 126.481 75.624 125.809 72.648C125.169 69.64 124.849 66.552 124.849 63.384C124.849 58.552 125.569 54.2 127.009 50.328C128.481 46.424 130.801 43.336 133.969 41.064C137.137 38.792 141.265 37.656 146.353 37.656C150.545 37.656 154.129 38.552 157.105 40.344C160.113 42.136 162.401 44.568 163.969 47.64C165.569 50.712 166.369 54.168 166.369 58.008C166.369 60.152 166.273 61.944 166.081 63.384C165.889 64.792 165.553 66.296 165.073 67.896H140.017C140.241 70.456 140.929 72.616 142.081 74.376C143.265 76.104 145.457 76.968 148.657 76.968C150.833 76.968 152.961 76.696 155.041 76.152C157.153 75.576 159.169 74.888 161.089 74.088C162.209 75.208 163.105 76.6 163.777 78.264C164.449 79.928 164.897 81.496 165.121 82.968ZM146.257 48.312C144.177 48.312 142.641 49.08 141.649 50.616C140.689 52.12 140.129 54.44 139.969 57.576H152.545V56.472C152.545 54.264 152.065 52.36 151.105 50.76C150.145 49.128 148.529 48.312 146.257 48.312ZM199.258 60.36C199.29 56.648 198.986 53.8 198.346 51.816C197.738 49.8 196.186 48.792 193.69 48.792C191.45 48.792 189.898 49.928 189.034 52.2C188.202 54.472 187.786 58.12 187.786 63.144C187.786 68.232 188.49 71.768 189.898 73.752C191.306 75.736 193.37 76.728 196.09 76.728C197.978 76.728 199.834 76.328 201.658 75.528C203.482 74.696 205.146 73.752 206.65 72.696C207.834 73.368 208.986 74.568 210.106 76.296C211.226 77.992 211.962 79.576 212.314 81.048C210.17 83.288 207.402 85.08 204.01 86.424C200.65 87.768 197.194 88.44 193.642 88.44C186.73 88.44 181.466 86.152 177.85 81.576C174.266 76.968 172.474 70.824 172.474 63.144C172.474 58.504 173.082 54.568 174.298 51.336C175.546 48.072 177.21 45.448 179.29 43.464C181.37 41.448 183.674 39.976 186.202 39.048C188.762 38.12 191.354 37.656 193.978 37.656C197.562 37.656 200.762 38.328 203.578 39.672C206.394 41.016 208.618 42.888 210.25 45.288C211.882 47.656 212.698 50.424 212.698 53.592C212.698 56.12 211.994 57.976 210.586 59.16C209.21 60.312 207.466 60.888 205.354 60.888C204.074 60.888 202.97 60.856 202.042 60.792C201.114 60.696 200.186 60.552 199.258 60.36ZM235.556 87C233.444 87.384 230.964 87.576 228.116 87.576C225.556 87.576 223.14 87.384 220.868 87V17.016L221.54 16.344H227.396C230.34 16.344 232.436 17.016 233.684 18.36C234.932 19.704 235.556 22.04 235.556 25.368V43.512C237.348 42.04 239.284 40.792 241.364 39.768C243.476 38.744 245.812 38.232 248.372 38.232C252.756 38.232 256.084 39.832 258.356 43.032C260.66 46.2 261.812 50.296 261.812 55.32V75C261.812 76.888 261.988 78.648 262.34 80.28C262.692 81.88 263.3 83.304 264.164 84.552C263.076 85.48 261.716 86.248 260.084 86.856C258.452 87.464 256.692 87.768 254.804 87.768C251.796 87.768 249.7 86.968 248.516 85.368C247.364 83.768 246.788 81.464 246.788 78.456V58.056C246.788 55.88 246.5 54.28 245.924 53.256C245.348 52.2 244.26 51.672 242.66 51.672C241.7 51.672 240.58 51.928 239.3 52.44C238.02 52.952 236.772 53.784 235.556 54.936V87Z" fill="#FBC443"/>
<path d="M41.9338 55.7C44.8938 55.18 47.3338 53.66 49.2538 51.14C51.1738 48.58 52.1338 45.74 52.1338 42.62V23.36C52.1338 17.08 53.9538 12.18 57.5938 8.66C61.2338 5.1 65.8538 2.87999 71.4538 2L79.4938 0.739994C80.3338 1.65999 81.0538 2.89999 81.6538 4.46C82.2938 5.98 82.7338 7.52 82.9738 9.08C83.2538 10.6 83.2738 11.84 83.0338 12.8L75.7738 15.26C74.5338 15.66 73.4138 16.56 72.4138 17.96C71.4138 19.36 70.9138 21.2 70.9138 23.48V42.38C70.9138 46.46 69.9338 50.28 67.9738 53.84C66.0538 57.36 63.4938 59.82 60.2938 61.22V62.18C63.4938 63.54 66.0538 66 67.9738 69.56C69.9338 73.08 70.9138 76.9 70.9138 81.02V99.86C70.9138 102.18 71.4138 104.02 72.4138 105.38C73.4138 106.78 74.5338 107.68 75.7738 108.08L83.0338 110.54C83.2738 111.46 83.2538 112.7 82.9738 114.26C82.7338 115.82 82.2938 117.38 81.6538 118.94C81.0538 120.5 80.3338 121.74 79.4938 122.66L71.4538 121.34C65.8538 120.46 61.2338 118.24 57.5938 114.68C53.9538 111.16 52.1338 106.26 52.1338 99.98V80.78C52.1338 77.66 51.1738 74.82 49.2538 72.26C47.3338 69.7 44.8938 68.16 41.9338 67.64C41.3738 66.16 41.0938 64.18 41.0938 61.7C41.0938 59.18 41.3738 57.18 41.9338 55.7Z" fill="#FBC443"/>
<path d="M498.074 55.7C495.114 55.18 492.674 53.66 490.754 51.14C488.874 48.58 487.934 45.74 487.934 42.62V23.36C487.934 17.08 486.094 12.18 482.414 8.66C478.774 5.1 474.154 2.87999 468.554 2L460.514 0.739994C459.674 1.65999 458.954 2.89999 458.354 4.46C457.754 5.98 457.314 7.52 457.034 9.08C456.794 10.6 456.794 11.84 457.034 12.8L464.234 15.26C465.474 15.66 466.594 16.56 467.594 17.96C468.594 19.36 469.094 21.2 469.094 23.48V42.38C469.094 46.46 470.054 50.28 471.974 53.84C473.934 57.36 476.514 59.82 479.714 61.22V62.18C476.514 63.54 473.934 66 471.974 69.56C470.054 73.08 469.094 76.9 469.094 81.02V99.86C469.094 102.18 468.594 104.02 467.594 105.38C466.594 106.78 465.474 107.68 464.234 108.08L457.034 110.54C456.794 111.46 456.794 112.7 457.034 114.26C457.314 115.82 457.754 117.38 458.354 118.94C458.954 120.5 459.674 121.74 460.514 122.66L468.554 121.34C474.154 120.46 478.774 118.24 482.414 114.68C486.094 111.16 487.934 106.26 487.934 99.98V80.78C487.934 77.66 488.874 74.82 490.754 72.26C492.674 69.7 495.114 68.16 498.074 67.64C498.634 66.16 498.914 64.18 498.914 61.7C498.914 59.18 498.634 57.18 498.074 55.7Z" fill="#FBC443"/>
<path d="M16.4108 75.688C14.5334 75.688 12.6668 75.4853 10.8108 75.08C8.97608 74.6533 7.30142 74.1307 5.78675 73.512C4.29342 72.8933 3.12008 72.296 2.26675 71.72C2.28808 70.888 2.45875 69.9707 2.77875 68.968C3.12008 67.944 3.56808 67.0053 4.12275 66.152C4.67742 65.2773 5.27475 64.648 5.91475 64.264C7.42942 65.2027 9.12542 66.0027 11.0028 66.664C12.9014 67.3253 14.6081 67.6667 16.1228 67.688C17.3388 67.7093 18.2881 67.464 18.9708 66.952C19.6748 66.4187 20.0268 65.6933 20.0268 64.776C20.0268 64.1573 19.8241 63.528 19.4188 62.888C19.0134 62.248 18.1921 61.6933 16.9548 61.224L11.5788 59.24C9.29608 58.3653 7.32275 57.128 5.65875 55.528C3.99475 53.9067 3.16275 51.7627 3.16275 49.096C3.16275 46.7493 3.73875 44.7227 4.89075 43.016C6.04275 41.288 7.57875 39.9547 9.49875 39.016C11.4188 38.056 13.5308 37.576 15.8348 37.576C18.7574 37.576 21.3068 37.8533 23.4828 38.408C25.6801 38.9627 27.6641 39.688 29.4348 40.584C29.4348 41.9493 29.1148 43.3253 28.4748 44.712C27.8348 46.0987 27.0134 47.208 26.0108 48.04C24.3894 47.2507 22.8001 46.6533 21.2428 46.248C19.6854 45.8213 18.2774 45.608 17.0188 45.608C15.8881 45.608 15.0241 45.832 14.4268 46.28C13.8294 46.728 13.5308 47.3253 13.5308 48.072C13.5308 48.8613 13.8081 49.48 14.3628 49.928C14.9174 50.3547 15.7281 50.7813 16.7948 51.208L22.0108 53.192C24.5068 54.152 26.5334 55.56 28.0908 57.416C29.6694 59.272 30.4588 61.6293 30.4588 64.488C30.4588 66.7493 29.8614 68.7227 28.6668 70.408C27.4721 72.0933 25.8188 73.3947 23.7068 74.312C21.5948 75.2293 19.1628 75.688 16.4108 75.688ZM16.0268 81.096C14.5548 81.096 13.3494 80.968 12.4108 80.712V72.296H19.5468V80.712C18.6934 80.968 17.5201 81.096 16.0268 81.096ZM13.0188 41V32.584C13.5094 32.456 14.0641 32.36 14.6828 32.296C15.3228 32.232 15.9628 32.2 16.6028 32.2C17.2214 32.2 17.8508 32.232 18.4908 32.296C19.1521 32.36 19.7174 32.456 20.1868 32.584V41H13.0188Z" fill="#FBC443"/>
</svg>
