<svg width="1396" height="915" viewBox="0 0 1396 915" fill="none" xmlns="http://www.w3.org/2000/svg">
<path d="M1351.88 390.148C1377.91 390.148 1395.42 371.141 1395.42 348.633C1395.42 346.632 1394.42 308.117 1351.88 308.117C1312.34 308.117 1308.84 343.131 1308.84 348.633C1309.34 371.141 1325.35 390.148 1351.88 390.148Z" fill="#FF5F5F"/>
<path d="M1104.63 279.606C1105.63 196.575 1151.68 191.073 1172.2 190.072C1208.73 188.072 1231.76 206.579 1231.76 285.609V392.65H1305.33C1294.32 381.145 1287.81 366.139 1287.81 348.633C1287.81 324.123 1300.83 304.116 1321.35 293.612V246.094C1321.35 138.553 1268.29 100.038 1191.72 103.039C1159.18 104.54 1118.64 119.545 1101.12 177.568L1081.6 174.566C1088.61 162.562 1103.13 140.553 1103.13 117.045V9.00342H1014.04V392.65H1103.13L1104.63 279.606Z" fill="#FF5F5F"/>
<path d="M1107.13 699.767C1108.13 616.735 1154.18 611.233 1174.7 610.233C1211.24 608.232 1234.26 626.739 1234.26 705.769V812.81H1323.85C1323.85 788.3 1323.85 809.808 1323.85 713.772V666.254C1323.85 558.713 1270.8 520.198 1194.22 523.199C1161.69 524.7 1121.15 539.706 1103.63 597.728L1084.11 594.727C1091.12 582.722 1105.63 560.714 1105.63 537.205V429.164H1016.54V812.81H1105.63L1107.13 699.767Z" fill="#FF5F5F"/>
<path d="M987.509 273.604H891.912C888.909 295.112 871.891 319.121 833.352 319.121C793.311 319.121 773.29 291.611 773.29 250.095C773.29 208.579 795.313 182.069 833.352 182.069C871.891 182.069 888.909 206.078 891.912 227.587H987.509C984.006 147.056 913.934 101.539 833.352 101.539C743.76 101.539 678.193 152.558 678.193 250.095C678.193 348.132 743.76 399.652 833.352 399.652C914.435 399.652 984.506 354.135 987.509 273.604Z" fill="#FF5F5F"/>
<path d="M652.166 292.611H555.567C550.062 314.62 529.541 326.624 499.51 326.624C464.474 326.624 443.453 306.617 439.949 271.103H651.666C651.666 271.103 675.19 101.539 495.006 101.539C405.915 101.539 342.35 157.06 342.35 249.595C342.35 339.129 402.411 399.652 499.51 399.652C588.101 399.652 644.158 356.136 652.166 292.611ZM498.009 172.065C532.043 172.065 554.066 189.572 557.069 221.584H440.45C442.452 189.572 464.474 172.065 498.009 172.065Z" fill="#FF5F5F"/>
<path d="M89.0911 294.112C89.0911 392.149 167.171 399.652 199.204 399.652C261.267 399.652 313.32 364.139 313.32 290.611V247.594H225.23V288.11C225.23 313.119 218.223 324.123 200.205 324.123C186.19 324.123 176.681 314.12 176.681 292.111V194.574H286.292V111.542H140.143V100.038C194.198 100.038 209.714 62.0236 209.714 38.5146H118.121C118.121 58.5223 112.115 111.542 51.5527 111.542V194.574H89.0911V294.112Z" fill="#FF5F5F"/>
<path d="M753.769 710.27C753.769 808.307 831.849 815.81 863.881 815.81C925.945 815.81 977.998 780.296 977.998 706.768V663.752H889.908V704.267C889.908 729.277 882.901 740.281 864.882 740.281C850.868 740.281 841.358 730.277 841.358 708.269V610.732H950.97V527.7H804.821V516.196C858.876 516.196 874.392 478.181 874.392 454.672H782.798C782.798 474.68 776.792 527.7 716.23 527.7V610.732H753.769V710.27Z" fill="#FF5F5F"/>
<path d="M679.131 640.841C679.131 559.493 608.52 524.699 530.01 524.699C451.993 524.699 389.283 562.923 387.802 636.921H478.163C479.15 611.928 498.902 597.227 533.466 597.227C566.055 597.227 582.844 608.988 582.844 638.391L496.433 647.702C409.528 656.523 380.889 685.436 380.889 734.441C380.889 763.354 396.196 814.81 485.57 814.81C565.068 814.81 594.694 777.566 605.558 731.991H626.296C622.346 740.322 620.865 745.222 616.915 753.553C610.002 767.275 610.989 784.427 621.359 795.698C629.753 805.009 642.591 808.439 654.935 808.439H711.226V727.58H678.637V640.841H679.131ZM510.752 741.302C492.482 741.302 475.2 736.892 475.2 718.27C475.2 702.588 489.026 700.138 514.209 696.217L582.844 686.416C582.844 720.23 550.254 741.302 510.752 741.302Z" fill="#FF5F5F"/>
<path d="M221.954 519.697C161.695 519.697 134.913 564.631 129.557 588.419L118.844 587.097C122.861 581.811 133.574 564.631 133.574 548.772C133.574 544.807 133.574 534.235 130.896 524.984H53.2289V884.451C53.2289 895.024 53.229 905.597 50.5508 910.883V914.848H133.574V757.58C140.27 784.012 165.712 814.408 221.954 814.408C294.265 814.408 355.863 748.329 355.863 667.713C355.863 587.097 294.265 519.697 221.954 519.697ZM197.85 732.471C150.982 732.471 124.201 703.396 124.201 667.713C124.201 632.031 150.982 601.635 197.85 601.635C243.379 601.635 267.483 626.745 267.483 667.713C267.483 708.682 243.379 732.471 197.85 732.471Z" fill="#FF5F5F"/>
<path d="M50.5517 50.5191V48.0182C50.5517 44.0166 46.0471 43.0162 41.5425 42.5161V41.5157C46.5476 41.5157 55.0563 40.5153 55.0563 30.0113C55.0563 21.5081 48.0491 17.0063 39.0399 17.0063H21.0215V59.5225H28.5292V44.5168H35.5363C40.5414 44.5168 43.044 47.518 43.044 50.0189V52.0197C43.044 58.5222 48.5496 60.0227 55.0563 60.0227V54.0204C55.0563 53.5203 50.5517 54.0204 50.5517 50.5191ZM38.0389 38.5145H28.5292V23.5088H38.0389C43.5445 23.5088 47.0481 26.51 47.0481 31.0117C47.0481 36.0136 43.5445 38.5145 38.0389 38.5145Z" fill="#FF5F5F"/>
<path d="M38.0388 0C17.0174 0 0 17.0065 0 38.0145C0 59.0225 17.0174 76.029 38.0388 76.029C59.0603 76.029 76.0777 59.0225 76.0777 38.0145C76.0777 17.5067 59.0603 0 38.0388 0ZM38.0388 70.5268C20.521 70.5268 6.00612 56.0213 6.00612 38.5147C6.00612 21.008 20.521 6.50249 38.0388 6.50249C55.5567 6.50249 70.0716 21.008 70.0716 38.5147C70.0716 56.0213 55.5567 70.5268 38.0388 70.5268Z" fill="#FF5F5F"/>
</svg>
