<svg width="387" height="120" viewBox="0 0 387 120" fill="none" xmlns="http://www.w3.org/2000/svg">
<path d="M69.0265 39.004C69.0265 36.508 69.4825 34.756 70.3945 33.748C71.3305 32.74 72.9025 32.236 75.1105 32.236H79.5025L80.0065 32.74V67.408C80.0065 68.488 80.2465 69.328 80.7265 69.928C81.2305 70.504 82.0585 70.792 83.2105 70.792H87.2425C87.8425 72.544 88.1425 74.32 88.1425 76.12C88.1425 76.528 88.1185 76.96 88.0705 77.416C88.0465 77.872 87.9745 78.28 87.8545 78.64C86.5345 78.808 85.0105 78.964 83.2825 79.108C81.5545 79.276 79.9705 79.36 78.5305 79.36C75.2665 79.36 72.8665 78.556 71.3305 76.948C69.7945 75.316 69.0265 72.784 69.0265 69.352V39.004ZM88.5385 43C88.8745 44.272 89.0425 45.58 89.0425 46.924C89.0425 48.388 88.8745 49.744 88.5385 50.992L75.1105 50.776L63.3745 50.992C63.0625 49.72 62.9065 48.364 62.9065 46.924C62.9065 45.628 63.0625 44.32 63.3745 43L75.4345 43.18L88.5385 43ZM99.028 64.672V56.932H112.6V56.104C112.6 55 112.444 53.992 112.132 53.08C111.82 52.144 111.316 51.4 110.62 50.848C109.948 50.272 109.036 49.984 107.884 49.984C106.132 49.984 104.896 50.704 104.176 52.144C103.48 53.584 103.132 55.804 103.132 58.804V62.188C103.132 63.82 103.276 65.344 103.564 66.76C103.852 68.176 104.464 69.316 105.4 70.18C106.336 71.044 107.764 71.476 109.684 71.476C111.316 71.476 112.912 71.272 114.472 70.864C116.056 70.432 117.568 69.916 119.008 69.316C119.848 70.132 120.52 71.164 121.024 72.412C121.528 73.66 121.864 74.848 122.032 75.976C120.208 77.296 118.024 78.304 115.48 79C112.96 79.72 110.416 80.08 107.848 80.08C104.68 80.08 102.064 79.564 100 78.532C97.936 77.476 96.304 76.06 95.104 74.284C93.904 72.484 93.052 70.468 92.548 68.236C92.068 65.98 91.828 63.664 91.828 61.288C91.828 57.664 92.368 54.4 93.448 51.496C94.552 48.568 96.292 46.252 98.668 44.548C101.044 42.844 104.14 41.992 107.956 41.992C111.124 41.992 113.824 42.664 116.056 44.008C118.288 45.352 119.992 47.176 121.168 49.48C122.368 51.76 122.968 54.352 122.968 57.256C122.968 58.864 122.884 60.208 122.716 61.288C122.572 62.344 122.332 63.472 121.996 64.672H99.028ZM147.635 59.02C147.659 57.148 147.575 55.576 147.383 54.304C147.215 53.008 146.831 52.024 146.231 51.352C145.631 50.68 144.707 50.344 143.459 50.344C141.779 50.344 140.615 51.196 139.967 52.9C139.343 54.604 139.031 57.34 139.031 61.108C139.031 64.924 139.559 67.576 140.615 69.064C141.671 70.552 143.219 71.296 145.259 71.296C146.675 71.296 148.067 70.996 149.435 70.396C150.803 69.796 152.051 69.088 153.179 68.272C154.091 68.8 154.967 69.7 155.807 70.972C156.647 72.244 157.187 73.432 157.427 74.536C155.819 76.216 153.743 77.56 151.199 78.568C148.679 79.576 146.087 80.08 143.423 80.08C140.831 80.08 138.551 79.636 136.583 78.748C134.615 77.86 132.959 76.588 131.615 74.932C130.271 73.252 129.251 71.248 128.555 68.92C127.883 66.592 127.547 63.988 127.547 61.108C127.547 57.628 128.003 54.676 128.915 52.252C129.851 49.804 131.099 47.836 132.659 46.348C134.219 44.836 135.947 43.732 137.843 43.036C139.763 42.34 141.707 41.992 143.675 41.992C145.691 41.992 147.551 42.28 149.255 42.856C150.983 43.432 152.471 44.248 153.719 45.304C154.991 46.36 155.975 47.62 156.671 49.084C157.367 50.548 157.715 52.168 157.715 53.944C157.715 55.84 157.187 57.232 156.131 58.12C155.099 58.984 153.791 59.416 152.207 59.416C151.247 59.416 150.419 59.38 149.723 59.308C149.027 59.236 148.331 59.14 147.635 59.02ZM174.859 79C173.275 79.288 171.415 79.432 169.279 79.432C167.383 79.432 165.571 79.288 163.843 79V26.512L164.347 26.008H168.739C170.947 26.008 172.519 26.512 173.455 27.52C174.391 28.528 174.859 30.28 174.859 32.776V79ZM194.551 70C194.551 71.392 194.683 72.712 194.947 73.96C195.211 75.184 195.667 76.252 196.315 77.164C195.499 77.836 194.479 78.412 193.255 78.892C192.031 79.348 190.711 79.576 189.295 79.576C187.039 79.576 185.467 78.976 184.579 77.776C183.715 76.576 183.283 74.848 183.283 72.592V57.292C183.283 55.66 183.067 54.46 182.635 53.692C182.203 52.9 181.387 52.504 180.187 52.504C179.467 52.504 178.615 52.708 177.631 53.116C176.647 53.524 175.663 54.184 174.679 55.096C173.719 55.984 172.879 57.184 172.159 58.696V48.868C173.839 47.212 175.663 45.724 177.631 44.404C179.623 43.084 181.903 42.424 184.471 42.424C186.655 42.424 188.491 42.976 189.979 44.08C191.491 45.16 192.631 46.66 193.399 48.58C194.167 50.5 194.551 52.72 194.551 55.24V70ZM206.428 42.568C208.708 42.568 210.532 43.42 211.9 45.124C213.292 46.804 213.988 49.12 213.988 52.072V87.784C213.988 90.28 213.508 92.032 212.548 93.04C211.612 94.048 210.04 94.552 207.832 94.552H203.44L202.936 94.048V43.072L203.44 42.568H206.428ZM235.084 60.604C235.084 64.732 234.424 68.224 233.104 71.08C231.808 73.912 230.068 76.06 227.884 77.524C225.7 78.988 223.288 79.72 220.648 79.72C218.152 79.72 215.932 79.204 213.988 78.172C212.068 77.116 210.316 76.108 208.732 75.148L210.532 67.192C211.948 68.32 213.364 69.292 214.78 70.108C216.22 70.924 217.516 71.332 218.668 71.332C219.844 71.332 220.78 70.9 221.476 70.036C222.196 69.148 222.724 67.9 223.06 66.292C223.396 64.66 223.564 62.74 223.564 60.532C223.564 58.3 223.372 56.488 222.988 55.096C222.628 53.68 222.112 52.648 221.44 52C220.792 51.352 220.048 51.028 219.208 51.028C218.464 51.028 217.576 51.256 216.544 51.712C215.536 52.168 214.54 53.056 213.556 54.376C212.596 55.672 211.792 57.592 211.144 60.136L208.624 53.764C208.864 51.82 209.608 49.948 210.856 48.148C212.104 46.348 213.7 44.872 215.644 43.72C217.612 42.568 219.772 41.992 222.124 41.992C225.052 41.992 227.476 42.784 229.396 44.368C231.316 45.952 232.744 48.148 233.68 50.956C234.616 53.74 235.084 56.956 235.084 60.604ZM239.555 69.172C239.555 66.268 240.227 63.904 241.571 62.08C242.915 60.232 244.667 58.864 246.827 57.976C249.011 57.088 251.339 56.644 253.811 56.644C254.891 56.644 256.247 56.668 257.879 56.716C259.535 56.764 261.023 56.92 262.343 57.184V64.312C261.311 64.072 260.063 63.94 258.599 63.916C257.159 63.868 255.959 63.844 254.999 63.844C253.391 63.844 252.239 64.276 251.543 65.14C250.847 65.98 250.499 67.072 250.499 68.416C250.499 69.376 250.799 70.18 251.399 70.828C251.999 71.452 252.803 71.764 253.811 71.764C255.251 71.764 256.715 71.248 258.203 70.216C259.691 69.184 260.951 67.768 261.983 65.968L263.567 73.096C262.631 74.2 261.563 75.292 260.363 76.372C259.163 77.452 257.759 78.34 256.151 79.036C254.543 79.732 252.659 80.08 250.499 80.08C248.027 80.08 245.975 79.528 244.343 78.424C242.735 77.32 241.535 75.928 240.743 74.248C239.951 72.568 239.555 70.876 239.555 69.172ZM272.207 73.816C272.015 74.8 271.571 75.868 270.875 77.02C270.179 78.172 269.483 79.024 268.787 79.576C266.675 79.528 264.923 79.048 263.531 78.136C262.163 77.224 261.107 76.108 260.363 74.788C259.643 73.444 259.175 72.136 258.959 70.864V55.456C258.959 53.944 258.575 52.804 257.807 52.036C257.063 51.268 255.875 50.884 254.243 50.884C252.707 50.884 251.027 51.136 249.203 51.64C247.379 52.12 245.519 52.636 243.623 53.188C242.831 52.276 242.207 51.1 241.751 49.66C241.319 48.196 241.043 46.768 240.923 45.376C242.531 44.704 244.319 44.14 246.287 43.684C248.255 43.204 250.211 42.844 252.155 42.604C254.123 42.34 255.875 42.208 257.411 42.208C259.523 42.208 261.551 42.604 263.495 43.396C265.439 44.164 267.035 45.448 268.283 47.248C269.555 49.024 270.191 51.436 270.191 54.484V69.136C270.191 70.168 270.347 71.08 270.659 71.872C270.995 72.664 271.511 73.312 272.207 73.816ZM279.542 39.004C279.542 36.508 279.998 34.756 280.91 33.748C281.846 32.74 283.418 32.236 285.626 32.236H290.018L290.522 32.74V67.408C290.522 68.488 290.762 69.328 291.242 69.928C291.746 70.504 292.574 70.792 293.726 70.792H297.758C298.358 72.544 298.658 74.32 298.658 76.12C298.658 76.528 298.634 76.96 298.586 77.416C298.562 77.872 298.49 78.28 298.37 78.64C297.05 78.808 295.526 78.964 293.798 79.108C292.07 79.276 290.486 79.36 289.046 79.36C285.782 79.36 283.382 78.556 281.846 76.948C280.31 75.316 279.542 72.784 279.542 69.352V39.004ZM299.054 43C299.39 44.272 299.558 45.58 299.558 46.924C299.558 48.388 299.39 49.744 299.054 50.992L285.626 50.776L273.89 50.992C273.578 49.72 273.422 48.364 273.422 46.924C273.422 45.628 273.578 44.32 273.89 43L285.95 43.18L299.054 43ZM315.976 79C314.392 79.288 312.532 79.432 310.396 79.432C308.5 79.432 306.688 79.288 304.96 79V26.512L305.464 26.008H309.856C312.064 26.008 313.636 26.512 314.572 27.52C315.508 28.528 315.976 30.28 315.976 32.776V79ZM335.668 70C335.668 71.392 335.8 72.712 336.064 73.96C336.328 75.184 336.784 76.252 337.432 77.164C336.616 77.836 335.596 78.412 334.372 78.892C333.148 79.348 331.828 79.576 330.412 79.576C328.156 79.576 326.584 78.976 325.696 77.776C324.832 76.576 324.4 74.848 324.4 72.592V57.292C324.4 55.66 324.184 54.46 323.752 53.692C323.32 52.9 322.504 52.504 321.304 52.504C320.584 52.504 319.732 52.708 318.748 53.116C317.764 53.524 316.78 54.184 315.796 55.096C314.836 55.984 313.996 57.184 313.276 58.696V48.868C314.956 47.212 316.78 45.724 318.748 44.404C320.74 43.084 323.02 42.424 325.588 42.424C327.772 42.424 329.608 42.976 331.096 44.08C332.608 45.16 333.748 46.66 334.516 48.58C335.284 50.5 335.668 52.72 335.668 55.24V70Z" fill="#2C3344"/>
<path d="M30.3489 50.1625C32.4456 49.7942 34.1739 48.7175 35.5339 46.9325C36.8939 45.1192 37.5739 43.1075 37.5739 40.8975V27.255C37.5739 22.8067 38.8631 19.3358 41.4414 16.8425C44.0197 14.3208 47.2922 12.7483 51.2589 12.125L56.9539 11.2325C57.5489 11.8842 58.0589 12.7625 58.4839 13.8675C58.9372 14.9442 59.2489 16.035 59.4189 17.14C59.6172 18.2167 59.6314 19.095 59.4614 19.775L54.3189 21.5175C53.4406 21.8008 52.6472 22.4383 51.9389 23.43C51.2306 24.4217 50.8764 25.725 50.8764 27.34V40.7275C50.8764 43.6175 50.1822 46.3233 48.7939 48.845C47.4339 51.3383 45.6206 53.0808 43.3539 54.0725V54.7525C45.6206 55.7158 47.4339 57.4583 48.7939 59.98C50.1822 62.4733 50.8764 65.1792 50.8764 68.0975V81.4425C50.8764 83.0858 51.2306 84.3892 51.9389 85.3525C52.6472 86.3442 53.4406 86.9817 54.3189 87.265L59.4614 89.0075C59.6314 89.6592 59.6172 90.5375 59.4189 91.6425C59.2489 92.7475 58.9372 93.8525 58.4839 94.9575C58.0589 96.0625 57.5489 96.9408 56.9539 97.5925L51.2589 96.6575C47.2922 96.0342 44.0197 94.4617 41.4414 91.94C38.8631 89.4467 37.5739 85.9758 37.5739 81.5275V67.9275C37.5739 65.7175 36.8939 63.7058 35.5339 61.8925C34.1739 60.0792 32.4456 58.9883 30.3489 58.62C29.9522 57.5717 29.7539 56.1692 29.7539 54.4125C29.7539 52.6275 29.9522 51.2108 30.3489 50.1625Z" fill="#FBC443"/>
<path d="M378.656 50.1625C376.56 49.7942 374.831 48.7175 373.471 46.9325C372.14 45.1192 371.474 43.1075 371.474 40.8975V27.255C371.474 22.8067 370.171 19.3358 367.564 16.8425C364.986 14.3208 361.713 12.7483 357.746 12.125L352.051 11.2325C351.456 11.8842 350.946 12.7625 350.521 13.8675C350.096 14.9442 349.785 16.035 349.586 17.14C349.416 18.2167 349.416 19.095 349.586 19.775L354.686 21.5175C355.565 21.8008 356.358 22.4383 357.066 23.43C357.775 24.4217 358.129 25.725 358.129 27.34V40.7275C358.129 43.6175 358.809 46.3233 360.169 48.845C361.557 51.3383 363.385 53.0808 365.651 54.0725V54.7525C363.385 55.7158 361.557 57.4583 360.169 59.98C358.809 62.4733 358.129 65.1792 358.129 68.0975V81.4425C358.129 83.0858 357.775 84.3892 357.066 85.3525C356.358 86.3442 355.565 86.9817 354.686 87.265L349.586 89.0075C349.416 89.6592 349.416 90.5375 349.586 91.6425C349.785 92.7475 350.096 93.8525 350.521 94.9575C350.946 96.0625 351.456 96.9408 352.051 97.5925L357.746 96.6575C361.713 96.0342 364.986 94.4617 367.564 91.94C370.171 89.4467 371.474 85.9758 371.474 81.5275V67.9275C371.474 65.7175 372.14 63.7058 373.471 61.8925C374.831 60.0792 376.56 58.9883 378.656 58.62C379.053 57.5717 379.251 56.1692 379.251 54.4125C379.251 52.6275 379.053 51.2108 378.656 50.1625Z" fill="#FBC443"/>
<path d="M12.1831 65.016C10.7751 65.016 9.37506 64.864 7.98306 64.56C6.60706 64.24 5.35106 63.848 4.21506 63.384C3.09506 62.92 2.21506 62.472 1.57506 62.04C1.59106 61.416 1.71906 60.728 1.95906 59.976C2.21506 59.208 2.55106 58.504 2.96706 57.864C3.38306 57.208 3.83106 56.736 4.31106 56.448C5.44706 57.152 6.71906 57.752 8.12706 58.248C9.55106 58.744 10.8311 59 11.9671 59.016C12.8791 59.032 13.5911 58.848 14.1031 58.464C14.6311 58.064 14.8951 57.52 14.8951 56.832C14.8951 56.368 14.7431 55.896 14.4391 55.416C14.1351 54.936 13.5191 54.52 12.5911 54.168L8.55906 52.68C6.84706 52.024 5.36706 51.096 4.11906 49.896C2.87106 48.68 2.24706 47.072 2.24706 45.072C2.24706 43.312 2.67906 41.792 3.54306 40.512C4.40706 39.216 5.55906 38.216 6.99906 37.512C8.43906 36.792 10.0231 36.432 11.7511 36.432C13.9431 36.432 15.8551 36.64 17.4871 37.056C19.1351 37.472 20.6231 38.016 21.9511 38.688C21.9511 39.712 21.7111 40.744 21.2311 41.784C20.7511 42.824 20.1351 43.656 19.3831 44.28C18.1671 43.688 16.9751 43.24 15.8071 42.936C14.6391 42.616 13.5831 42.456 12.6391 42.456C11.7911 42.456 11.1431 42.624 10.6951 42.96C10.2471 43.296 10.0231 43.744 10.0231 44.304C10.0231 44.896 10.2311 45.36 10.6471 45.696C11.0631 46.016 11.6711 46.336 12.4711 46.656L16.3831 48.144C18.2551 48.864 19.7751 49.92 20.9431 51.312C22.1271 52.704 22.7191 54.472 22.7191 56.616C22.7191 58.312 22.2711 59.792 21.3751 61.056C20.4791 62.32 19.2391 63.296 17.6551 63.984C16.0711 64.672 14.2471 65.016 12.1831 65.016ZM11.8951 69.072C10.7911 69.072 9.88706 68.976 9.18306 68.784V62.472H14.5351V68.784C13.8951 68.976 13.0151 69.072 11.8951 69.072ZM9.63906 39V32.688C10.0071 32.592 10.4231 32.52 10.8871 32.472C11.3671 32.424 11.8471 32.4 12.3271 32.4C12.7911 32.4 13.2631 32.424 13.7431 32.472C14.2391 32.52 14.6631 32.592 15.0151 32.688V39H9.63906Z" fill="#FBC443"/>
</svg>
