<?xml version="1.0" encoding="utf-8"?>
<!-- Generator: Adobe Illustrator 27.4.1, SVG Export Plug-In . SVG Version: 6.00 Build 0)  -->
<svg version="1.1" xmlns="http://www.w3.org/2000/svg" xmlns:xlink="http://www.w3.org/1999/xlink" x="0px" y="0px"
	 viewBox="0 0 914.6 300" style="enable-background:new 0 0 914.6 300;" xml:space="preserve">
<style type="text/css">
	.st0{fill:#FF5F5F;}
	.st1{fill:#FCC443;}
	.st2{fill:#18304C;}
	.st3{fill:#F4F3EC;}
	.st4{clip-path:url(#SVGID_00000091007347386343693860000010116175479827817095_);}
	.st5{clip-path:url(#SVGID_00000183220497268294821680000011180265795515582653_);}
	.st6{clip-path:url(#SVGID_00000086677784922689588040000017606627288085514929_);}
	.st7{clip-path:url(#SVGID_00000126281687228330799260000017001944300006211988_);}
	.st8{clip-path:url(#SVGID_00000021824082259439300740000008617786614736821905_);}
	.st9{clip-path:url(#SVGID_00000110465337229755360880000010879720924689800604_);}
	.st10{clip-path:url(#SVGID_00000141456202028442466750000002938824155969605248_);}
	.st11{clip-path:url(#SVGID_00000014601398139209805350000018173508803210573491_);}
	.st12{clip-path:url(#SVGID_00000112622669655520759660000011236461619180808623_);}
	.st13{clip-path:url(#SVGID_00000062192898855230543810000001285814259374216345_);}
	.st14{clip-path:url(#SVGID_00000033350666404231876290000009983817615295049610_);}
	.st15{clip-path:url(#SVGID_00000073715142060917799040000009451560462317732506_);}
</style>
<g id="BGs">
</g>
<g id="Assinaturas">
	<g>
		<g>
			<g>
				<g>
					<defs>
						<path id="SVGID_00000067216482778519769300000018289024154535740575_" d="M145.2,186c-24.6,0-44.7-20.1-44.7-44.7
							s20-44.7,44.7-44.7c14.2,0,27.7,6.9,36.1,18.3c1.8,2.5,1.6,5.9-0.6,8.1l-31.9,31.9c-1.2,1.2-2.8,1.8-4.4,1.8l0,0
							c-1.7,0-3.3-0.7-4.4-1.8l-13.2-13.2c-2.4-2.4-2.4-6.4,0-8.9c2.4-2.4,6.4-2.4,8.9,0l8.8,8.8l23.4-23.3
							c-6-5.8-14.1-9.2-22.5-9.2c-17.7,0-32.2,14.4-32.2,32.2s14.4,32.2,32.2,32.2c17.7,0,32.2-14.4,32.2-32.2
							c0-3.5,2.8-6.3,6.3-6.3c3.5,0,6.3,2.8,6.3,6.3C189.9,165.9,169.9,186,145.2,186z"/>
					</defs>
					<clipPath id="SVGID_00000175322703576662828900000000592379601388511143_">
						<use xlink:href="#SVGID_00000067216482778519769300000018289024154535740575_"  style="overflow:visible;"/>
					</clipPath>
					<g style="clip-path:url(#SVGID_00000175322703576662828900000000592379601388511143_);">
						
							<image style="overflow:visible;" width="172" height="196" xlink:href="1CA76697.jpg"  transform="matrix(0.9577 0 0 0.9577 62.729 63.4682)">
						</image>
					</g>
				</g>
				<g>
					<defs>
						<path id="SVGID_00000008133533372105714510000010483798050032217524_" d="M145.2,246.4c-2.1,0-4-1-5.1-2.7l-22.9-33
							c-27.5-11.3-45.8-38.5-45.8-68.3c0-40.7,33.1-73.9,73.9-73.9c40.7,0,73.9,33.1,73.9,73.9c0,29.8-18.3,57-45.8,68.3l-22.9,33
							C149.2,245.4,147.3,246.4,145.2,246.4z M145.2,81c-33.8,0-61.3,27.5-61.3,61.3c0,25.3,15.9,48.3,39.6,57.3
							c1.2,0.4,2.2,1.2,2.9,2.3l18.8,27.2L164,202c0.7-1,1.7-1.8,2.9-2.3c23.7-9,39.6-32,39.6-57.3C206.6,108.6,179.1,81,145.2,81z"
							/>
					</defs>
					<clipPath id="SVGID_00000036956536475483793330000012549749333657593269_">
						<use xlink:href="#SVGID_00000008133533372105714510000010483798050032217524_"  style="overflow:visible;"/>
					</clipPath>
					<g style="clip-path:url(#SVGID_00000036956536475483793330000012549749333657593269_);">
						
							<image style="overflow:visible;" width="172" height="196" xlink:href="1CA76695.jpg"  transform="matrix(0.9577 0 0 0.9577 62.729 63.4682)">
						</image>
					</g>
				</g>
			</g>
			<g>
				<path class="st2" d="M356.4,173.7c-0.2-6.1,2-12,6.1-16.4l0.3-0.3l-11.4-10.7l-0.3,0.3c-4.2,4.5-9.8,7.1-16,7.3
					c-6.1,0.2-12-2-16.4-6.1l-0.3-0.3l-10.7,11.4l0.3,0.3c6.5,6.1,14.6,9.6,23.4,10.2c0.2,0.1,0.6,0.3,1.2,0.7
					c-9.4,8.4-22.8,12.5-34.7,7.7c-9-3.6-14-11.8-15.3-21.2c-0.3-2.4-0.5-4.8-0.5-7.1c0-20,9.9-29.3,22.8-29.4
					c7.7-0.1,20,4.1,21.8,14H362c-3.6-23.9-25.4-39.9-53.4-39.9c-33,0-54.6,21.3-54.6,55.8c0,32.6,19.4,54,50.6,54
					c14.7,0,30.6-9.6,37-23.3c1.9,6.6,4.8,14.2,11.5,20.4l0.3,0.3L364,190l-0.3-0.3C359.2,185.5,356.6,179.8,356.4,173.7z"/>
				<path class="st2" d="M416.1,96.2h-41.8v105.9h25.8v-29h15.9c33.2,0,47.9-11.1,47.9-38.3C464,107.3,449.3,96.2,416.1,96.2z
					 M417.8,149.2h-17.6V119h17.6c13.2,0,17.5,5,17.5,15.1C435.2,142.3,431,149.2,417.8,149.2z"/>
				<path class="st2" d="M559.6,148.9c-11.7-8.7-28.4-9.9-42.3-12.7c-5.6-1.1-14.3-4.5-12.8-11.9c2.1-10.1,19.6-9,25.9-4.6
					c5.9,4.1,6.7,11.5,6.9,13c0.1,0,28.1,0,28.1,0c0-23-16.4-38.6-49.4-38.6c-27.8,0-43.1,11-43.1,31.5c0,13.4,6.3,23.2,24.7,28.1
					c10.8,2.9,21.7,5,32.3,8.6c4.9,1.6,11.5,3.4,11.5,9.7c0,6.6-5.9,9.3-19.2,9.3c-19.5,0-25.4-5.6-25.4-20.6h-28.2
					c0,27.5,15.6,43.4,53,43.4c34.1,0,47.9-13.2,47.9-33.3C569.5,162.3,566.7,154.2,559.6,148.9z"/>
			</g>
		</g>
		<g>
			<g>
				<path class="st2" d="M656,99.9c5,0,9,2.7,10.1,7l-4.6,1.1c-0.9-2.7-3.2-3.7-5.4-3.7c-3.9,0-6,2.9-6,7.1c0,4.2,2.2,7.2,6.1,7.2
					c3.6,0,5.3-1.3,5.3-3.3h-4.8v-3.8h11.5l0.1,6.4c0,3.2,0.9,4,1.3,4.2v0.2h-4.4c-0.3-0.1-0.7-0.8-0.7-2.8l0-5H664
					c0,3.6-1.1,8.5-8,8.5c-6.8,0-10.7-5.3-10.7-11.6C645.3,105.1,649.2,99.9,656,99.9z"/>
				<path class="st2" d="M670.8,113.5v-12.9h4.7v10.2c0,6.6,0.8,8,3.9,8c3.1,0,4-1.4,4-8v-10.2h4.7v12.9c0,3.4-0.4,9.5-8.7,9.5
					C671.2,123,670.8,116.9,670.8,113.5z"/>
				<path class="st2" d="M691.2,100.6h4.5v21.7h-4.5V100.6z"/>
				<path class="st2" d="M713.3,116.6h-8.5l-1.8,5.8h-5l7.7-21.7h7l7.6,21.7h-5L713.3,116.6z M712,112.5l-2.4-7.7
					c-0.3-1.4-0.4-2.8-0.4-2.8h-0.5c0,0-0.1,1.4-0.4,2.8l-2.4,7.7H712z"/>
				<path class="st2" d="M728.5,100.6h8c7.4,0,11.2,4.8,11.2,10.9s-3.8,10.9-11.2,10.9h-8V100.6z M742.9,111.5
					c0-4.5-2.2-6.7-7.2-6.7h-2.6v13.4h2.6C740.7,118.2,742.9,116,742.9,111.5z"/>
				<path class="st2" d="M754.4,104.8v4.5h9.7v4.1h-9.7v4.8H765v4.2h-15.2v-21.7H765v4.2H754.4z"/>
				<path class="st2" d="M645.9,137.3h8.1c6.5,0,8.7,2.5,8.7,7.2c0,2.8-1,7.5-7.8,7.5h-4.4v7h-4.7V137.3z M653.6,147.9
					c2.7,0,4.4-0.9,4.4-3.4c0-2.1-1.3-3.1-4-3.1h-3.5v6.4H653.6z"/>
				<path class="st2" d="M682.5,155.4v3.9c-3.5,0-7.3-0.6-7.3-4.2v-0.8c0-1.3-0.9-2.7-3.2-2.7h-2.6v7.4h-4.7v-21.7h8.8
					c4.8,0,8.9,1.9,8.9,6.6c0,5.9-5.6,5.9-7.5,5.9v0.5c3.1,0,5.1,0.6,5.1,2.6v1C679.9,155.5,682.5,155.4,682.5,155.4z M677.6,144.7
					c0-2.4-1.7-3.3-4.8-3.3h-3.4v6.5h3.4C675.6,147.9,677.6,147.2,677.6,144.7z"/>
				<path class="st2" d="M695,136.6c6.8,0,11.2,5.1,11.2,11.4c0,6.4-4.5,11.7-11.2,11.7s-11.2-5.3-11.2-11.7
					C683.8,141.7,688.3,136.6,695,136.6z M695,155.2c4,0,6.4-3.2,6.4-7.2c0-4.1-2.4-7-6.4-7s-6.4,2.9-6.4,7
					C688.7,152,691,155.2,695,155.2z"/>
				<path class="st2" d="M719.7,136.6c5.7,0,9.8,3.4,10,8.7l-4.6,0.6c-0.1-2.8-2.4-4.8-5.6-4.8c-3.6,0-6.2,2.5-6.2,7
					c0,4.4,2.5,7.2,6.2,7.2c2.8,0,5.7-1.1,6.2-3.8l4.7,0c-1.3,5-5.3,8.2-10.7,8.2c-6.8,0-11.2-5.1-11.2-11.6
					C708.5,141.6,713,136.6,719.7,136.6z"/>
				<path class="st2" d="M737.8,141.5v4.5h9.7v4.1h-9.7v4.8h10.6v4.2h-15.2v-21.7h15.2v4.2H737.8z"/>
				<path class="st2" d="M762.7,153c0-3.7-12-2.1-12-9.2c0-4.2,3.2-7.1,8.3-7.1c5.3,0,8.6,2.5,8.8,8.1l-4.7-0.6c0-2.6-1.9-3.3-4-3.3
					c-1.7,0-3.4,0.6-3.4,2.4c0,4.2,11.9,2.2,11.9,9.1c0,4.5-3.2,7.4-8.6,7.4c-4.7,0-8.5-3.3-8.5-8.1l4.7,0.3c0,2.7,2,3.6,3.8,3.6
					C761.3,155.5,762.7,154.6,762.7,153z"/>
				<path class="st2" d="M781.5,153c0-3.7-12-2.1-12-9.2c0-4.2,3.2-7.1,8.3-7.1c5.3,0,8.6,2.5,8.8,8.1l-4.7-0.6c0-2.6-1.9-3.3-4-3.3
					c-1.7,0-3.4,0.6-3.4,2.4c0,4.2,11.9,2.2,11.9,9.1c0,4.5-3.2,7.4-8.6,7.4c-4.7,0-8.5-3.3-8.5-8.1l4.7,0.3c0,2.7,2,3.6,3.8,3.6
					C780.1,155.5,781.5,154.6,781.5,153z"/>
				<path class="st2" d="M800.1,136.6c6.8,0,11.2,5.1,11.2,11.4c0,6.4-4.5,11.7-11.2,11.7s-11.2-5.3-11.2-11.7
					C788.9,141.7,793.3,136.6,800.1,136.6z M800.1,155.2c4,0,6.4-3.2,6.4-7.2c0-4.1-2.4-7-6.4-7s-6.4,2.9-6.4,7
					C793.7,152,796.1,155.2,800.1,155.2z"/>
				<path class="st2" d="M825.8,153c0-3.7-12-2.1-12-9.2c0-4.2,3.2-7.1,8.3-7.1c5.3,0,8.6,2.5,8.8,8.1l-4.7-0.6c0-2.6-1.9-3.3-4-3.3
					c-1.7,0-3.4,0.6-3.4,2.4c0,4.2,11.9,2.2,11.9,9.1c0,4.5-3.2,7.4-8.6,7.4c-4.7,0-8.5-3.3-8.5-8.1l4.7,0.3c0,2.7,2,3.6,3.8,3.6
					C824.4,155.5,825.8,154.6,825.8,153z"/>
				<path class="st2" d="M658,189.6c0-3.7-12-2.1-12-9.2c0-4.2,3.2-7.1,8.3-7.1c5.3,0,8.6,2.5,8.8,8.1l-4.7-0.6c0-2.6-1.9-3.3-4-3.3
					c-1.7,0-3.4,0.6-3.4,2.4c0,4.2,11.9,2.2,11.9,9.1c0,4.5-3.2,7.4-8.6,7.4c-4.7,0-8.5-3.3-8.5-8.1l4.7,0.3c0,2.7,2,3.6,3.8,3.6
					C656.5,192.2,658,191.2,658,189.6z"/>
				<path class="st2" d="M670.1,178.2v4.5h9.7v4.1h-9.7v4.8h10.6v4.2h-15.2V174h15.2v4.2H670.1z"/>
				<path class="st2" d="M697.8,191.6v4.1h-14.5V174h4.7l0,17.6H697.8z"/>
				<path class="st2" d="M704.4,178.2v4.5h9.7v4.1h-9.7v4.8H715v4.2h-15.2V174H715v4.2H704.4z"/>
				<path class="st2" d="M734.3,178.1h-5.8v17.6h-4.6v-17.6H718V174h16.3V178.1z"/>
				<path class="st2" d="M736.4,174h4.5v21.7h-4.5V174z"/>
				<path class="st2" d="M756.1,195.7h-5.7l-7.5-21.7h4.9l5.2,16.3c0.1,0.4,0.1,0.7,0.1,0.7h0.5c0,0,0-0.2,0.1-0.7l5.6-16.3h4.9
					L756.1,195.7z"/>
				<path class="st2" d="M776.2,173.3c6.8,0,11.2,5.1,11.2,11.4c0,6.4-4.5,11.7-11.2,11.7s-11.2-5.3-11.2-11.7
					C765,178.4,769.4,173.3,776.2,173.3z M776.2,191.9c4,0,6.4-3.2,6.4-7.2c0-4.1-2.4-7-6.4-7s-6.4,2.9-6.4,7
					C769.8,188.7,772.2,191.9,776.2,191.9z"/>
				<path class="st2" d="M801.9,189.6c0-3.7-12-2.1-12-9.2c0-4.2,3.2-7.1,8.3-7.1c5.3,0,8.6,2.5,8.8,8.1l-4.7-0.6
					c0-2.6-1.9-3.3-4-3.3c-1.7,0-3.4,0.6-3.4,2.4c0,4.2,11.9,2.2,11.9,9.1c0,4.5-3.2,7.4-8.6,7.4c-4.7,0-8.5-3.3-8.5-8.1l4.7,0.3
					c0,2.7,2,3.6,3.8,3.6C800.5,192.2,801.9,191.2,801.9,189.6z"/>
			</g>
			<polygon class="st0" points="607,206.9 622.3,92 609.9,92 594.6,206.9 			"/>
		</g>
	</g>
</g>
</svg>
