<?xml version="1.0" encoding="utf-8"?>
<!-- Generator: Adobe Illustrator 27.4.1, SVG Export Plug-In . SVG Version: 6.00 Build 0)  -->
<svg version="1.1" xmlns="http://www.w3.org/2000/svg" xmlns:xlink="http://www.w3.org/1999/xlink" x="0px" y="0px"
	 viewBox="0 0 651.2 300" style="enable-background:new 0 0 651.2 300;" xml:space="preserve">
<style type="text/css">
	.st0{fill:#FF5F5F;}
	.st1{fill:#FCC443;}
	.st2{fill:#18304C;}
	.st3{fill:#F4F3EC;}
	.st4{clip-path:url(#SVGID_00000039850615964902879740000017700191315278168960_);}
	.st5{clip-path:url(#SVGID_00000040549782951334610880000015717724819732192905_);}
	.st6{clip-path:url(#SVGID_00000135681633916817148360000015241028798954356628_);}
	.st7{clip-path:url(#SVGID_00000018929818395187205020000017078136193899623586_);}
	.st8{clip-path:url(#SVGID_00000089565934720445197430000009193858752473787784_);}
	.st9{clip-path:url(#SVGID_00000077317033292305656220000005516438728003654791_);}
	.st10{clip-path:url(#SVGID_00000060725461854755970940000002674205583810483092_);}
	.st11{clip-path:url(#SVGID_00000115493129863787548500000010974943776632222904_);}
	.st12{clip-path:url(#SVGID_00000101782641028449900090000009569520922870876331_);}
	.st13{clip-path:url(#SVGID_00000131340220404992921030000008567658126269617041_);}
	.st14{clip-path:url(#SVGID_00000136372273485503862410000015051389661757328025_);}
	.st15{clip-path:url(#SVGID_00000145767715735897506310000004187492834225633213_);}
</style>
<g id="BGs">
</g>
<g id="Assinaturas">
	<g>
		<g>
			<path class="st2" d="M353.1,173.6c-0.2-6.1,2-11.9,6.1-16.4l0.3-0.3l-11.4-10.6l-0.3,0.3c-4.2,4.5-9.8,7.1-15.9,7.3
				c-6.1,0.2-11.9-2-16.4-6.1l-0.3-0.3l-10.6,11.4l0.3,0.3c6.5,6,14.6,9.6,23.4,10.2c0.2,0.1,0.6,0.3,1.2,0.7
				c-9.3,8.4-22.8,12.4-34.6,7.7c-9-3.6-13.9-11.8-15.3-21.1c-0.3-2.4-0.5-4.7-0.5-7.1c0-19.9,9.9-29.3,22.8-29.4
				c7.7-0.1,20,4,21.8,13.9h35.1c-3.6-23.8-25.3-39.9-53.3-39.9c-33,0-54.5,21.3-54.5,55.7c0,32.5,19.3,53.9,50.5,53.9
				c14.7,0,30.6-9.6,36.9-23.2c1.9,6.6,4.8,14.1,11.5,20.3l0.3,0.3l10.6-11.4l-0.3-0.3C355.9,185.4,353.3,179.7,353.1,173.6z"/>
			<path class="st2" d="M412.7,96.2H371V202h25.8V173h15.9c33.1,0,47.8-11.1,47.8-38.2C460.6,107.3,445.9,96.2,412.7,96.2z
				 M414.4,149.2h-17.6V119h17.6c13.2,0,17.4,5,17.4,15.1C431.8,142.2,427.6,149.2,414.4,149.2z"/>
			<path class="st2" d="M556,148.9c-11.7-8.7-28.3-9.8-42.2-12.7c-5.6-1.1-14.3-4.5-12.8-11.9c2.1-10.1,19.5-8.9,25.9-4.6
				c5.9,4.1,6.7,11.5,6.9,13c0.1,0,28,0,28,0c0-22.9-16.3-38.5-49.3-38.5c-27.7,0-43,10.9-43,31.5c0,13.3,6.3,23.1,24.6,28.1
				c10.7,2.9,21.7,5,32.2,8.6c4.9,1.6,11.5,3.4,11.5,9.7c0,6.6-5.8,9.3-19.2,9.3c-19.5,0-25.3-5.5-25.3-20.5h-28.2
				c0,27.4,15.6,43.3,52.9,43.3c34,0,47.8-13.2,47.8-33.3C565.9,162.2,563.1,154.1,556,148.9z"/>
		</g>
		<g>
			<g>
				<path class="st2" d="M142.3,185.8c-24.6,0-44.6-20-44.6-44.6s20-44.6,44.6-44.6c14.2,0,27.7,6.8,36,18.3
					c1.8,2.5,1.6,5.9-0.6,8.1l-31.8,31.8c-1.2,1.2-2.8,1.8-4.4,1.8l0,0c-1.7,0-3.2-0.7-4.4-1.8l-13.2-13.2c-2.4-2.4-2.4-6.4,0-8.8
					c2.4-2.4,6.4-2.4,8.8,0l8.7,8.7l23.3-23.3c-6-5.8-14.1-9.2-22.5-9.2c-17.7,0-32.1,14.4-32.1,32.1s14.4,32.1,32.1,32.1
					c17.7,0,32.1-14.4,32.1-32.1c0-3.5,2.8-6.3,6.3-6.3s6.3,2.8,6.3,6.3C187,165.8,167,185.8,142.3,185.8z"/>
			</g>
			<g>
				<path class="st2" d="M142.3,246.2c-2.1,0-4-1-5.1-2.7l-22.8-33c-27.4-11.3-45.7-38.4-45.7-68.2c0-40.7,33.1-73.7,73.7-73.7
					c40.7,0,73.7,33.1,73.7,73.7c0,29.7-18.3,56.9-45.8,68.2l-22.8,33C146.3,245.2,144.4,246.2,142.3,246.2z M142.3,81.1
					c-33.8,0-61.2,27.5-61.2,61.2c0,25.2,15.9,48.2,39.5,57.2c1.2,0.4,2.2,1.2,2.9,2.3l18.8,27.1l18.8-27.1c0.7-1,1.7-1.8,2.9-2.3
					c23.7-9,39.5-32,39.5-57.2C203.6,108.6,176.1,81.1,142.3,81.1z"/>
			</g>
		</g>
	</g>
</g>
</svg>
