<svg width="115" height="115" viewBox="0 0 115 115" fill="none" xmlns="http://www.w3.org/2000/svg">
<path d="M57.5 0C25.7436 0 0 25.7436 0 57.5C0 89.2564 25.7436 115 57.5 115C89.2564 115 115 89.2564 115 57.5C114.964 25.7585 89.2415 0.0359127 57.5 0ZM57.5 111.167C27.8607 111.167 3.83333 87.1393 3.83333 57.5C3.83333 27.8607 27.8607 3.83333 57.5 3.83333C87.1393 3.83333 111.167 27.8607 111.167 57.5C111.133 87.1253 87.1253 111.133 57.5 111.167Z" fill="#2C3344"/>
<path d="M57.5 7.66663C29.9778 7.66663 7.66666 29.9778 7.66666 57.5C7.66666 85.0222 29.9778 107.333 57.5 107.333C85.0222 107.333 107.333 85.0222 107.333 57.5C107.302 29.9909 85.009 7.69831 57.5 7.66663ZM57.5 103.5C32.0949 103.5 11.5 82.9051 11.5 57.5C11.5 32.0949 32.0949 11.5 57.5 11.5C82.9051 11.5 103.5 32.0949 103.5 57.5C103.47 82.8928 82.8928 103.47 57.5 103.5Z" fill="#2C3344"/>
<path d="M57.5 40.25C63.8513 40.25 69 35.1013 69 28.75C69 22.3987 63.8513 17.25 57.5 17.25C51.1487 17.25 46 22.3987 46 28.75C46.0063 35.0986 51.1514 40.2437 57.5 40.25ZM57.5 21.0833C61.7342 21.0833 65.1667 24.5158 65.1667 28.75C65.1667 32.9842 61.7342 36.4167 57.5 36.4167C53.2658 36.4167 49.8333 32.9842 49.8333 28.75C49.8333 24.5158 53.2658 21.0833 57.5 21.0833Z" fill="#2C3344"/>
<path d="M84.1934 42.182H84.1627L64.0377 43.9894C63.3516 44.0521 62.6648 44.0834 61.9773 44.0834H53.0226C52.3365 44.0834 51.651 44.0527 50.9661 43.9914L30.8066 42.182C27.6405 41.9333 24.8722 44.2983 24.6234 47.4644C24.3746 50.6305 26.7396 53.3988 29.9057 53.6475L46.1725 55.1234C47.1595 55.2126 47.9157 56.0394 47.9166 57.0304V61.4388C47.9173 62.3971 47.7379 63.347 47.3877 64.239L38.1646 87.7278C36.879 90.6324 38.1915 94.0293 41.0962 95.3149C44.0008 96.6005 47.3977 95.288 48.6833 92.3834L57.4732 70.8918L66.3454 92.4409C67.6685 95.2725 71.0111 96.5288 73.8717 95.2694C76.7323 94.01 78.063 90.6963 76.8679 87.8083L67.6123 64.2333C67.263 63.3423 67.0836 62.3938 67.0833 61.4369V57.0285C67.0843 56.0375 67.8405 55.2106 68.8275 55.1214L85.0674 53.6475C88.234 53.4062 90.6055 50.6435 90.3641 47.4768C90.1228 44.3102 87.36 41.9388 84.1934 42.1801V42.182ZM84.7473 49.8334L68.4806 51.3092C65.5139 51.5645 63.239 54.0528 63.25 57.0304V61.4388C63.2492 62.8773 63.5191 64.3032 64.0454 65.642L73.3336 89.2918C73.785 90.2492 73.3749 91.3914 72.4174 91.8429C71.4599 92.2943 70.3178 91.8841 69.8663 90.9267L61.0132 69.4351C60.4261 68.0125 59.039 67.0845 57.5 67.0845C55.961 67.0845 54.5739 68.0125 53.9867 69.4351L45.1586 90.8692C44.8841 91.5215 44.2725 91.9695 43.5678 92.0344C42.8631 92.0993 42.1799 91.7707 41.7909 91.1795C41.4018 90.5884 41.3702 89.8309 41.7086 89.2094L50.9641 65.6344C51.4869 64.2968 51.7535 62.8729 51.75 61.4369V57.0285C51.763 54.0494 49.4876 51.5589 46.5194 51.3034L30.2258 49.8334C29.1673 49.7587 28.3696 48.8401 28.4443 47.7816C28.5189 46.723 29.4375 45.9254 30.4961 46L50.6211 47.8074C51.4184 47.879 52.2177 47.9148 53.0188 47.9148H61.9735C62.7747 47.9148 63.5739 47.879 64.3712 47.8074L84.4867 46C84.9932 45.9599 85.4948 46.1238 85.8799 46.4553C86.265 46.7868 86.5018 47.2584 86.5375 47.7653C86.5791 48.278 86.4129 48.7859 86.0763 49.1749C85.7396 49.5638 85.2607 49.8011 84.7473 49.8334Z" fill="#2C3344"/>
</svg>
