<svg width="30" height="30" viewBox="0 0 30 30" fill="none" xmlns="http://www.w3.org/2000/svg">
<path d="M29.4155 8.48707C29.7663 8.34482 30.0004 7.96587 30 7.54112C29.9995 7.11638 29.7646 6.73809 29.4135 6.59678L15.2924 0.912745C15.1032 0.83654 14.8968 0.83654 14.7076 0.912745L0.586524 6.59678C0.23543 6.73803 0.000469452 7.11638 7.02365e-07 7.54112C-0.000468048 7.96587 0.233731 8.34482 0.584532 8.48707L6.17842 10.7558V17.2966C6.17842 18.3761 7.16555 19.289 9.11238 20.0099C10.8093 20.6383 12.9003 20.9843 15.0001 20.9843C17.0998 20.9843 19.1907 20.6383 20.8877 20.0099C22.8346 19.289 23.8217 18.3762 23.8217 17.2966V10.7558L26.1313 9.81912V18.8825C25.1042 19.2968 24.3662 20.4151 24.3662 21.7269C24.3662 23.0387 25.1042 24.1571 26.1313 24.5714V28.4007C26.1313 28.9544 26.5248 29.4034 27.0102 29.4034C27.4956 29.4034 27.8891 28.9544 27.8891 28.4007V24.5714C28.9162 24.1571 29.6542 23.0388 29.6542 21.7269C29.6542 20.4151 28.9162 19.2968 27.8891 18.8825V9.10614L29.4155 8.48707ZM27.0101 22.7379C26.5215 22.7379 26.1239 22.2843 26.1239 21.7268C26.1239 21.1693 26.5215 20.7158 27.0101 20.7158C27.4988 20.7158 27.8964 21.1693 27.8964 21.7268C27.8964 22.2843 27.4988 22.7379 27.0101 22.7379ZM15 2.92155L26.4884 7.54594L15 12.2053L3.51158 7.54587L15 2.92155ZM22.0638 17.1454C21.8954 17.3392 21.2923 17.8032 19.9312 18.2461C18.4792 18.7187 16.7279 18.9789 15 18.9789C13.2721 18.9789 11.5208 18.7187 10.0688 18.2461C8.70768 17.8032 8.10463 17.3392 7.93617 17.1454V11.4688L14.7056 14.2143C14.8008 14.2529 14.9004 14.2722 14.9999 14.2722C15.0996 14.2722 15.1991 14.2529 15.2943 14.2143L22.0637 11.4688L22.0638 17.1454Z" fill="#2C3344"/>
</svg>
