<svg width="30" height="31" viewBox="0 0 30 31" fill="none" xmlns="http://www.w3.org/2000/svg">
<g clip-path="url(#clip0)">
<path d="M27.8598 11.2211C27.7384 10.3091 27.7213 8.73836 28.5684 8.21093C28.5835 8.20126 28.5948 8.18729 28.6081 8.1753C29.3006 7.9538 29.7798 7.64295 29.4036 7.22466L19.188 4.14658L2.64652 6.44636C2.64652 6.44636 0.752318 6.7171 0.921532 9.65999C1.01339 11.2617 1.51575 12.0483 1.95508 12.4355L0.597699 12.8445C0.220953 13.2628 0.700122 13.5738 1.39273 13.7949C1.40589 13.8073 1.417 13.8211 1.43239 13.8308C2.27891 14.3587 2.26261 15.9292 2.14085 16.8414C-0.900242 17.7049 0.191407 17.9863 0.191407 17.9863L0.858502 18.1477C0.389271 18.5717 -0.0767374 19.3758 0.0105551 20.9008C0.179858 23.8432 1.73573 24.0462 1.73573 24.0462L12.5604 27.5646L28.8989 23.6072C28.8989 23.6072 29.9909 23.3253 26.949 22.4617C26.8267 21.551 26.8096 19.9806 27.6581 19.4514C27.6737 19.442 27.6851 19.4277 27.6977 19.4159C28.3903 19.1944 28.8691 18.8838 28.4928 18.4656L27.7827 18.2511C28.2563 17.9655 28.9677 17.2191 29.0792 15.2802C29.1561 13.9466 28.8082 13.1655 28.4054 12.7057L29.8091 12.366C29.8092 12.3665 30.9012 12.0847 27.8598 11.2211ZM14.1936 11.1834L16.9411 10.6187L26.2262 8.7106L27.6095 8.42607C27.1675 9.23508 27.186 10.3422 27.2592 11.0538C27.2752 11.2148 27.2937 11.3618 27.3116 11.4735L25.7974 11.85L14.0781 14.7654L14.1936 11.1834ZM2.39136 14.0468L3.77452 14.3314L12.6915 16.1644L13.4705 16.324L15.8067 16.8041L15.9219 20.3863L3.87695 17.3896L2.6895 17.0945C2.70696 16.9826 2.7254 16.8357 2.74214 16.6743C2.81484 15.9633 2.83373 14.8558 2.39136 14.0468ZM1.854 9.51835C1.83725 8.73558 1.97674 8.16948 2.25868 7.88173C2.43809 7.69801 2.64984 7.65978 2.79505 7.65978C2.87178 7.65978 2.92702 7.67043 2.93078 7.67043L10.0581 9.99403L13.614 11.1534L13.4973 14.7605L3.5216 11.9637L2.99516 11.8163C2.97582 11.8108 2.94958 11.807 2.92935 11.8061C2.88826 11.8032 1.90198 11.7124 1.854 9.51835ZM12.5861 26.0018L2.08427 23.0575C2.06484 23.0519 2.03888 23.0481 2.01864 23.0471C1.97683 23.0444 0.990112 22.9537 0.942392 20.7602C0.925381 19.9764 1.06559 19.4108 1.34698 19.1228C1.52685 18.9391 1.73868 18.9009 1.88363 18.9009C1.96054 18.9009 2.0156 18.9112 2.01963 18.9112C2.01963 18.9112 2.02008 18.9112 2.01963 18.9112L12.7021 22.3946L12.5861 26.0018ZM26.3475 22.2946C26.3641 22.4561 26.3825 22.6029 26.4004 22.7148L13.1667 26.0069L13.2823 22.4248L16.1116 21.8431L16.5294 21.9442L18.0955 21.4352L25.3145 19.9518L26.6984 19.6671C26.2559 20.476 26.2743 21.5836 26.3475 22.2946ZM27.0764 17.4264C27.0524 17.4269 27.0283 17.4301 27.0056 17.4373L26.0075 17.7167L16.504 20.3815L16.3878 16.7744L19.5058 15.7574L27.0557 13.2952C27.0567 13.2948 27.4528 13.2068 27.7436 13.5025C28.0251 13.7902 28.1648 14.3563 28.1483 15.1391C28.0991 17.3325 27.1124 17.4236 27.0764 17.4264Z" fill="#2C3344"/>
</g>
<defs>
<clipPath id="clip0">
<rect width="30" height="30" fill="white" transform="translate(0 0.855591)"/>
</clipPath>
</defs>
</svg>
