<svg xmlns="http://www.w3.org/2000/svg" xmlns:xlink="http://www.w3.org/1999/xlink" width="92" zoomAndPan="magnify" viewBox="0 0 69 68.999997" height="92" preserveAspectRatio="xMidYMid meet" version="1.0"><defs><clipPath id="1b1efe2af5"><path d="M 3.449219 0 L 65.699219 0 L 65.699219 69 L 3.449219 69 Z M 3.449219 0 " clip-rule="nonzero"/></clipPath><clipPath id="6fb7cab949"><path d="M 3.449219 49 L 6 49 L 6 52 L 3.449219 52 Z M 3.449219 49 " clip-rule="nonzero"/></clipPath></defs><path fill="#ff5f5f" d="M 11.519531 33.34375 L 16.128906 33.34375 C 16.4375 33.34375 16.730469 33.285156 17.011719 33.167969 C 17.296875 33.050781 17.542969 32.886719 17.761719 32.667969 C 17.976562 32.453125 18.144531 32.203125 18.261719 31.921875 C 18.378906 31.640625 18.4375 31.347656 18.4375 31.042969 L 18.4375 26.441406 C 18.4375 26.136719 18.378906 25.84375 18.261719 25.5625 C 18.144531 25.28125 17.976562 25.03125 17.761719 24.816406 C 17.542969 24.601562 17.296875 24.433594 17.011719 24.316406 C 16.730469 24.203125 16.4375 24.144531 16.128906 24.144531 L 11.519531 24.144531 C 11.214844 24.144531 10.917969 24.203125 10.636719 24.316406 C 10.355469 24.433594 10.105469 24.601562 9.890625 24.816406 C 9.671875 25.03125 9.507812 25.28125 9.390625 25.5625 C 9.273438 25.84375 9.214844 26.136719 9.214844 26.441406 L 9.214844 31.042969 C 9.214844 31.347656 9.273438 31.640625 9.390625 31.921875 C 9.507812 32.203125 9.671875 32.453125 9.890625 32.667969 C 10.105469 32.886719 10.355469 33.050781 10.636719 33.167969 C 10.917969 33.285156 11.214844 33.34375 11.519531 33.34375 Z M 11.519531 26.441406 L 16.128906 26.441406 L 16.128906 31.042969 L 11.519531 31.042969 Z M 11.519531 26.441406 " fill-opacity="1" fill-rule="nonzero"/><path fill="#ff5f5f" d="M 25.351562 33.34375 L 29.964844 33.34375 C 30.269531 33.34375 30.5625 33.285156 30.847656 33.167969 C 31.128906 33.050781 31.378906 32.886719 31.59375 32.667969 C 31.808594 32.453125 31.976562 32.203125 32.09375 31.921875 C 32.210938 31.640625 32.269531 31.347656 32.269531 31.042969 L 32.269531 26.441406 C 32.269531 26.136719 32.210938 25.84375 32.09375 25.5625 C 31.976562 25.28125 31.808594 25.03125 31.59375 24.816406 C 31.378906 24.601562 31.128906 24.433594 30.847656 24.316406 C 30.5625 24.203125 30.269531 24.144531 29.964844 24.144531 L 25.351562 24.144531 C 25.046875 24.144531 24.753906 24.203125 24.46875 24.316406 C 24.1875 24.433594 23.9375 24.601562 23.722656 24.816406 C 23.507812 25.03125 23.339844 25.28125 23.222656 25.5625 C 23.105469 25.84375 23.046875 26.136719 23.046875 26.441406 L 23.046875 31.042969 C 23.046875 31.347656 23.105469 31.640625 23.222656 31.921875 C 23.339844 32.203125 23.507812 32.453125 23.722656 32.667969 C 23.9375 32.886719 24.1875 33.050781 24.46875 33.167969 C 24.753906 33.285156 25.046875 33.34375 25.351562 33.34375 Z M 25.351562 26.441406 L 29.964844 26.441406 L 29.964844 31.042969 L 25.351562 31.042969 Z M 25.351562 26.441406 " fill-opacity="1" fill-rule="nonzero"/><path fill="#ff5f5f" d="M 39.1875 33.34375 L 43.796875 33.34375 C 44.101562 33.34375 44.398438 33.285156 44.679688 33.167969 C 44.960938 33.050781 45.210938 32.886719 45.425781 32.667969 C 45.644531 32.453125 45.808594 32.203125 45.925781 31.921875 C 46.042969 31.640625 46.101562 31.347656 46.101562 31.042969 L 46.101562 26.441406 C 46.101562 26.136719 46.042969 25.84375 45.925781 25.5625 C 45.808594 25.28125 45.644531 25.03125 45.425781 24.816406 C 45.210938 24.601562 44.960938 24.433594 44.679688 24.316406 C 44.398438 24.203125 44.101562 24.144531 43.796875 24.144531 L 39.1875 24.144531 C 38.878906 24.144531 38.585938 24.203125 38.304688 24.316406 C 38.019531 24.433594 37.773438 24.601562 37.554688 24.816406 C 37.339844 25.03125 37.171875 25.28125 37.054688 25.5625 C 36.9375 25.84375 36.878906 26.136719 36.878906 26.441406 L 36.878906 31.042969 C 36.878906 31.347656 36.9375 31.640625 37.054688 31.921875 C 37.171875 32.203125 37.339844 32.453125 37.554688 32.667969 C 37.773438 32.886719 38.019531 33.050781 38.304688 33.167969 C 38.585938 33.285156 38.878906 33.34375 39.1875 33.34375 Z M 39.1875 26.441406 L 43.796875 26.441406 L 43.796875 31.042969 L 39.1875 31.042969 Z M 39.1875 26.441406 " fill-opacity="1" fill-rule="nonzero"/><path fill="#ff5f5f" d="M 53.019531 33.34375 L 57.628906 33.34375 C 57.9375 33.34375 58.230469 33.285156 58.511719 33.167969 C 58.796875 33.050781 59.042969 32.886719 59.261719 32.667969 C 59.476562 32.453125 59.644531 32.203125 59.761719 31.921875 C 59.878906 31.640625 59.9375 31.347656 59.9375 31.042969 L 59.9375 26.441406 C 59.9375 26.136719 59.878906 25.84375 59.761719 25.5625 C 59.644531 25.28125 59.476562 25.03125 59.261719 24.816406 C 59.042969 24.601562 58.796875 24.433594 58.511719 24.316406 C 58.230469 24.203125 57.9375 24.144531 57.628906 24.144531 L 53.019531 24.144531 C 52.714844 24.144531 52.417969 24.203125 52.136719 24.316406 C 51.855469 24.433594 51.605469 24.601562 51.390625 24.816406 C 51.171875 25.03125 51.007812 25.28125 50.890625 25.5625 C 50.773438 25.84375 50.714844 26.136719 50.714844 26.441406 L 50.714844 31.042969 C 50.714844 31.347656 50.773438 31.640625 50.890625 31.921875 C 51.007812 32.203125 51.171875 32.453125 51.390625 32.667969 C 51.605469 32.886719 51.855469 33.050781 52.136719 33.167969 C 52.417969 33.285156 52.714844 33.34375 53.019531 33.34375 Z M 53.019531 26.441406 L 57.628906 26.441406 L 57.628906 31.042969 L 53.019531 31.042969 Z M 53.019531 26.441406 " fill-opacity="1" fill-rule="nonzero"/><path fill="#ff5f5f" d="M 9.214844 43.691406 C 9.214844 43.996094 9.273438 44.289062 9.390625 44.574219 C 9.507812 44.855469 9.671875 45.101562 9.890625 45.320312 C 10.105469 45.535156 10.355469 45.699219 10.636719 45.816406 C 10.917969 45.933594 11.214844 45.992188 11.519531 45.992188 L 16.128906 45.992188 C 16.4375 45.992188 16.730469 45.933594 17.011719 45.816406 C 17.296875 45.699219 17.542969 45.535156 17.761719 45.320312 C 17.976562 45.101562 18.144531 44.855469 18.261719 44.574219 C 18.378906 44.289062 18.4375 43.996094 18.4375 43.691406 L 18.4375 39.09375 C 18.4375 38.789062 18.378906 38.496094 18.261719 38.210938 C 18.144531 37.929688 17.976562 37.683594 17.761719 37.464844 C 17.542969 37.25 17.296875 37.085938 17.011719 36.96875 C 16.730469 36.851562 16.4375 36.792969 16.128906 36.792969 L 11.519531 36.792969 C 11.214844 36.792969 10.917969 36.851562 10.636719 36.96875 C 10.355469 37.085938 10.105469 37.25 9.890625 37.464844 C 9.671875 37.683594 9.507812 37.929688 9.390625 38.210938 C 9.273438 38.496094 9.214844 38.789062 9.214844 39.09375 Z M 11.519531 39.09375 L 16.128906 39.09375 L 16.128906 43.691406 L 11.519531 43.691406 Z M 11.519531 39.09375 " fill-opacity="1" fill-rule="nonzero"/><path fill="#ff5f5f" d="M 23.046875 43.117188 C 23.046875 43.421875 23.105469 43.714844 23.222656 43.996094 C 23.339844 44.28125 23.507812 44.527344 23.722656 44.742188 C 23.9375 44.960938 24.1875 45.125 24.46875 45.242188 C 24.753906 45.359375 25.046875 45.417969 25.351562 45.417969 L 29.964844 45.417969 C 30.269531 45.417969 30.5625 45.359375 30.847656 45.242188 C 31.128906 45.125 31.378906 44.960938 31.59375 44.742188 C 31.808594 44.527344 31.976562 44.28125 32.09375 43.996094 C 32.210938 43.714844 32.269531 43.421875 32.269531 43.117188 L 32.269531 38.519531 C 32.269531 38.210938 32.210938 37.917969 32.09375 37.636719 C 31.976562 37.355469 31.808594 37.105469 31.59375 36.890625 C 31.378906 36.675781 31.128906 36.507812 30.847656 36.394531 C 30.5625 36.277344 30.269531 36.21875 29.964844 36.21875 L 25.351562 36.21875 C 25.046875 36.21875 24.753906 36.277344 24.46875 36.394531 C 24.1875 36.507812 23.9375 36.675781 23.722656 36.890625 C 23.507812 37.105469 23.339844 37.355469 23.222656 37.636719 C 23.105469 37.917969 23.046875 38.210938 23.046875 38.519531 Z M 25.351562 38.519531 L 29.964844 38.519531 L 29.964844 43.117188 L 25.351562 43.117188 Z M 25.351562 38.519531 " fill-opacity="1" fill-rule="nonzero"/><path fill="#ff5f5f" d="M 36.878906 43.117188 C 36.878906 43.421875 36.9375 43.714844 37.054688 43.996094 C 37.171875 44.28125 37.339844 44.527344 37.554688 44.742188 C 37.773438 44.960938 38.019531 45.125 38.304688 45.242188 C 38.585938 45.359375 38.878906 45.417969 39.1875 45.417969 L 43.796875 45.417969 C 44.101562 45.417969 44.398438 45.359375 44.679688 45.242188 C 44.960938 45.125 45.210938 44.960938 45.425781 44.742188 C 45.644531 44.527344 45.808594 44.28125 45.925781 43.996094 C 46.042969 43.714844 46.101562 43.421875 46.101562 43.117188 L 46.101562 38.519531 C 46.101562 38.210938 46.042969 37.917969 45.925781 37.636719 C 45.808594 37.355469 45.644531 37.105469 45.425781 36.890625 C 45.210938 36.675781 44.960938 36.507812 44.679688 36.394531 C 44.398438 36.277344 44.101562 36.21875 43.796875 36.21875 L 39.1875 36.21875 C 38.878906 36.21875 38.585938 36.277344 38.304688 36.394531 C 38.019531 36.507812 37.773438 36.675781 37.554688 36.890625 C 37.339844 37.105469 37.171875 37.355469 37.054688 37.636719 C 36.9375 37.917969 36.878906 38.210938 36.878906 38.519531 Z M 39.1875 38.519531 L 43.796875 38.519531 L 43.796875 43.117188 L 39.1875 43.117188 Z M 39.1875 38.519531 " fill-opacity="1" fill-rule="nonzero"/><path fill="#ff5f5f" d="M 50.714844 43.117188 C 50.714844 43.421875 50.773438 43.714844 50.890625 43.996094 C 51.007812 44.28125 51.171875 44.527344 51.390625 44.742188 C 51.605469 44.960938 51.855469 45.125 52.136719 45.242188 C 52.417969 45.359375 52.714844 45.417969 53.019531 45.417969 L 57.628906 45.417969 C 57.9375 45.417969 58.230469 45.359375 58.511719 45.242188 C 58.796875 45.125 59.042969 44.960938 59.261719 44.742188 C 59.476562 44.527344 59.644531 44.28125 59.761719 43.996094 C 59.878906 43.714844 59.9375 43.421875 59.9375 43.117188 L 59.9375 38.519531 C 59.9375 38.210938 59.878906 37.917969 59.761719 37.636719 C 59.644531 37.355469 59.476562 37.105469 59.261719 36.890625 C 59.042969 36.675781 58.796875 36.507812 58.511719 36.394531 C 58.230469 36.277344 57.9375 36.21875 57.628906 36.21875 L 53.019531 36.21875 C 52.714844 36.21875 52.417969 36.277344 52.136719 36.394531 C 51.855469 36.507812 51.605469 36.675781 51.390625 36.890625 C 51.171875 37.105469 51.007812 37.355469 50.890625 37.636719 C 50.773438 37.917969 50.714844 38.210938 50.714844 38.519531 Z M 53.019531 38.519531 L 57.628906 38.519531 L 57.628906 43.117188 L 53.019531 43.117188 Z M 53.019531 38.519531 " fill-opacity="1" fill-rule="nonzero"/><path fill="#ff5f5f" d="M 9.214844 55.191406 C 9.214844 55.496094 9.273438 55.789062 9.390625 56.070312 C 9.507812 56.355469 9.671875 56.601562 9.890625 56.816406 C 10.105469 57.035156 10.355469 57.199219 10.636719 57.316406 C 10.917969 57.433594 11.214844 57.492188 11.519531 57.492188 L 16.128906 57.492188 C 16.4375 57.492188 16.730469 57.433594 17.011719 57.316406 C 17.296875 57.199219 17.542969 57.035156 17.761719 56.816406 C 17.976562 56.601562 18.144531 56.355469 18.261719 56.070312 C 18.378906 55.789062 18.4375 55.496094 18.4375 55.191406 L 18.4375 50.59375 C 18.4375 50.289062 18.378906 49.992188 18.261719 49.710938 C 18.144531 49.429688 17.976562 49.179688 17.761719 48.964844 C 17.542969 48.75 17.296875 48.585938 17.011719 48.46875 C 16.730469 48.351562 16.4375 48.292969 16.128906 48.292969 L 11.519531 48.292969 C 11.214844 48.292969 10.917969 48.351562 10.636719 48.46875 C 10.355469 48.585938 10.105469 48.75 9.890625 48.964844 C 9.671875 49.179688 9.507812 49.429688 9.390625 49.710938 C 9.273438 49.992188 9.214844 50.289062 9.214844 50.59375 Z M 11.519531 50.59375 L 16.128906 50.59375 L 16.128906 55.191406 L 11.519531 55.191406 Z M 11.519531 50.59375 " fill-opacity="1" fill-rule="nonzero"/><path fill="#ff5f5f" d="M 23.046875 55.191406 C 23.046875 55.496094 23.105469 55.789062 23.222656 56.070312 C 23.339844 56.355469 23.507812 56.601562 23.722656 56.816406 C 23.9375 57.035156 24.1875 57.199219 24.46875 57.316406 C 24.753906 57.433594 25.046875 57.492188 25.351562 57.492188 L 29.964844 57.492188 C 30.269531 57.492188 30.5625 57.433594 30.847656 57.316406 C 31.128906 57.199219 31.378906 57.035156 31.59375 56.816406 C 31.808594 56.601562 31.976562 56.355469 32.09375 56.070312 C 32.210938 55.789062 32.269531 55.496094 32.269531 55.191406 L 32.269531 50.59375 C 32.269531 50.289062 32.210938 49.992188 32.09375 49.710938 C 31.976562 49.429688 31.808594 49.179688 31.59375 48.964844 C 31.378906 48.75 31.128906 48.585938 30.847656 48.46875 C 30.5625 48.351562 30.269531 48.292969 29.964844 48.292969 L 25.351562 48.292969 C 25.046875 48.292969 24.753906 48.351562 24.46875 48.46875 C 24.1875 48.585938 23.9375 48.75 23.722656 48.964844 C 23.507812 49.179688 23.339844 49.429688 23.222656 49.710938 C 23.105469 49.992188 23.046875 50.289062 23.046875 50.59375 Z M 25.351562 50.59375 L 29.964844 50.59375 L 29.964844 55.191406 L 25.351562 55.191406 Z M 25.351562 50.59375 " fill-opacity="1" fill-rule="nonzero"/><path fill="#ff5f5f" d="M 36.878906 55.191406 C 36.878906 55.496094 36.9375 55.789062 37.054688 56.070312 C 37.171875 56.355469 37.339844 56.601562 37.554688 56.816406 C 37.773438 57.035156 38.019531 57.199219 38.304688 57.316406 C 38.585938 57.433594 38.878906 57.492188 39.1875 57.492188 L 43.796875 57.492188 C 44.101562 57.492188 44.398438 57.433594 44.679688 57.316406 C 44.960938 57.199219 45.210938 57.035156 45.425781 56.816406 C 45.644531 56.601562 45.808594 56.355469 45.925781 56.070312 C 46.042969 55.789062 46.101562 55.496094 46.101562 55.191406 L 46.101562 50.59375 C 46.101562 50.289062 46.042969 49.992188 45.925781 49.710938 C 45.808594 49.429688 45.644531 49.179688 45.425781 48.964844 C 45.210938 48.75 44.960938 48.585938 44.679688 48.46875 C 44.398438 48.351562 44.101562 48.292969 43.796875 48.292969 L 39.1875 48.292969 C 38.878906 48.292969 38.585938 48.351562 38.304688 48.46875 C 38.019531 48.585938 37.773438 48.75 37.554688 48.964844 C 37.339844 49.179688 37.171875 49.429688 37.054688 49.710938 C 36.9375 49.992188 36.878906 50.289062 36.878906 50.59375 Z M 39.1875 50.59375 L 43.796875 50.59375 L 43.796875 55.191406 L 39.1875 55.191406 Z M 39.1875 50.59375 " fill-opacity="1" fill-rule="nonzero"/><g clip-path="url(#1b1efe2af5)"><path fill="#ff5f5f" d="M 59.9375 4.59375 L 56.476562 4.59375 L 56.476562 4.019531 C 56.476562 3.753906 56.453125 3.492188 56.398438 3.234375 C 56.347656 2.972656 56.273438 2.722656 56.171875 2.480469 C 56.070312 2.234375 55.945312 2.003906 55.796875 1.78125 C 55.652344 1.5625 55.484375 1.359375 55.296875 1.171875 C 55.109375 0.984375 54.90625 0.820312 54.683594 0.671875 C 54.464844 0.527344 54.230469 0.402344 53.988281 0.300781 C 53.742188 0.199219 53.488281 0.121094 53.230469 0.0703125 C 52.96875 0.0195312 52.707031 -0.0078125 52.441406 -0.0078125 C 52.179688 -0.0078125 51.914062 0.0195312 51.65625 0.0703125 C 51.394531 0.121094 51.144531 0.199219 50.898438 0.300781 C 50.652344 0.402344 50.421875 0.527344 50.203125 0.671875 C 49.980469 0.820312 49.777344 0.984375 49.589844 1.171875 C 49.402344 1.359375 49.234375 1.5625 49.089844 1.78125 C 48.941406 2.003906 48.816406 2.234375 48.714844 2.480469 C 48.613281 2.722656 48.539062 2.972656 48.484375 3.234375 C 48.433594 3.492188 48.410156 3.753906 48.410156 4.019531 L 48.410156 4.59375 L 38.609375 4.59375 L 38.609375 4.019531 C 38.609375 3.753906 38.582031 3.492188 38.53125 3.234375 C 38.480469 2.972656 38.402344 2.722656 38.300781 2.480469 C 38.203125 2.234375 38.078125 2.003906 37.929688 1.78125 C 37.78125 1.5625 37.617188 1.359375 37.429688 1.171875 C 37.242188 0.984375 37.035156 0.820312 36.816406 0.671875 C 36.597656 0.527344 36.363281 0.402344 36.117188 0.300781 C 35.875 0.199219 35.621094 0.121094 35.363281 0.0703125 C 35.101562 0.0195312 34.839844 -0.0078125 34.574219 -0.0078125 C 34.308594 -0.0078125 34.046875 0.0195312 33.789062 0.0703125 C 33.527344 0.121094 33.277344 0.199219 33.03125 0.300781 C 32.785156 0.402344 32.554688 0.527344 32.332031 0.671875 C 32.113281 0.820312 31.910156 0.984375 31.722656 1.171875 C 31.535156 1.359375 31.367188 1.5625 31.21875 1.78125 C 31.074219 2.003906 30.949219 2.234375 30.847656 2.480469 C 30.746094 2.722656 30.667969 2.972656 30.617188 3.234375 C 30.566406 3.492188 30.539062 3.753906 30.539062 4.019531 L 30.539062 4.59375 L 20.742188 4.59375 L 20.742188 4.019531 C 20.742188 3.753906 20.714844 3.492188 20.664062 3.234375 C 20.613281 2.972656 20.535156 2.722656 20.433594 2.480469 C 20.332031 2.234375 20.207031 2.003906 20.0625 1.78125 C 19.914062 1.5625 19.746094 1.359375 19.558594 1.171875 C 19.371094 0.984375 19.167969 0.820312 18.949219 0.671875 C 18.726562 0.527344 18.496094 0.402344 18.25 0.300781 C 18.007812 0.199219 17.753906 0.121094 17.492188 0.0703125 C 17.234375 0.0195312 16.972656 -0.0078125 16.707031 -0.0078125 C 16.441406 -0.0078125 16.179688 0.0195312 15.917969 0.0703125 C 15.660156 0.121094 15.40625 0.199219 15.164062 0.300781 C 14.917969 0.402344 14.6875 0.527344 14.464844 0.671875 C 14.246094 0.820312 14.042969 0.984375 13.855469 1.171875 C 13.667969 1.359375 13.5 1.5625 13.351562 1.78125 C 13.203125 2.003906 13.082031 2.234375 12.980469 2.480469 C 12.878906 2.722656 12.800781 2.972656 12.75 3.234375 C 12.699219 3.492188 12.671875 3.753906 12.671875 4.019531 L 12.671875 4.59375 L 9.214844 4.59375 C 8.835938 4.59375 8.460938 4.632812 8.089844 4.707031 C 7.71875 4.78125 7.359375 4.890625 7.007812 5.035156 C 6.660156 5.179688 6.328125 5.355469 6.011719 5.566406 C 5.699219 5.773438 5.40625 6.011719 5.140625 6.28125 C 4.871094 6.546875 4.632812 6.835938 4.421875 7.152344 C 4.214844 7.464844 4.035156 7.796875 3.890625 8.144531 C 3.746094 8.492188 3.636719 8.851562 3.5625 9.222656 C 3.488281 9.59375 3.449219 9.964844 3.449219 10.34375 L 3.449219 45.992188 C 3.449219 46.144531 3.480469 46.292969 3.539062 46.433594 C 3.597656 46.574219 3.679688 46.699219 3.789062 46.804688 C 3.894531 46.914062 4.019531 46.996094 4.160156 47.054688 C 4.304688 47.113281 4.449219 47.140625 4.601562 47.140625 C 4.753906 47.140625 4.902344 47.113281 5.042969 47.054688 C 5.183594 46.996094 5.308594 46.914062 5.417969 46.804688 C 5.527344 46.699219 5.609375 46.574219 5.667969 46.433594 C 5.726562 46.292969 5.753906 46.144531 5.753906 45.992188 L 5.753906 20.691406 L 63.394531 20.691406 L 63.394531 48.292969 C 63.394531 48.445312 63.363281 48.589844 63.308594 48.730469 C 63.25 48.875 63.164062 48.996094 63.058594 49.105469 C 62.949219 49.214844 62.824219 49.296875 62.683594 49.355469 C 62.542969 49.414062 62.394531 49.441406 62.242188 49.441406 L 56.476562 49.441406 C 56.097656 49.441406 55.726562 49.480469 55.355469 49.554688 C 54.984375 49.628906 54.621094 49.738281 54.273438 49.882812 C 53.921875 50.027344 53.589844 50.203125 53.277344 50.414062 C 52.960938 50.625 52.671875 50.863281 52.402344 51.128906 C 52.136719 51.394531 51.898438 51.6875 51.6875 52 C 51.476562 52.3125 51.300781 52.644531 51.15625 52.992188 C 51.007812 53.339844 50.898438 53.699219 50.824219 54.070312 C 50.75 54.441406 50.714844 54.816406 50.714844 55.191406 L 50.714844 60.941406 C 50.714844 61.09375 50.683594 61.242188 50.625 61.382812 C 50.566406 61.523438 50.484375 61.648438 50.375 61.753906 C 50.269531 61.863281 50.144531 61.945312 50.003906 62.003906 C 49.859375 62.0625 49.714844 62.089844 49.5625 62.089844 L 9.214844 62.019531 C 8.753906 62.019531 8.3125 61.933594 7.890625 61.757812 C 7.464844 61.582031 7.09375 61.335938 6.769531 61.011719 C 6.445312 60.6875 6.195312 60.3125 6.019531 59.890625 C 5.84375 59.46875 5.753906 59.027344 5.753906 58.570312 L 5.753906 55.191406 C 5.753906 55.039062 5.726562 54.894531 5.667969 54.75 C 5.609375 54.609375 5.527344 54.488281 5.417969 54.378906 C 5.308594 54.269531 5.183594 54.1875 5.042969 54.128906 C 4.902344 54.070312 4.753906 54.042969 4.601562 54.042969 C 4.449219 54.042969 4.304688 54.070312 4.160156 54.128906 C 4.019531 54.1875 3.894531 54.269531 3.789062 54.378906 C 3.679688 54.488281 3.597656 54.609375 3.539062 54.75 C 3.480469 54.894531 3.449219 55.039062 3.449219 55.191406 L 3.449219 63.242188 C 3.449219 63.617188 3.488281 63.992188 3.5625 64.363281 C 3.636719 64.734375 3.746094 65.09375 3.890625 65.441406 C 4.035156 65.789062 4.214844 66.121094 4.421875 66.433594 C 4.632812 66.75 4.871094 67.039062 5.140625 67.304688 C 5.40625 67.570312 5.699219 67.808594 6.011719 68.019531 C 6.328125 68.230469 6.660156 68.40625 7.007812 68.550781 C 7.359375 68.695312 7.71875 68.804688 8.089844 68.878906 C 8.460938 68.953125 8.835938 68.992188 9.214844 68.992188 L 59.9375 68.992188 C 60.3125 68.992188 60.6875 68.953125 61.058594 68.878906 C 61.429688 68.804688 61.792969 68.695312 62.140625 68.550781 C 62.488281 68.40625 62.820312 68.230469 63.136719 68.019531 C 63.449219 67.808594 63.742188 67.570312 64.007812 67.304688 C 64.277344 67.039062 64.515625 66.75 64.726562 66.433594 C 64.9375 66.121094 65.113281 65.789062 65.257812 65.441406 C 65.40625 65.09375 65.515625 64.734375 65.589844 64.363281 C 65.664062 63.992188 65.699219 63.617188 65.699219 63.242188 L 65.699219 10.34375 C 65.699219 9.964844 65.664062 9.59375 65.589844 9.222656 C 65.515625 8.851562 65.40625 8.492188 65.257812 8.144531 C 65.113281 7.796875 64.9375 7.464844 64.726562 7.152344 C 64.515625 6.835938 64.277344 6.546875 64.007812 6.28125 C 63.742188 6.011719 63.449219 5.773438 63.136719 5.566406 C 62.820312 5.355469 62.488281 5.179688 62.140625 5.035156 C 61.792969 4.890625 61.429688 4.78125 61.058594 4.707031 C 60.6875 4.632812 60.3125 4.59375 59.9375 4.59375 Z M 50.714844 4.019531 C 50.714844 3.789062 50.757812 3.570312 50.84375 3.359375 C 50.933594 3.148438 51.058594 2.960938 51.21875 2.800781 C 51.382812 2.636719 51.570312 2.511719 51.78125 2.425781 C 51.992188 2.335938 52.214844 2.292969 52.441406 2.292969 C 52.671875 2.292969 52.894531 2.335938 53.105469 2.425781 C 53.316406 2.511719 53.503906 2.636719 53.664062 2.800781 C 53.828125 2.960938 53.953125 3.148438 54.039062 3.359375 C 54.128906 3.570312 54.171875 3.789062 54.171875 4.019531 L 54.171875 8.617188 C 54.171875 8.847656 54.128906 9.066406 54.039062 9.277344 C 53.953125 9.488281 53.828125 9.675781 53.664062 9.839844 C 53.503906 10 53.316406 10.125 53.105469 10.210938 C 52.894531 10.300781 52.671875 10.34375 52.441406 10.34375 C 52.214844 10.34375 51.992188 10.300781 51.78125 10.210938 C 51.570312 10.125 51.382812 10 51.21875 9.839844 C 51.058594 9.675781 50.933594 9.488281 50.84375 9.277344 C 50.757812 9.066406 50.714844 8.847656 50.714844 8.617188 Z M 32.847656 4.019531 C 32.847656 3.789062 32.890625 3.570312 32.976562 3.359375 C 33.066406 3.148438 33.191406 2.960938 33.351562 2.800781 C 33.515625 2.636719 33.703125 2.511719 33.914062 2.425781 C 34.125 2.335938 34.34375 2.292969 34.574219 2.292969 C 34.804688 2.292969 35.023438 2.335938 35.238281 2.425781 C 35.449219 2.511719 35.636719 2.636719 35.796875 2.800781 C 35.960938 2.960938 36.085938 3.148438 36.171875 3.359375 C 36.261719 3.570312 36.304688 3.789062 36.304688 4.019531 L 36.304688 8.617188 C 36.304688 8.847656 36.261719 9.066406 36.171875 9.277344 C 36.085938 9.488281 35.960938 9.675781 35.796875 9.839844 C 35.636719 10 35.449219 10.125 35.238281 10.210938 C 35.023438 10.300781 34.804688 10.34375 34.574219 10.34375 C 34.34375 10.34375 34.125 10.300781 33.914062 10.210938 C 33.703125 10.125 33.515625 10 33.351562 9.839844 C 33.191406 9.675781 33.066406 9.488281 32.976562 9.277344 C 32.890625 9.066406 32.847656 8.847656 32.847656 8.617188 Z M 14.976562 4.019531 C 14.976562 3.789062 15.023438 3.570312 15.109375 3.359375 C 15.195312 3.148438 15.320312 2.960938 15.484375 2.800781 C 15.644531 2.636719 15.832031 2.511719 16.046875 2.425781 C 16.257812 2.335938 16.476562 2.292969 16.707031 2.292969 C 16.9375 2.292969 17.15625 2.335938 17.367188 2.425781 C 17.582031 2.511719 17.765625 2.636719 17.929688 2.800781 C 18.089844 2.960938 18.214844 3.148438 18.304688 3.359375 C 18.390625 3.570312 18.4375 3.789062 18.4375 4.019531 L 18.4375 8.617188 C 18.4375 8.847656 18.390625 9.066406 18.304688 9.277344 C 18.214844 9.488281 18.089844 9.675781 17.929688 9.839844 C 17.765625 10 17.582031 10.125 17.367188 10.210938 C 17.15625 10.300781 16.9375 10.34375 16.707031 10.34375 C 16.476562 10.34375 16.257812 10.300781 16.046875 10.210938 C 15.832031 10.125 15.644531 10 15.484375 9.839844 C 15.320312 9.675781 15.195312 9.488281 15.109375 9.277344 C 15.023438 9.066406 14.976562 8.847656 14.976562 8.617188 Z M 5.753906 18.394531 L 5.753906 10.34375 C 5.753906 9.886719 5.84375 9.445312 6.019531 9.023438 C 6.195312 8.601562 6.445312 8.226562 6.769531 7.902344 C 7.09375 7.582031 7.464844 7.332031 7.890625 7.15625 C 8.3125 6.980469 8.753906 6.894531 9.214844 6.894531 L 12.671875 6.894531 L 12.671875 8.617188 C 12.671875 8.882812 12.699219 9.144531 12.75 9.402344 C 12.800781 9.664062 12.878906 9.914062 12.980469 10.160156 C 13.082031 10.402344 13.203125 10.636719 13.351562 10.855469 C 13.5 11.074219 13.667969 11.277344 13.855469 11.464844 C 14.042969 11.652344 14.246094 11.820312 14.464844 11.964844 C 14.6875 12.113281 14.917969 12.234375 15.164062 12.335938 C 15.40625 12.4375 15.660156 12.515625 15.917969 12.566406 C 16.179688 12.617188 16.441406 12.644531 16.707031 12.644531 C 16.972656 12.644531 17.234375 12.617188 17.492188 12.566406 C 17.753906 12.515625 18.007812 12.4375 18.25 12.335938 C 18.496094 12.234375 18.726562 12.113281 18.949219 11.964844 C 19.167969 11.820312 19.371094 11.652344 19.558594 11.464844 C 19.746094 11.277344 19.914062 11.074219 20.0625 10.855469 C 20.207031 10.636719 20.332031 10.402344 20.433594 10.160156 C 20.535156 9.914062 20.613281 9.664062 20.664062 9.402344 C 20.714844 9.144531 20.742188 8.882812 20.742188 8.617188 L 20.742188 6.894531 L 30.539062 6.894531 L 30.539062 8.617188 C 30.539062 8.882812 30.566406 9.144531 30.617188 9.402344 C 30.667969 9.664062 30.746094 9.914062 30.847656 10.160156 C 30.949219 10.402344 31.074219 10.636719 31.21875 10.855469 C 31.367188 11.074219 31.535156 11.277344 31.722656 11.464844 C 31.910156 11.652344 32.113281 11.820312 32.332031 11.964844 C 32.554688 12.113281 32.785156 12.234375 33.03125 12.335938 C 33.277344 12.4375 33.527344 12.515625 33.789062 12.566406 C 34.046875 12.617188 34.308594 12.644531 34.574219 12.644531 C 34.839844 12.644531 35.101562 12.617188 35.363281 12.566406 C 35.621094 12.515625 35.875 12.4375 36.117188 12.335938 C 36.363281 12.234375 36.597656 12.113281 36.816406 11.964844 C 37.035156 11.820312 37.242188 11.652344 37.429688 11.464844 C 37.617188 11.277344 37.78125 11.074219 37.929688 10.855469 C 38.078125 10.636719 38.203125 10.402344 38.300781 10.160156 C 38.402344 9.914062 38.480469 9.664062 38.53125 9.402344 C 38.582031 9.144531 38.609375 8.882812 38.609375 8.617188 L 38.609375 6.894531 L 48.410156 6.894531 L 48.410156 8.617188 C 48.410156 8.882812 48.433594 9.144531 48.484375 9.402344 C 48.539062 9.664062 48.613281 9.914062 48.714844 10.160156 C 48.816406 10.402344 48.941406 10.636719 49.089844 10.855469 C 49.234375 11.074219 49.402344 11.277344 49.589844 11.464844 C 49.777344 11.652344 49.980469 11.820312 50.203125 11.964844 C 50.421875 12.113281 50.652344 12.234375 50.898438 12.335938 C 51.144531 12.4375 51.394531 12.515625 51.65625 12.566406 C 51.914062 12.617188 52.179688 12.644531 52.441406 12.644531 C 52.707031 12.644531 52.96875 12.617188 53.230469 12.566406 C 53.488281 12.515625 53.742188 12.4375 53.988281 12.335938 C 54.230469 12.234375 54.464844 12.113281 54.683594 11.964844 C 54.90625 11.820312 55.109375 11.652344 55.296875 11.464844 C 55.484375 11.277344 55.652344 11.074219 55.796875 10.855469 C 55.945312 10.636719 56.070312 10.402344 56.171875 10.160156 C 56.273438 9.914062 56.347656 9.664062 56.398438 9.402344 C 56.453125 9.144531 56.476562 8.882812 56.476562 8.617188 L 56.476562 6.894531 L 59.9375 6.894531 C 60.394531 6.894531 60.835938 6.980469 61.257812 7.15625 C 61.683594 7.332031 62.058594 7.582031 62.382812 7.902344 C 62.707031 8.226562 62.957031 8.601562 63.132812 9.023438 C 63.308594 9.445312 63.394531 9.886719 63.394531 10.34375 L 63.394531 18.394531 Z M 53.019531 55.191406 C 53.019531 54.734375 53.105469 54.292969 53.28125 53.871094 C 53.457031 53.449219 53.707031 53.074219 54.03125 52.753906 C 54.355469 52.429688 54.730469 52.179688 55.15625 52.003906 C 55.578125 51.828125 56.019531 51.742188 56.476562 51.742188 L 61.765625 51.742188 L 53.019531 60.46875 Z M 59.9375 66.691406 L 9.214844 66.691406 C 8.746094 66.691406 8.296875 66.597656 7.867188 66.417969 C 7.4375 66.234375 7.058594 65.976562 6.734375 65.644531 C 6.410156 65.308594 6.160156 64.925781 5.992188 64.492188 C 5.820312 64.058594 5.742188 63.605469 5.753906 63.140625 C 6.773438 63.921875 7.921875 64.3125 9.203125 64.320312 L 49.941406 64.390625 C 50.710938 64.390625 51.449219 64.246094 52.15625 63.953125 C 52.867188 63.660156 53.492188 63.246094 54.039062 62.703125 L 63.394531 53.371094 L 63.394531 63.242188 C 63.394531 63.699219 63.308594 64.140625 63.132812 64.5625 C 62.957031 64.984375 62.707031 65.359375 62.382812 65.679688 C 62.058594 66.003906 61.683594 66.253906 61.257812 66.429688 C 60.835938 66.605469 60.394531 66.691406 59.9375 66.691406 Z M 59.9375 66.691406 " fill-opacity="1" fill-rule="nonzero"/></g><g clip-path="url(#6fb7cab949)"><path fill="#ff5f5f" d="M 5.753906 50.59375 C 5.753906 50.746094 5.726562 50.890625 5.667969 51.03125 C 5.609375 51.171875 5.527344 51.296875 5.417969 51.40625 C 5.308594 51.511719 5.183594 51.597656 5.042969 51.65625 C 4.902344 51.714844 4.753906 51.742188 4.601562 51.742188 C 4.449219 51.742188 4.304688 51.714844 4.160156 51.65625 C 4.019531 51.597656 3.894531 51.511719 3.789062 51.40625 C 3.679688 51.296875 3.597656 51.171875 3.539062 51.03125 C 3.480469 50.890625 3.449219 50.746094 3.449219 50.59375 C 3.449219 50.441406 3.480469 50.292969 3.539062 50.152344 C 3.597656 50.011719 3.679688 49.886719 3.789062 49.777344 C 3.894531 49.671875 4.019531 49.589844 4.160156 49.53125 C 4.304688 49.472656 4.449219 49.441406 4.601562 49.441406 C 4.753906 49.441406 4.902344 49.472656 5.042969 49.53125 C 5.183594 49.589844 5.308594 49.671875 5.417969 49.777344 C 5.527344 49.886719 5.609375 50.011719 5.667969 50.152344 C 5.726562 50.292969 5.753906 50.441406 5.753906 50.59375 Z M 5.753906 50.59375 " fill-opacity="1" fill-rule="nonzero"/></g></svg>