<svg width="117" height="115" viewBox="0 0 117 115" fill="none" xmlns="http://www.w3.org/2000/svg">
<path d="M104.139 61.863V25.6825C110.388 24.7821 115.209 19.4076 115.209 12.915C115.209 5.79516 109.415 0 102.294 0C95.1718 0 89.3785 5.79516 89.3785 12.915H0.81822V86.7153H56.2625C57.2219 102.132 70.0354 114.39 85.6885 114.39C101.965 114.39 115.209 101.147 115.209 84.8703C115.209 75.5733 110.878 67.2781 104.139 61.863ZM102.294 3.69001C107.38 3.69001 111.519 7.82836 111.519 12.915C111.519 18.0017 107.38 22.1401 102.294 22.1401C97.2068 22.1401 93.0685 18.0017 93.0685 12.915C93.0685 7.82836 97.2068 3.69001 102.294 3.69001ZM4.50823 16.605H89.9228C90.3637 18.0774 91.0648 19.4334 91.9652 20.6364L80.6811 31.9204C79.9579 31.5736 79.1608 31.3651 78.3085 31.3651C77.4561 31.3651 76.659 31.5736 75.9376 31.9204L72.2199 28.2028C72.565 27.4795 72.7734 26.6825 72.7734 25.8301C72.7734 22.7784 70.2901 20.2951 67.2384 20.2951C64.1868 20.2951 61.7034 22.7784 61.7034 25.8301C61.7034 26.6825 61.9119 27.4795 62.2587 28.2009L53.006 37.4536C52.2828 37.1086 51.4858 36.9001 50.6334 36.9001C47.5817 36.9001 45.0984 39.3835 45.0984 42.4351C45.0984 45.4868 47.5817 47.9701 50.6334 47.9701C53.685 47.9701 56.1684 45.4868 56.1684 42.4351C56.1684 41.5827 55.9599 40.7857 55.613 40.0643L64.8657 30.8116C65.589 31.1566 66.386 31.3651 67.2384 31.3651C68.0908 31.3651 68.8879 31.1566 69.6093 30.8097L73.3269 34.5274C72.9819 35.2507 72.7734 36.0477 72.7734 36.9001C72.7734 39.9517 75.2568 42.4351 78.3085 42.4351C81.3601 42.4351 83.8435 39.9517 83.8435 36.9001C83.8435 36.0477 83.635 35.2507 83.2881 34.5293L94.574 23.2452C96.2622 24.5109 98.2659 25.3688 100.449 25.6843V59.3464C96.0998 56.8206 91.0685 55.3502 85.6885 55.3502C76.8693 55.3502 68.9617 59.2579 63.5484 65.411V57.1952H52.4784V79.3352H56.7071C56.4783 80.54 56.34 81.7743 56.2625 83.0252H4.50823V16.605ZM78.3085 35.0551C79.325 35.0551 80.1535 35.8817 80.1535 36.9001C80.1535 37.9186 79.325 38.7451 78.3085 38.7451C77.2919 38.7451 76.4634 37.9186 76.4634 36.9001C76.4634 35.8817 77.2919 35.0551 78.3085 35.0551ZM65.3934 25.8301C65.3934 24.8116 66.2218 23.9851 67.2384 23.9851C68.255 23.9851 69.0834 24.8116 69.0834 25.8301C69.0834 26.8485 68.255 27.6751 67.2384 27.6751C66.2218 27.6751 65.3934 26.8485 65.3934 25.8301ZM52.4784 42.4351C52.4784 43.4536 51.65 44.2801 50.6334 44.2801C49.6168 44.2801 48.7884 43.4536 48.7884 42.4351C48.7884 41.4167 49.6168 40.5901 50.6334 40.5901C51.65 40.5901 52.4784 41.4167 52.4784 42.4351ZM85.6885 99.6303C77.5502 99.6303 70.9284 93.0086 70.9284 84.8703C70.9284 76.7319 77.5502 70.1102 85.6885 70.1102C93.8268 70.1102 100.449 76.7319 100.449 84.8703C100.449 93.0086 93.8268 99.6303 85.6885 99.6303ZM59.8584 70.6102C58.9746 72.2043 58.244 73.8888 57.6647 75.6452H56.1684V60.8852H59.8584V70.6102ZM83.8435 59.1343V66.5143C74.5336 67.4442 67.2384 75.3205 67.2384 84.8703C67.2384 87.5695 67.8362 90.1285 68.8823 92.4422L62.482 96.1377C60.8178 92.7281 59.8584 88.9127 59.8584 84.8703C59.8584 71.2504 70.4616 60.0863 83.8435 59.1343ZM85.6885 110.7C76.8066 110.7 68.958 106.193 64.3085 99.3443L70.7347 95.634C74.0889 100.28 79.5335 103.32 85.6885 103.32C91.8434 103.32 97.288 100.28 100.642 95.634L107.068 99.3443C102.419 106.193 94.5703 110.7 85.6885 110.7V110.7ZM108.895 96.1377L102.495 92.4422C103.541 90.1285 104.139 87.5695 104.139 84.8703C104.139 75.3205 96.8434 67.4423 87.5335 66.5143V59.1343C100.915 60.0863 111.519 71.2504 111.519 84.8703C111.519 88.9127 110.559 92.7281 108.895 96.1377Z" fill="#2C3344"/>
<path d="M85.6885 73.8002C79.5833 73.8002 74.6184 78.7651 74.6184 84.8702C74.6184 90.9753 79.5833 95.9402 85.6885 95.9402C91.7936 95.9402 96.7585 90.9753 96.7585 84.8702C96.7585 78.7651 91.7936 73.8002 85.6885 73.8002ZM85.6885 92.2502C81.6184 92.2502 78.3084 88.9403 78.3084 84.8702C78.3084 80.8001 81.6184 77.4902 85.6885 77.4902C89.7586 77.4902 93.0685 80.8001 93.0685 84.8702C93.0685 88.9403 89.7586 92.2502 85.6885 92.2502Z" fill="#2C3344"/>
<path d="M8.19824 20.295H11.8883V23.9851H8.19824V20.295Z" fill="#2C3344"/>
<path d="M15.5783 20.295H41.4083V23.9851H15.5783V20.295Z" fill="#2C3344"/>
<path d="M8.19824 27.675H11.8883V31.3651H8.19824V27.675Z" fill="#2C3344"/>
<path d="M15.5783 27.675H41.4083V31.3651H15.5783V27.675Z" fill="#2C3344"/>
<path d="M8.19824 35.0551H11.8883V38.7451H8.19824V35.0551Z" fill="#2C3344"/>
<path d="M15.5783 35.0551H41.4083V38.7451H15.5783V35.0551Z" fill="#2C3344"/>
<path d="M8.19824 42.4352H11.8883V46.1252H8.19824V42.4352Z" fill="#2C3344"/>
<path d="M15.5783 42.4352H41.4083V46.1252H15.5783V42.4352Z" fill="#2C3344"/>
<path d="M8.19824 79.3352H19.2683V60.8851H8.19824V79.3352ZM11.8883 64.5751H15.5783V75.6452H11.8883V64.5751Z" fill="#2C3344"/>
<path d="M22.9583 79.3352H34.0283V64.5752H22.9583V79.3352ZM26.6483 68.2652H30.3383V75.6452H26.6483V68.2652Z" fill="#2C3344"/>
<path d="M37.7183 79.3353H48.7884V49.8152H37.7183V79.3353ZM41.4083 53.5052H45.0984V75.6453H41.4083V53.5052Z" fill="#2C3344"/>
</svg>
