<svg width="28" height="29" viewBox="0 0 28 29" fill="none" xmlns="http://www.w3.org/2000/svg">
<g clip-path="url(#clip0)">
<path d="M25.7787 4.82471C24.3293 3.25266 22.3405 2.38684 20.1782 2.38684C18.5619 2.38684 17.0817 2.89783 15.7786 3.90549C15.1211 4.41412 14.5253 5.03641 14 5.76273C13.4749 5.03662 12.8789 4.41412 12.2212 3.90549C10.9183 2.89783 9.43808 2.38684 7.82181 2.38684C5.65952 2.38684 3.67047 3.25266 2.22104 4.82471C0.78891 6.37839 0 8.50095 0 10.8017C0 13.1697 0.882477 15.3373 2.7771 17.6235C4.47198 19.6685 6.90793 21.7445 9.72882 24.1484C10.692 24.9694 11.7839 25.8999 12.9176 26.8911C13.2171 27.1534 13.6014 27.2979 14 27.2979C14.3984 27.2979 14.7829 27.1534 15.082 26.8915C16.2157 25.9001 17.3082 24.9691 18.2718 24.1478C21.0923 21.7443 23.5282 19.6685 25.2231 17.6233C27.1177 15.3373 28 13.1697 28 10.8015C28 8.50095 27.2111 6.37839 25.7787 4.82471Z" fill="#2C3344"/>
</g>
<defs>
<clipPath id="clip0">
<rect width="28" height="28" fill="white" transform="translate(0 0.855591)"/>
</clipPath>
</defs>
</svg>
