<svg xmlns="http://www.w3.org/2000/svg" xmlns:xlink="http://www.w3.org/1999/xlink" width="92" zoomAndPan="magnify" viewBox="0 0 69 68.999997" height="92" preserveAspectRatio="xMidYMid meet" version="1.0"><path fill="#18304c" d="M 41.285156 64.261719 L 27.96875 64.261719 C 27.53125 64.261719 27.164062 63.964844 27.046875 63.550781 L 25.597656 57.546875 C 25.460938 56.925781 24.746094 56.648438 24.21875 56.972656 L 19.066406 60.03125 C 18.699219 60.238281 18.238281 60.191406 17.917969 59.890625 L 9.152344 51.128906 C 8.855469 50.828125 8.785156 50.371094 8.992188 50.003906 L 12.074219 44.621094 C 12.375 44.089844 12.097656 43.425781 11.523438 43.261719 L 5.449219 41.5625 C 5.035156 41.445312 4.761719 41.078125 4.761719 40.664062 L 4.761719 28.335938 C 4.761719 27.921875 5.035156 27.554688 5.449219 27.4375 L 11.570312 25.738281 C 12.144531 25.574219 12.441406 24.910156 12.144531 24.378906 L 9.015625 18.882812 C 8.808594 18.515625 8.878906 18.078125 9.152344 17.777344 L 17.710938 8.992188 C 18.007812 8.695312 18.46875 8.625 18.835938 8.832031 L 24.242188 11.867188 C 24.769531 12.167969 25.460938 11.867188 25.597656 11.269531 L 27.070312 5.429688 C 27.1875 5.015625 27.554688 4.714844 27.96875 4.714844 L 41.148438 4.714844 C 41.5625 4.714844 41.953125 4.992188 42.042969 5.40625 L 43.609375 11.222656 C 43.769531 11.820312 44.460938 12.097656 44.988281 11.800781 L 50.140625 8.832031 C 50.507812 8.625 50.992188 8.671875 51.289062 8.992188 L 59.847656 17.777344 C 60.144531 18.078125 60.191406 18.539062 59.984375 18.882812 L 56.878906 24.378906 C 56.578125 24.910156 56.855469 25.574219 57.453125 25.738281 L 63.570312 27.4375 C 63.984375 27.554688 64.261719 27.921875 64.261719 28.335938 L 64.261719 40.664062 C 64.261719 41.078125 63.984375 41.445312 63.570312 41.5625 L 57.5 43.261719 C 56.902344 43.425781 56.625 44.089844 56.949219 44.621094 L 60.007812 49.957031 C 60.214844 50.324219 60.144531 50.785156 59.847656 51.082031 L 51.128906 59.824219 C 50.828125 60.121094 50.371094 60.191406 50.003906 59.984375 L 44.710938 57.0625 C 44.160156 56.765625 43.46875 57.085938 43.332031 57.707031 L 42.183594 63.503906 C 42.113281 63.941406 41.722656 64.261719 41.285156 64.261719 Z M 33.210938 57.59375 L 35.8125 57.59375 C 36.246094 57.59375 36.640625 57.269531 36.730469 56.832031 L 38.570312 47.425781 C 38.6875 46.804688 39.398438 46.484375 39.949219 46.78125 L 48.851562 51.703125 C 49.21875 51.910156 49.679688 51.84375 49.980469 51.542969 L 51.542969 49.980469 C 51.84375 49.679688 51.910156 49.21875 51.703125 48.851562 L 46.898438 40.503906 C 46.597656 39.972656 46.875 39.308594 47.449219 39.144531 L 56.925781 36.5 C 57.339844 36.386719 57.613281 36.019531 57.613281 35.605469 L 57.613281 33.417969 C 57.613281 33.003906 57.339844 32.636719 56.925781 32.523438 L 47.472656 29.898438 C 46.898438 29.738281 46.597656 29.070312 46.898438 28.542969 L 51.726562 19.988281 C 51.933594 19.617188 51.863281 19.183594 51.589844 18.882812 L 50.164062 17.410156 C 49.863281 17.113281 49.382812 17.042969 49.011719 17.25 L 40.824219 22.035156 C 40.296875 22.355469 39.605469 22.058594 39.445312 21.460938 L 36.960938 12.121094 C 36.847656 11.707031 36.476562 11.429688 36.0625 11.429688 L 33.210938 11.429688 C 32.773438 11.429688 32.40625 11.730469 32.316406 12.144531 L 29.992188 21.4375 C 29.832031 22.035156 29.164062 22.332031 28.636719 22.035156 L 20.078125 17.203125 C 19.710938 16.996094 19.25 17.066406 18.953125 17.363281 L 17.480469 18.859375 C 17.179688 19.160156 17.136719 19.617188 17.34375 19.964844 L 22.171875 28.519531 C 22.472656 29.050781 22.195312 29.714844 21.597656 29.878906 L 12.144531 32.5 C 11.730469 32.613281 11.453125 32.980469 11.453125 33.394531 L 11.453125 35.582031 C 11.453125 35.996094 11.730469 36.363281 12.144531 36.476562 L 21.621094 39.121094 C 22.21875 39.285156 22.492188 39.949219 22.171875 40.480469 L 17.363281 48.828125 C 17.15625 49.195312 17.226562 49.65625 17.527344 49.957031 L 19.019531 51.449219 C 19.320312 51.75 19.804688 51.820312 20.171875 51.589844 L 28.636719 46.574219 C 29.1875 46.253906 29.878906 46.550781 30.015625 47.148438 L 32.359375 56.808594 C 32.40625 57.292969 32.773438 57.59375 33.210938 57.59375 Z M 33.210938 57.59375 " fill-opacity="1" fill-rule="nonzero"/></svg>