<svg width="117" height="115" viewBox="0 0 117 115" fill="none" xmlns="http://www.w3.org/2000/svg">
<path d="M46.9433 44.0715C35.7534 44.0715 26.6483 53.1766 26.6483 64.3666C26.6483 75.5566 35.7534 84.6617 46.9433 84.6617C58.1333 84.6617 67.2384 75.5566 67.2384 64.3666C67.2384 53.1766 58.1333 44.0715 46.9433 44.0715ZM46.9433 80.9716C37.7884 80.9716 30.3383 73.5234 30.3383 64.3666C30.3383 55.2098 37.7884 47.7615 46.9433 47.7615C56.0983 47.7615 63.5484 55.2098 63.5484 64.3666C63.5484 73.5234 56.0983 80.9716 46.9433 80.9716Z" fill="#2C3344"/>
<path d="M85.6885 70.1102V79.0917L99.1625 70.1102H102.294C107.38 70.1102 111.519 65.9719 111.519 60.8852V38.7451C111.519 33.6584 107.38 29.5201 102.294 29.5201H92.4227C90.8988 25.2268 86.8084 22.1401 81.9984 22.1401C77.1885 22.1401 73.0981 25.2268 71.5742 29.5201H61.7034C61.0724 29.5201 60.4543 29.5847 59.8584 29.7064V16.605C59.8584 11.5184 55.72 7.38002 50.6334 7.38002H40.7626C39.2386 3.08669 35.1482 0 30.3383 0C25.5284 0 21.438 3.08669 19.914 7.38002H10.0432C4.95655 7.38002 0.818207 11.5184 0.818207 16.605V38.7451C0.818207 43.8318 4.95655 47.9701 10.0432 47.9701H24.8549C21.3642 52.6011 19.2683 58.3409 19.2683 64.5752C19.2683 70.125 20.9251 75.2873 23.7498 79.6249L21.1133 82.2614L19.2683 80.4164L3.27022 96.4163C1.68905 97.9956 0.818207 100.099 0.818207 102.333C0.818207 106.948 4.57279 110.7 9.18715 110.7C11.4233 110.7 13.5248 109.829 15.1041 108.25L31.1021 92.2503L29.2571 90.4053L31.8936 87.7688C36.2312 90.5935 41.3936 92.2503 46.9433 92.2503C60.3086 92.2503 71.4893 82.7282 74.0612 70.1102H85.6885ZM93.0685 33.2101H102.294C105.345 33.2101 107.829 35.6935 107.829 38.7451V60.8852C107.829 63.9368 105.345 66.4202 102.294 66.4202H98.0445L89.3785 72.1988V66.4202H74.5243C74.5649 65.8077 74.6184 65.1988 74.6184 64.5752C74.6184 63.9516 74.5649 63.3427 74.5243 62.7302H100.449V59.0402C100.449 51.2782 95.622 44.6325 88.8176 41.913C91.4006 39.8835 93.0685 36.7414 93.0685 33.2101ZM87.3932 59.0402L86.2659 44.9148C92.3286 46.7506 96.7585 52.3852 96.7585 59.0402H87.3932ZM82.5132 44.306L83.6903 59.0402H80.3066L81.4819 44.3115C81.6553 44.306 81.825 44.2801 81.9984 44.2801C82.1719 44.2801 82.3416 44.3004 82.5132 44.306ZM76.6037 59.0402H74.0594C73.3915 55.7598 72.1166 52.7044 70.3971 49.9554C72.2882 47.5421 74.8491 45.8078 77.7291 44.937L76.6037 59.0402ZM81.9984 25.8301C86.0685 25.8301 89.3785 29.14 89.3785 33.2101C89.3785 37.2802 86.0685 40.5901 81.9984 40.5901C77.9284 40.5901 74.6184 37.2802 74.6184 33.2101C74.6184 29.14 77.9284 25.8301 81.9984 25.8301ZM70.9284 33.2101C70.9284 36.7396 72.5945 39.8798 75.1738 41.9093C72.5022 42.9739 70.0945 44.6491 68.1628 46.841C65.0189 43.0864 60.8916 40.1971 56.1905 38.5237C56.3104 35.5754 58.7274 33.2101 61.7034 33.2101H70.9284ZM41.4083 11.07H50.6334C53.685 11.07 56.1684 13.5534 56.1684 16.605V31.4131C54.2606 32.8577 52.9488 35.009 52.6057 37.4887C51.364 37.2285 50.0854 37.0809 48.7884 36.9961V36.9001C48.7884 29.1382 43.9618 22.4925 37.1574 19.7729C39.7404 17.7434 41.4083 14.6014 41.4083 11.07V11.07ZM15.5783 36.9001C15.5783 30.2452 20.0081 24.6105 26.0726 22.7747L24.9435 36.9001H15.5783ZM29.8235 22.1659C29.9951 22.1604 30.1649 22.1401 30.3383 22.1401C30.5117 22.1401 30.6815 22.1604 30.8531 22.1659L32.0302 36.9001H28.6464L29.8235 22.1659ZM34.6039 22.7747C40.6685 24.6105 45.0983 30.2452 45.0983 36.9001H35.7331L34.6039 22.7747ZM30.3383 3.69001C34.4084 3.69001 37.7183 6.99995 37.7183 11.07C37.7183 15.1401 34.4084 18.4501 30.3383 18.4501C26.2682 18.4501 22.9583 15.1401 22.9583 11.07C22.9583 6.99995 26.2682 3.69001 30.3383 3.69001ZM4.50822 38.7451V16.605C4.50822 13.5534 6.9916 11.07 10.0432 11.07H19.2683C19.2683 14.6014 20.9361 17.7434 23.5192 19.7729C16.7148 22.4925 11.8882 29.1382 11.8882 36.9001V40.5901H33.1962C31.3881 41.6307 29.7147 42.8724 28.1926 44.2801H10.0432C6.9916 44.2801 4.50822 41.7968 4.50822 38.7451ZM12.4952 105.641C11.6115 106.523 10.4362 107.01 9.18715 107.01C6.60783 107.01 4.50822 104.911 4.50822 102.333C4.50822 101.084 4.9953 99.9107 5.87906 99.0251L19.2683 85.6341L25.8845 92.2503L12.4952 105.641ZM26.6483 87.7964L23.7221 84.8703L25.9896 82.6027C26.8918 83.6489 27.8697 84.6267 28.9158 85.5289L26.6483 87.7964ZM46.9433 88.5603C33.7183 88.5603 22.9583 77.8002 22.9583 64.5752C22.9583 51.3502 33.7183 40.5901 46.9433 40.5901C60.1683 40.5901 70.9284 51.3502 70.9284 64.5752C70.9284 77.8002 60.1683 88.5603 46.9433 88.5603Z" fill="#2C3344"/>
<path d="M109.674 80.9717H76.4635C73.4118 80.9717 70.9284 83.4551 70.9284 86.5067V108.647C70.9284 111.698 73.4118 114.182 76.4635 114.182H109.674C112.725 114.182 115.209 111.698 115.209 108.647V86.5067C115.209 83.4551 112.725 80.9717 109.674 80.9717ZM111.519 108.647C111.519 109.665 110.69 110.492 109.674 110.492H76.4635C75.4469 110.492 74.6184 109.665 74.6184 108.647V86.5067C74.6184 85.4883 75.4469 84.6617 76.4635 84.6617H109.674C110.69 84.6617 111.519 85.4883 111.519 86.5067V108.647Z" fill="#2C3344"/>
<path d="M104.139 92.0417H100.449V103.112H96.7585V95.7317H93.0685V103.112H89.3785V99.4217H85.6885V103.112H81.9985V88.3517H78.3085V106.802H107.829V103.112H104.139V92.0417Z" fill="#2C3344"/>
<path d="M100.449 30.5309H104.139V34.2209H100.449V30.5309Z" fill="#2C3344"/>
<path d="M100.449 37.9109H104.139V41.6009H100.449V37.9109Z" fill="#2C3344"/>
<path d="M8.19824 8.39075H11.8883V12.0808H8.19824V8.39075Z" fill="#2C3344"/>
<path d="M8.19824 15.7708H11.8883V19.4608H8.19824V15.7708Z" fill="#2C3344"/>
</svg>
