<svg width="115" height="115" viewBox="0 0 115 115" fill="none" xmlns="http://www.w3.org/2000/svg">
<path d="M39.005 78.9425C39.342 78.6055 39.5314 78.1485 39.5314 77.6719C39.5314 77.1953 39.342 76.7382 39.005 76.4012C38.668 76.0642 38.211 75.8749 37.7344 75.8749C37.2578 75.8749 36.8007 76.0642 36.4637 76.4012C35.8471 77.0164 35.0117 77.3619 34.1406 77.3619C33.2696 77.3619 32.4341 77.0164 31.8175 76.4012C31.4805 76.0642 31.0235 75.8749 30.5469 75.8749C30.0703 75.8749 29.6132 76.0642 29.2762 76.4012C28.9392 76.7382 28.7499 77.1953 28.7499 77.6719C28.7499 78.1485 28.9392 78.6055 29.2762 78.9425C30.5663 80.2327 32.3161 80.9574 34.1406 80.9574C35.9651 80.9574 37.7149 80.2327 39.005 78.9425Z" fill="#2C3344"/>
<path d="M28.75 70.4844C29.7424 70.4844 30.5469 69.6799 30.5469 68.6875C30.5469 67.6951 29.7424 66.8906 28.75 66.8906C27.7576 66.8906 26.9531 67.6951 26.9531 68.6875C26.9531 69.6799 27.7576 70.4844 28.75 70.4844Z" fill="#2C3344"/>
<path d="M39.5312 70.4844C40.5236 70.4844 41.3281 69.6799 41.3281 68.6875C41.3281 67.6951 40.5236 66.8906 39.5312 66.8906C38.5389 66.8906 37.7344 67.6951 37.7344 68.6875C37.7344 69.6799 38.5389 70.4844 39.5312 70.4844Z" fill="#2C3344"/>
<path d="M61.0343 100.061C59.1379 97.0365 56.5951 94.4695 53.5884 92.5448C51.423 91.1591 49.0479 90.1324 46.5549 89.5046L46.5548 89.5043C46.4673 89.3085 46.3447 89.1304 46.1931 88.9787L44.7602 87.5457C45.8832 87.3346 46.9973 87.0913 48.1023 86.8157C49.3524 86.5032 50.5211 85.9266 51.5298 85.1249C52.5385 84.3231 53.364 83.3147 53.9506 82.1674C54.5372 81.0201 54.8714 79.7606 54.9308 78.4734C54.9902 77.1862 54.7733 75.9012 54.2948 74.7048C54.0374 74.0627 53.9055 73.3773 53.9062 72.6855V65.0938C53.9062 59.8516 51.8238 54.8241 48.117 51.1173C44.4103 47.4106 39.3828 45.3281 34.1406 45.3281C28.8985 45.3281 23.871 47.4106 20.1642 51.1173C16.4574 54.8241 14.375 59.8516 14.375 65.0938V72.6855C14.3758 73.3773 14.2439 74.0627 13.9864 74.7048C13.5079 75.9012 13.2911 77.1862 13.3504 78.4734C13.4098 79.7606 13.744 81.0201 14.3307 82.1674C14.9173 83.3147 15.7427 84.3231 16.7514 85.1249C17.7602 85.9266 18.9289 86.5032 20.1789 86.8157C21.2817 87.092 22.3958 87.3353 23.5211 87.5457L22.0881 88.9787C21.9365 89.1304 21.8139 89.3085 21.7265 89.5043L21.7264 89.5046C19.2334 90.1324 16.8582 91.1591 14.6928 92.5448C11.6861 94.4696 9.14323 97.0366 7.24693 100.061L6.7238 100.899C4.67753 104.171 3.59288 107.953 3.59375 111.812H7.1875C7.18691 108.626 8.08237 105.504 9.7716 102.803L10.295 101.965C11.9074 99.3933 14.0697 97.2105 16.6266 95.5739C18.6058 94.3075 20.7901 93.3947 23.0819 92.8764L23.0831 92.878L27.3125 98.5156C27.4671 98.7215 27.664 98.8919 27.8901 99.0151C28.1161 99.1384 28.366 99.2116 28.6228 99.2299C28.8796 99.2483 29.1374 99.2112 29.3787 99.1213C29.6199 99.0314 29.8391 98.8907 30.0213 98.7088L32.3438 96.3841V111.812H35.9375V96.3841L38.26 98.7088C38.5978 99.0448 39.0548 99.2337 39.5312 99.2344C39.5739 99.2344 39.6166 99.2322 39.6593 99.2299C39.9161 99.212 40.166 99.1389 40.392 99.0157C40.618 98.8924 40.8147 98.7218 40.9687 98.5156L45.1981 92.878L45.1993 92.8764C47.4912 93.3947 49.6755 94.3075 51.6547 95.5739C54.2115 97.2105 56.3738 99.3932 57.9863 101.965L58.5099 102.803C60.199 105.505 61.0943 108.627 61.0938 111.812H64.6875C64.6884 107.953 63.6038 104.171 61.5577 100.899L61.0343 100.061ZM50.9594 76.039C51.2471 76.7591 51.3773 77.5325 51.3414 78.3072C51.3054 79.0819 51.1041 79.8399 50.7509 80.5303C50.3977 81.2207 49.9009 81.8275 49.2937 82.31C48.6866 82.7925 47.9832 83.1395 47.2309 83.3276C45.4744 83.7664 43.697 84.1165 41.9054 84.3765C43.6712 83.2349 45.1671 81.7221 46.2889 79.9436C47.4107 78.1651 48.1315 76.1635 48.4011 74.0781H48.5156C49.1494 74.0786 49.7783 73.9668 50.3731 73.7479C50.4677 74.5339 50.6648 75.3041 50.9594 76.039ZM48.5156 70.4844V66.8906C48.9922 66.8906 49.4492 67.0799 49.7862 67.4169C50.1232 67.7539 50.3125 68.2109 50.3125 68.6875C50.3125 69.1641 50.1232 69.6211 49.7862 69.9581C49.4492 70.2951 48.9922 70.4844 48.5156 70.4844ZM34.1406 48.9219C38.1665 48.9267 42.0462 50.431 45.0229 53.1416C47.9996 55.8521 49.8598 59.5743 50.2406 63.5821C49.6855 63.3919 49.1025 63.2955 48.5156 63.2969H46.7188C45.3558 63.2986 44.0137 62.9629 42.8121 62.3198C41.6105 61.6766 40.5867 60.746 39.8322 59.611L39.2303 58.7059C39.0659 58.4599 38.8434 58.2582 38.5825 58.1187C38.3215 57.9792 38.0302 57.9062 37.7344 57.9062C37.4385 57.9062 37.1472 57.9792 36.8863 58.1187C36.6254 58.2582 36.4029 58.4599 36.2385 58.7059L35.6365 59.611C34.882 60.746 33.8583 61.6766 32.6567 62.3198C31.455 62.9629 30.1129 63.2986 28.75 63.2969H19.7656C19.1788 63.2955 18.5958 63.3919 18.0406 63.5821C18.4214 59.5743 20.2816 55.8521 23.2583 53.1416C26.235 50.431 30.1148 48.9267 34.1406 48.9219ZM19.7656 66.8906V70.4844C19.2891 70.4844 18.832 70.2951 18.495 69.9581C18.1581 69.6211 17.9688 69.1641 17.9688 68.6875C17.9688 68.2109 18.1581 67.7539 18.495 67.4169C18.832 67.0799 19.2891 66.8906 19.7656 66.8906ZM21.0504 83.3276C20.298 83.1395 19.5947 82.7925 18.9875 82.31C18.3804 81.8275 17.8835 81.2207 17.5303 80.5303C17.1772 79.8399 16.9758 79.0819 16.9399 78.3072C16.9039 77.5325 17.0342 76.7591 17.3219 76.039C17.6165 75.3041 17.8135 74.5339 17.9081 73.7479C18.5029 73.9668 19.1318 74.0786 19.7656 74.0781H19.8757C20.1391 76.1665 20.858 78.1715 21.9816 79.9514C23.1052 81.7313 24.6061 83.2427 26.3781 84.3787C24.5857 84.1159 22.8023 83.7655 21.0504 83.3276ZM28.9454 94.7017L25.7313 90.4185L27.1216 89.0281L31.4049 92.2423L28.9454 94.7017ZM30.502 87.0718C30.5327 86.8282 30.5477 86.5829 30.5469 86.3373V83.6487C30.547 83.3092 30.4508 82.9767 30.2695 82.6897C30.0882 82.4026 29.8292 82.1729 29.5227 82.0271C28.4078 81.496 27.3916 80.779 26.5174 79.9068C25.5132 78.9075 24.717 77.7191 24.1749 76.4102C23.6329 75.1013 23.3557 73.6979 23.3594 72.2812V66.8906H28.75C30.4554 66.8926 32.1411 66.5261 33.6917 65.8163C35.2423 65.1065 36.6213 64.0701 37.7344 62.778C39.5789 64.919 42.1282 66.3299 44.9219 66.7558V72.2812C44.9157 74.3205 44.3343 76.3166 43.2444 78.0402C42.1546 79.7638 40.6005 81.1449 38.7609 82.0248C38.4538 82.1708 38.1944 82.4009 38.0128 82.6883C37.8311 82.9757 37.7346 83.3087 37.7344 83.6487V86.3373C37.7335 86.5829 37.7486 86.8282 37.7793 87.0718L34.1406 89.8008L30.502 87.0718ZM39.3358 94.7017L36.8763 92.2423L41.1597 89.0281L42.55 90.4185L39.3358 94.7017Z" fill="#2C3344"/>
<path d="M53.9062 108.219H50.3125V111.812H53.9062V108.219Z" fill="#2C3344"/>
<path d="M17.9688 108.219H14.375V111.812H17.9688V108.219Z" fill="#2C3344"/>
<path d="M100.625 4H57.5C54.6416 4.0032 51.9012 5.1401 49.88 7.16128C47.8588 9.18247 46.7219 11.9229 46.7188 14.7812V39.9375C46.722 42.4846 47.6255 44.9485 49.2695 46.8939C50.9135 48.8393 53.1923 50.141 55.7031 50.5689V57.9062C55.7031 58.2616 55.8085 58.609 56.006 58.9045C56.2035 59.2 56.4841 59.4303 56.8124 59.5663C57.1407 59.7023 57.502 59.7379 57.8506 59.6686C58.1992 59.5993 58.5193 59.4282 58.7707 59.1769L67.2286 50.7188H100.625C103.483 50.7156 106.224 49.5787 108.245 47.5575C110.266 45.5363 111.403 42.7959 111.406 39.9375V14.7812C111.403 11.9229 110.266 9.18247 108.245 7.16128C106.224 5.1401 103.483 4.0032 100.625 4ZM107.812 39.9375C107.81 41.8431 107.052 43.67 105.705 45.0174C104.357 46.3649 102.531 47.1228 100.625 47.125H66.4844C66.0078 47.125 65.5508 47.3143 65.2137 47.6512L59.2969 53.5683V48.9219C59.2969 48.4453 59.1075 47.9883 58.7706 47.6513C58.4336 47.3143 57.9766 47.125 57.5 47.125C55.5944 47.1228 53.7675 46.3649 52.4201 45.0174C51.0726 43.67 50.3147 41.8431 50.3125 39.9375V14.7812C50.3147 12.8757 51.0726 11.0488 52.4201 9.70133C53.7675 8.35388 55.5944 7.59593 57.5 7.59375H100.625C102.531 7.59593 104.357 8.35388 105.705 9.70133C107.052 11.0488 107.81 12.8757 107.812 14.7812V39.9375Z" fill="#2C3344"/>
<path d="M79.0787 13.9976C76.9896 12.1462 74.2616 11.1812 71.473 11.3073C68.6844 11.4333 66.0546 12.6405 64.141 14.6729C62.2275 16.7053 61.1808 19.403 61.2228 22.1941C61.2648 24.9852 62.3922 27.6503 64.3659 29.6242L77.857 43.115C78.0285 43.2917 78.2346 43.4311 78.4624 43.5245C78.6819 43.6186 78.9179 43.6684 79.1568 43.671C79.8796 43.671 80.3922 43.1707 80.7598 42.8121C80.9892 42.5881 81.3204 42.2606 81.7346 41.8483C82.5534 41.0327 83.7003 39.8825 85.0261 38.5491C87.2684 36.2938 90.261 33.2743 93.9203 29.5746C95.8888 27.5845 97.0046 24.9058 97.0308 22.1067C97.057 19.3076 95.9917 16.6084 94.0608 14.5818C92.1298 12.5552 89.4853 11.3607 86.6882 11.2516C83.8911 11.1425 81.1616 12.1275 79.0787 13.9976ZM91.3654 27.0473C84.003 34.4906 80.6637 37.8432 79.1623 39.3381L66.9073 27.0828C65.5687 25.7432 64.817 23.9268 64.8174 22.0331C64.8177 20.1394 65.5702 18.3233 66.9093 16.9842C68.2484 15.6451 70.0644 14.8927 71.9582 14.8923C73.8519 14.8919 75.6683 15.6437 77.0079 16.9822L77.8107 17.785C78.1478 18.1219 78.6048 18.3111 79.0814 18.3111C79.5579 18.3111 80.015 18.1219 80.352 17.785L81.2 16.937C82.542 15.5951 84.3614 14.8401 86.2592 14.8376C88.157 14.8351 89.9783 15.5852 91.3239 16.9235C92.6695 18.2618 93.4295 20.079 93.4373 21.9768C93.445 23.8746 92.6999 25.698 91.3654 27.0473Z" fill="#2C3344"/>
<path d="M69.124 17.4987L71.0323 20.5437C71.2968 20.3804 71.5998 20.29 71.9105 20.2815C72.2213 20.2731 72.5287 20.347 72.8017 20.4956L74.542 17.3515C73.7074 16.8919 72.7654 16.6632 71.813 16.6891C70.8606 16.715 69.9323 16.9945 69.124 17.4987H69.124Z" fill="#2C3344"/>
<path d="M70.208 22.001L66.6147 21.9365C66.599 22.6548 66.7295 23.3687 66.9982 24.035C67.2668 24.7012 67.6682 25.3059 68.1777 25.8123L70.6043 28.239L73.1457 25.6976L70.7188 23.2708C70.552 23.1049 70.4207 22.9067 70.3329 22.6884C70.2451 22.4701 70.2026 22.2362 70.208 22.001Z" fill="#2C3344"/>
<path d="M59.2969 18.375H55.7031V21.9688H59.2969V18.375Z" fill="#2C3344"/>
<path d="M58.0337 11.6175L56.4934 14.8643L59.7404 16.4046L61.2806 13.1578L58.0337 11.6175Z" fill="#2C3344"/>
<path d="M102.422 18.375H98.8281V21.9688H102.422V18.375Z" fill="#2C3344"/>
<path d="M100.091 11.6176L96.8444 13.1578L98.3846 16.4046L101.632 14.8644L100.091 11.6176Z" fill="#2C3344"/>
</svg>
