<svg xmlns="http://www.w3.org/2000/svg" xmlns:xlink="http://www.w3.org/1999/xlink" width="92" zoomAndPan="magnify" viewBox="0 0 69 68.999997" height="92" preserveAspectRatio="xMidYMid meet" version="1.0"><path fill="#ff5f5f" d="M 20.339844 0 C 9.125 0 0 9.125 0 20.339844 L 0 48.660156 C 0 59.875 9.125 69 20.339844 69 L 48.660156 69 C 59.875 69 69 59.875 69 48.660156 L 69 20.339844 C 69 9.125 59.875 0 48.660156 0 Z M 20.339844 3.285156 L 48.660156 3.285156 C 58.097656 3.285156 65.714844 10.902344 65.714844 20.339844 L 65.714844 48.660156 C 65.714844 58.097656 58.097656 65.714844 48.660156 65.714844 L 20.339844 65.714844 C 10.902344 65.714844 3.285156 58.097656 3.285156 48.660156 L 3.285156 20.339844 C 3.285156 10.902344 10.902344 3.285156 20.339844 3.285156 Z M 54.546875 20.746094 C 54.046875 20.742188 53.539062 20.871094 53.074219 21.160156 L 43.820312 26.945312 C 42.707031 23.722656 39.722656 21.355469 36.132812 21.355469 L 14.785156 21.355469 C 14.566406 21.355469 14.359375 21.398438 14.15625 21.480469 C 13.957031 21.566406 13.777344 21.683594 13.625 21.839844 C 13.46875 21.992188 13.351562 22.171875 13.269531 22.371094 C 13.183594 22.574219 13.144531 22.78125 13.144531 23 L 13.144531 39.417969 C 13.144531 43.941406 16.84375 47.644531 21.367188 47.644531 L 42.714844 47.644531 C 42.933594 47.644531 43.140625 47.601562 43.34375 47.519531 C 43.542969 47.433594 43.722656 47.316406 43.875 47.160156 C 44.03125 47.007812 44.148438 46.828125 44.230469 46.628906 C 44.316406 46.425781 44.355469 46.21875 44.355469 46 L 44.355469 40.746094 L 53.074219 46.195312 C 54.929688 47.355469 57.5 45.929688 57.5 43.746094 L 57.5 23.613281 C 57.5 21.972656 56.054688 20.761719 54.546875 20.746094 Z M 54.214844 24.320312 L 54.214844 43.035156 L 44.355469 36.875 L 44.355469 30.484375 Z M 16.429688 24.644531 L 36.132812 24.644531 C 38.878906 24.644531 41.070312 26.835938 41.070312 29.582031 L 41.070312 44.355469 L 21.367188 44.355469 C 18.621094 44.355469 16.429688 42.164062 16.429688 39.417969 Z M 16.429688 24.644531 " fill-opacity="1" fill-rule="nonzero"/></svg>