<svg width="36" height="36" viewBox="0 0 36 36" fill="none" xmlns="http://www.w3.org/2000/svg">
<path fill-rule="evenodd" clip-rule="evenodd" d="M18 36C27.9412 36 36 27.9411 36 18C36 8.05888 27.9412 0 18 0C8.05884 0 0 8.05888 0 18C0 27.9411 8.05884 36 18 36ZM26.089 10.5996C27.2135 10.8496 28.1825 11.6504 28.3859 12.75C28.6411 14 28.8964 15.75 29 18C28.9481 20.1992 28.693 22 28.4896 23.25C28.2842 24.4004 27.3152 25.1504 26.1926 25.4004C24.4062 25.75 21.3436 26 17.9741 26C14.6045 26 11.542 25.75 9.75549 25.4004C8.63293 25.1504 7.66394 24.3496 7.45862 23.25C7.20337 22 7 20.25 7 18C7 15.75 7.20337 14 7.40869 12.75C7.61206 11.5996 8.58313 10.8496 9.70569 10.5996C11.3904 10.25 14.5547 10 17.9222 10C21.2919 10 24.4062 10.25 26.089 10.5996ZM21.3936 18L15.1667 14.5V21.5L21.3936 18Z" fill="#2C3344"/>
</svg>
