<svg width="36" height="36" viewBox="0 0 36 36" fill="none" xmlns="http://www.w3.org/2000/svg">
<path fill-rule="evenodd" clip-rule="evenodd" d="M18 36C27.9411 36 36 27.9411 36 18C36 8.05887 27.9411 0 18 0C8.05887 0 0 8.05887 0 18C0 27.9411 8.05887 36 18 36ZM26.089 10.5996C27.2135 10.8496 28.1825 11.6504 28.3859 12.75C28.6411 14 28.8963 15.75 29 18C28.9482 20.1992 28.6929 22 28.4896 23.25C28.2842 24.4004 27.3152 25.1504 26.1927 25.4004C24.4062 25.75 21.3437 26 17.9741 26C14.6045 26 11.542 25.75 9.75548 25.4004C8.63295 25.1504 7.66395 24.3496 7.45858 23.25C7.20337 22 7 20.25 7 18C7 15.75 7.20337 14 7.40874 12.75C7.61211 11.5996 8.58311 10.8496 9.70564 10.5996C11.3904 10.25 14.5546 10 17.9222 10C21.2918 10 24.4062 10.25 26.089 10.5996ZM21.3935 18L15.1668 14.5V21.5L21.3935 18Z" fill="#F4F4ED"/>
</svg>
